<svg width="58" height="14" viewBox="0 0 58 14" fill="none" xmlns="http://www.w3.org/2000/svg">
<path fill-rule="evenodd" clip-rule="evenodd" d="M10.6715 0.453613V4.39656C10.6715 5.53337 10.0687 6.1857 9.01809 6.1857C7.97625 6.1857 7.37858 5.53337 7.37858 4.39656V0.453613H6.77148V4.40622C6.77148 5.8896 7.61128 6.77547 9.01809 6.77547C10.3966 6.77547 11.2871 5.84565 11.2871 4.40622V0.453613H10.6715Z" fill="#404040"/>
<path fill-rule="evenodd" clip-rule="evenodd" d="M2.30674 10.4936C1.45725 10.1325 1.02554 9.84582 1.02554 9.2826C1.02554 8.67943 1.5655 8.25813 2.33827 8.25813C2.75369 8.25813 3.19459 8.38901 3.54747 8.61716L3.63129 8.67144L3.96079 8.14299L3.89221 8.10023C3.45236 7.8279 2.91607 7.67822 2.38215 7.67822C1.22129 7.67822 0.345787 8.38196 0.345787 9.31526C0.345787 10.1853 1.0103 10.6346 2.00746 11.0406C2.95417 11.4352 3.37668 11.7162 3.37668 12.34C3.37668 12.9768 2.82568 13.4218 2.03689 13.4218C1.51295 13.4218 0.965629 13.2461 0.410425 12.8992L0.325555 12.8464L0 13.3922L0.0683166 13.4338C0.699983 13.8149 1.32955 14.0001 1.99353 14.0001C3.1741 14.0001 4.06405 13.2623 4.06405 12.2839C4.06405 11.3926 3.44631 10.9671 2.30674 10.4936Z" fill="#404040"/>
<path fill-rule="evenodd" clip-rule="evenodd" d="M6.58257 10.7517L9.81371 7.67822H8.93978L6.07555 10.4255V7.67822H5.41797V14.0001H6.07555V11.0811L9.04381 14.0001H9.93358L6.58257 10.7517Z" fill="#404040"/>
<path fill-rule="evenodd" clip-rule="evenodd" d="M11.29 14.0001H12.1932V7.67822H11.29V14.0001Z" fill="#404040"/>
<path fill-rule="evenodd" clip-rule="evenodd" d="M18.8753 14.0001L14.6883 9.1939V13.9644H13.998V7.72451L14.1957 7.67822L18.3464 12.442V7.70812H18.9652V13.9837L18.8753 14.0001Z" fill="#404040"/>
<path fill-rule="evenodd" clip-rule="evenodd" d="M5.32896 6.77547L1.14194 1.96929V6.68362H0.45166V0.499901L0.64928 0.453613L4.80005 5.21737V0.536545H5.41883V6.75908L5.32896 6.77547Z" fill="#404040"/>
<path fill-rule="evenodd" clip-rule="evenodd" d="M18.3913 1.8742C18.3913 1.8742 19.0116 1.84 19.48 2.38646C19.6355 2.5687 19.7836 2.80275 19.8686 3.1292C19.6442 1.36347 18.214 0.00178666 16.4817 0C14.7496 0.00178666 13.3191 1.36347 13.0952 3.1292C13.18 2.80275 13.3283 2.5687 13.4836 2.38646C13.952 1.84 14.5723 1.8742 14.5723 1.8742C16.1143 1.95639 16.1203 3.59603 16.1203 3.59603V7.20839C16.193 7.21605 16.2657 7.22141 16.3394 7.22498V3.36836C16.3394 2.84231 16.1834 2.33133 15.8372 1.96634C15.5194 1.62943 15.107 1.4426 14.6756 1.43622C14.8587 1.09701 15.1155 0.812163 15.4186 0.613078C15.7389 0.403274 16.107 0.29148 16.4814 0.29148H16.4819C16.8566 0.29148 17.2242 0.403274 17.5445 0.613078C17.8481 0.812163 18.1049 1.09701 18.2877 1.43622C17.8566 1.4426 17.4442 1.62943 17.1261 1.96634C16.7802 2.33133 16.624 2.84231 16.624 3.36836V7.22498C16.6974 7.22141 16.7708 7.21605 16.843 7.20839V3.59603C16.843 3.59603 16.8496 1.95639 18.3913 1.8742ZM18.5297 3.82497C18.5297 3.82497 18.2986 3.82931 18.1032 3.95897C17.8711 4.11263 17.629 4.42452 17.629 5.06951V7.02028C18.3145 6.75917 18.9012 6.2732 19.3046 5.64583C19.5718 5.18641 19.5846 4.82065 19.5174 4.55699C19.4227 4.21625 19.1266 3.79001 18.5297 3.82497ZM19.4022 2.97682C19.1947 2.8053 18.8858 2.67488 18.4259 2.67488C18.4259 2.67488 17.1273 2.68305 17.1273 3.88827V7.16628C17.2008 7.15071 17.2732 7.13386 17.345 7.1137V4.20962C17.345 4.20962 17.338 3.97633 17.4616 3.71803C17.5947 3.42272 17.8802 3.10112 18.4925 3.08326C18.4925 3.08326 19.0085 3.03272 19.3933 3.47683C19.5742 3.69608 19.7377 3.95412 19.7413 4.68742C20.0648 3.6703 19.5701 3.12971 19.4022 2.97682ZM14.538 2.67488C14.0785 2.67488 13.7699 2.8053 13.5619 2.97682C13.3942 3.12971 12.8993 3.6703 13.2228 4.68742C13.2261 3.95412 13.3897 3.69608 13.5708 3.47683C13.9556 3.03272 14.4718 3.08326 14.4718 3.08326C15.0839 3.10112 15.3694 3.42272 15.5027 3.71803C15.6259 3.97633 15.6194 4.20962 15.6194 4.20962V7.1137C15.6909 7.13386 15.7633 7.15071 15.8365 7.16628V3.88827C15.8365 2.68305 14.538 2.67488 14.538 2.67488ZM14.8614 3.95897C14.6657 3.82931 14.4343 3.82497 14.4343 3.82497C13.8375 3.79001 13.5416 4.21625 13.4469 4.55699C13.3798 4.82065 13.3926 5.18641 13.6595 5.64583C14.0628 6.2732 14.6496 6.75917 15.3353 7.02028V5.06951C15.3353 4.42452 15.093 4.11263 14.8614 3.95897Z" fill="#404040"/>
<rect x="31.8687" y="4" width="1" height="6" fill="#404040"/>
<g clip-path="url(#clip0_1615_34230)">
<path d="M47.3582 3.89427C47.284 3.95125 47.2212 4.01394 47.2212 4.01394C47.1241 4.10512 47.0613 4.19629 47.0156 4.26468H49.6765C49.6137 4.1621 49.4995 4.00254 49.3168 3.86577C48.9913 3.62073 48.6487 3.59224 48.4831 3.58084C48.4374 3.58084 48.3974 3.57514 48.3518 3.57514C47.9692 3.57514 47.6266 3.68911 47.3582 3.89427ZM53.5193 3.58084C53.3537 3.59224 53.0111 3.62073 52.6857 3.86577C52.5029 4.00254 52.3887 4.1564 52.3259 4.26468H54.9868C54.9411 4.19629 54.8726 4.10512 54.7812 4.01394C54.7812 4.01394 54.7184 3.95125 54.6442 3.89996C54.3758 3.69481 54.0332 3.58084 53.6507 3.58084C53.605 3.57514 53.5593 3.57514 53.5193 3.58084ZM47.7865 2.19037C47.2383 2.40122 46.9585 2.80582 46.8614 2.94829C46.673 3.22752 46.5931 3.48966 46.5531 3.63213C46.5188 3.7575 46.4617 3.97405 46.4732 4.25328C46.4732 4.26468 46.4732 4.27038 46.4732 4.27607C46.5131 4.27038 46.5531 4.27038 46.5931 4.26468C46.6045 4.23618 46.6216 4.1906 46.6388 4.14501C46.7301 3.93416 46.8329 3.79169 46.8672 3.7575C46.9185 3.68911 47.0327 3.55235 47.1983 3.43268C47.5238 3.18763 47.8664 3.14204 48.072 3.10785C48.6544 3.02237 49.1911 3.14204 49.6708 3.48966C49.9449 3.68342 50.099 3.95125 50.1447 4.27038H50.5558C50.5615 4.1564 50.5558 3.98544 50.5101 3.79169C50.3274 2.98248 49.5965 2.19607 48.6944 2.0821C48.6144 2.0707 48.5402 2.0707 48.4717 2.0707C48.1519 2.0593 47.895 2.14478 47.7865 2.19037ZM53.3023 2.0764C52.4002 2.19037 51.6693 2.97108 51.4866 3.78599C51.4409 3.97974 51.4352 4.1507 51.4409 4.26468H51.852C51.8691 4.1564 51.9091 3.97975 52.029 3.79739C52.1318 3.64353 52.2403 3.55235 52.3316 3.48966C52.8113 3.14774 53.348 3.02237 53.9305 3.10785C54.136 3.13635 54.4729 3.18763 54.8041 3.43268C54.9697 3.55805 55.0839 3.68911 55.1353 3.7575C55.1638 3.79739 55.2723 3.93985 55.3637 4.14501C55.3865 4.19629 55.3979 4.23618 55.4093 4.26468C55.4493 4.27038 55.4893 4.27038 55.5293 4.27607C55.5293 4.27038 55.5293 4.26468 55.5293 4.25898C55.5464 3.97975 55.4836 3.7632 55.4493 3.63783C55.4151 3.50676 55.3408 3.23892 55.141 2.95399C55.0439 2.81152 54.7584 2.40692 54.216 2.19607C54.1075 2.15048 53.8505 2.065 53.525 2.065C53.4565 2.0593 53.3823 2.065 53.3023 2.0764ZM49.7393 0.400995C49.7393 0.400995 49.0198 0.788503 48.7115 1.39826C48.6887 1.43815 48.6772 1.47804 48.6772 1.47804C48.6715 1.49513 48.6658 1.50653 48.6658 1.51793C48.7001 1.51793 48.7286 1.52363 48.7629 1.52363C48.9627 1.54072 49.5965 1.62051 50.1276 2.12768C50.6358 2.61207 50.7614 3.19903 50.8014 3.43837C50.8071 3.47257 50.8356 3.67202 50.8413 3.93985C50.847 4.07092 50.8413 4.1849 50.8413 4.25898H51.1668C51.1668 4.1849 51.1611 4.07662 51.1668 3.93985C51.1782 3.67202 51.2011 3.47257 51.2068 3.43837C51.2467 3.19903 51.3724 2.61207 51.8806 2.12768C52.4173 1.62051 53.0454 1.54072 53.2452 1.52363C53.2795 1.52363 53.3081 1.51793 53.3423 1.51793C53.3423 1.50653 53.3366 1.49513 53.3309 1.47804C53.3309 1.47804 53.3138 1.43815 53.2966 1.39826C52.9883 0.782804 52.2688 0.400995 52.2688 0.400995C51.6921 0.0932678 51.1611 0.0761719 51.0069 0.0761719C50.847 0.0818705 50.3103 0.0932678 49.7393 0.400995Z" fill="#404040"/>
<path d="M55.8377 8.00883C55.7749 8.02022 55.7064 8.02022 55.6379 8.02022C55.5979 8.02022 55.5579 8.02022 55.5179 8.01452C55.124 7.98603 54.7471 7.82077 54.4445 7.58143C54.3245 7.48455 54.2161 7.37628 54.1247 7.2566C53.9705 7.06285 53.8677 6.8406 53.8221 6.61836C53.8677 6.8463 53.8449 7.06285 53.7707 7.2566C53.725 7.37628 53.6622 7.48455 53.5765 7.58143C53.3481 7.84926 52.9884 8.02022 52.5544 8.02022C52.5373 8.02022 52.5145 8.02022 52.4973 8.02022C52.3603 8.01452 52.2233 7.99173 52.0976 7.95754C52.0063 7.92904 51.9149 7.89485 51.8293 7.85496C51.6865 7.78658 51.5552 7.6954 51.4467 7.59282L51.441 7.58713C51.3382 7.49025 51.2526 7.38197 51.1783 7.2623C51.1726 7.25091 51.1669 7.24521 51.1612 7.23381C51.0527 7.04575 50.9956 6.8406 50.9956 6.62405C50.9956 6.82921 50.9442 7.02296 50.8529 7.20532C50.8414 7.22811 50.83 7.24521 50.8186 7.268C50.7501 7.38197 50.6644 7.49025 50.5674 7.58713C50.5674 7.58713 50.5674 7.58713 50.5674 7.59282H50.5616C50.4532 7.7011 50.3218 7.79228 50.1791 7.86066C50.0934 7.90055 50.0021 7.94044 49.9107 7.96894C49.7851 8.00883 49.648 8.02592 49.511 8.03162C49.4939 8.03162 49.471 8.03162 49.4539 8.03162C49.0199 8.03162 48.6602 7.86066 48.4318 7.59282C48.3519 7.49595 48.2833 7.38767 48.2377 7.268C48.1634 7.07425 48.1406 6.852 48.1863 6.62975C48.1406 6.8577 48.0321 7.07425 47.8836 7.268C47.7923 7.38767 47.6838 7.49595 47.5639 7.59282C47.2613 7.83787 46.8844 7.99743 46.4904 8.02592C46.4504 8.03162 46.4105 8.03162 46.3705 8.03162C46.302 8.03162 46.2335 8.02592 46.1706 8.02022C45.4512 7.92335 45.1086 7.31359 45.377 6.62975L45.9422 5.1766C46.0564 4.88597 46.3477 4.69221 46.6503 4.69221H46.8273H47.5867H48.5917H48.8658H49.8479H50.1677H50.5616H50.8357H51.007H51.1555H51.4296H51.8236H52.1433H53.1254H53.4395H54.4216H55.1811H55.3752C55.6778 4.69221 55.9519 4.88597 56.0661 5.1766L56.6314 6.62975C56.8998 7.30219 56.5572 7.91195 55.8377 8.00883ZM55.5179 9.16565C55.5179 9.16565 55.5179 9.17135 55.5179 9.16565V13.2801C55.5179 13.4567 55.3752 13.5992 55.1982 13.5992H48.0949L48.1006 9.98626C48.1006 9.49047 48.6088 9.09157 49.2312 9.09157C49.8536 9.09157 50.3618 9.49047 50.3618 9.98626V12.6361C50.3618 12.7273 50.436 12.7957 50.5217 12.7957C50.613 12.7957 50.6816 12.7216 50.6816 12.6361V9.98626C50.6816 9.31382 50.0306 8.76675 49.2312 8.76675C48.4318 8.76675 47.7809 9.31382 47.7809 9.98626L47.7752 13.5992H47.7694H46.7987C46.6217 13.5992 46.479 13.4567 46.479 13.2801V10.4877V8.57299V8.44762C46.9358 8.41913 47.3926 8.24247 47.7752 7.94614C47.8608 7.87776 47.9407 7.80937 48.0093 7.73529C48.0264 7.76378 48.0492 7.79228 48.0721 7.82077C48.3861 8.22537 48.8886 8.45332 49.4425 8.45332C49.4596 8.45332 49.4825 8.45332 49.4996 8.45332C49.6366 8.44762 49.768 8.43053 49.8993 8.40203C49.9906 8.37924 50.082 8.35074 50.1734 8.31655C50.3104 8.26526 50.436 8.19688 50.5616 8.1171C50.6473 8.06011 50.7329 7.99743 50.8072 7.92335C50.8186 7.91195 50.83 7.90055 50.8414 7.88915C50.8928 7.83787 50.9442 7.78658 50.9899 7.72959C51.0413 7.79228 51.0927 7.84926 51.1555 7.90055C51.2411 7.98033 51.3382 8.05441 51.441 8.1228C51.5609 8.20258 51.6922 8.26526 51.8293 8.31655C51.9149 8.35074 52.0063 8.37924 52.1034 8.40203C52.229 8.43053 52.366 8.44762 52.5031 8.45332C52.5202 8.45332 52.543 8.45332 52.5602 8.45332C53.114 8.45332 53.6165 8.22537 53.9306 7.82077C53.9534 7.79228 53.9705 7.76378 53.9934 7.73529C54.0676 7.80937 54.1475 7.87776 54.2275 7.94614C54.61 8.24817 55.0669 8.42483 55.5237 8.44762V9.16565H55.5179ZM52.326 4.26482H51.8578H52.326ZM46.5932 4.26482C46.5703 4.26482 46.5361 4.27051 46.4961 4.27621C46.4847 4.27621 46.4733 4.27621 46.4733 4.27621C46.0622 4.3389 45.7024 4.61813 45.5483 5.01134L44.9887 6.45879C44.8002 6.93748 44.8345 7.42756 45.0857 7.80937C45.3141 8.16269 45.7024 8.38494 46.1649 8.43053V8.5388V8.56729V10.482V10.5048V13.2744C46.1649 13.6277 46.4504 13.9126 46.8045 13.9126H47.7752H48.0664H55.2039C55.5579 13.9126 55.8434 13.6277 55.8434 13.2744V9.17135C55.8434 9.16565 55.8434 9.16565 55.8434 9.15995V8.43053C56.3059 8.37924 56.6942 8.16269 56.9226 7.80937C57.1681 7.42756 57.2024 6.93748 57.0197 6.45879L56.4544 5.00564C56.2945 4.59534 55.9405 4.3218 55.5294 4.26482C55.5122 4.26482 55.4951 4.25912 55.4723 4.25912C55.438 4.25912 55.4037 4.25912 55.3752 4.25342C52.446 4.26482 49.5224 4.26482 46.5932 4.26482Z" fill="#404040"/>
<path d="M54.0676 9.57568C53.9762 9.57568 53.9077 9.64977 53.9077 9.73525L53.902 11.479C53.902 11.9748 53.3938 12.3737 52.7714 12.3737C52.149 12.3737 51.6408 11.9748 51.6408 11.479V9.73525C51.6408 9.64407 51.5666 9.57568 51.4809 9.57568C51.3896 9.57568 51.321 9.64977 51.321 9.73525V11.479C51.321 12.1515 51.972 12.6985 52.7714 12.6985C53.5708 12.6985 54.2217 12.1515 54.2217 11.4847L54.2274 9.74094C54.2274 9.64977 54.1532 9.57568 54.0676 9.57568Z" fill="#404040"/>
</g>
<defs>
<clipPath id="clip0_1615_34230">
<rect width="12.2651" height="13.8477" fill="white" transform="translate(44.8687 0.0761719)"/>
</clipPath>
</defs>
</svg>
