<svg width="28" height="28" viewBox="0 0 28 28" fill="none" xmlns="http://www.w3.org/2000/svg">
<path fill-rule="evenodd" clip-rule="evenodd" d="M24.4533 26.2394H24.5868V25.9516C24.6203 25.9561 24.6445 25.9561 24.6589 25.9561C24.6683 25.9561 24.6973 25.9561 24.7214 25.9516L24.8986 26.2394H25.0565L24.8509 25.9233C24.9415 25.8856 24.9989 25.7913 24.9989 25.6873C24.9989 25.5552 24.8938 25.4425 24.6683 25.4425C24.5868 25.4425 24.5201 25.447 24.4533 25.4565V26.2394ZM24.5868 25.5647C24.6109 25.56 24.6493 25.56 24.6828 25.56C24.7932 25.56 24.8605 25.612 24.8605 25.6923C24.8605 25.7913 24.7932 25.8483 24.6731 25.8483C24.6493 25.8483 24.6203 25.8483 24.5868 25.8433V25.5647ZM24.7069 26.5467C24.3334 26.5467 24.0311 26.2254 24.0311 25.8528C24.0311 25.466 24.3334 25.1539 24.7069 25.1539C25.0852 25.1539 25.3876 25.466 25.3876 25.8528C25.3876 26.2254 25.0852 26.5467 24.7069 26.5467ZM24.7069 26.6592C25.1571 26.6592 25.5163 26.2914 25.5163 25.8528C25.5163 25.4045 25.1571 25.0366 24.7069 25.0366C24.2565 25.0366 23.9023 25.3999 23.9023 25.8528C23.9023 26.2964 24.2613 26.6592 24.7069 26.6592Z" fill="#f1ecf7"/>
<path fill-rule="evenodd" clip-rule="evenodd" d="M27.9211 11.3583C27.5065 10.4331 26.9525 9.60422 26.2084 8.91231C22.8997 5.83239 17.5742 7.14268 15.9905 11.4231C15.6467 12.3526 15.4672 13.3113 15.4685 14.3062C15.4751 18.6299 15.4715 22.9534 15.4715 27.2768C15.4715 28.012 15.4713 28.012 14.6647 27.9672C14.656 27.8259 14.6398 27.6777 14.6398 27.5294C14.638 22.6443 14.6306 17.7597 14.6408 12.8747C14.6474 9.63247 16.4284 7.0119 19.3029 5.98718C19.6492 5.86365 20.0118 5.77613 20.3733 5.70511C20.732 5.6341 21.0989 5.60584 21.464 5.55833C21.0161 3.53464 17.2784 1.18388 14.2437 1.0721C10.6946 0.941075 7.67111 3.18281 6.50603 5.55733C6.85157 5.59984 7.18797 5.62385 7.51777 5.68386C10.568 6.23798 12.8055 8.52523 13.2434 11.5521C13.3216 12.0923 13.3678 12.6411 13.3693 13.187C13.379 17.9595 13.3714 22.7321 13.3813 27.5046C13.3823 27.8805 13.2929 28.0382 12.8804 27.9922C12.5752 27.958 12.5137 27.8274 12.5155 27.5576C12.5252 26.0413 12.5201 24.5257 12.5201 23.0094C12.5201 20.0057 12.547 17.0016 12.5097 13.9974C12.4873 12.2038 11.9212 10.5634 10.6759 9.22213C8.0296 6.37101 2.72516 6.28649 0.344468 10.8462C0.249768 11.0283 0.164716 11.2153 0.0332031 11.4856C1.16782 4.87218 7.30882 -0.117906 14.1498 0.00212006C21.5112 0.131148 26.8456 5.38429 27.9211 11.3583Z" fill="#f1ecf7"/>
<path fill-rule="evenodd" clip-rule="evenodd" d="M18.8599 27.1558C18.8447 27.0188 18.8241 26.9237 18.8241 26.828C18.8271 24.2739 18.8089 21.7191 18.8464 19.1653C18.8642 17.9138 19.2067 16.7375 20.173 15.8481C21.4142 14.7061 22.8941 14.5883 24.3946 15.1637C25.8847 15.7358 26.642 16.939 26.7484 18.4921C26.8596 20.1112 26.15 21.4603 25.1583 22.6873C23.5824 24.6377 21.6176 26.0808 19.2775 27.0285C19.1506 27.0803 19.015 27.109 18.8599 27.1558Z" fill="#f1ecf7"/>
<path fill-rule="evenodd" clip-rule="evenodd" d="M9.13508 27.2558C8.21424 26.7877 7.34366 26.4086 6.5396 25.9232C4.69233 24.8087 3.14413 23.3709 2.04049 21.5188C1.43167 20.4965 1.08892 19.384 1.27908 18.1775C1.57587 16.2934 3.01186 14.9668 4.82435 14.8788C6.96207 14.7738 8.45213 15.816 8.95406 17.8162C9.08964 18.3551 9.15971 18.9234 9.16504 19.4788C9.18713 21.8923 9.17469 24.3059 9.17316 26.7189C9.17291 26.8532 9.15488 26.9872 9.13508 27.2558Z" fill="#f1ecf7"/>
<path fill-rule="evenodd" clip-rule="evenodd" d="M11.2472 27.6953C10.5388 27.7318 10.4411 27.6493 10.4411 27.0249C10.4408 23.5719 10.4408 20.1191 10.4408 16.6661C10.4408 14.6064 9.39762 12.9803 7.63819 12.2962C5.58273 11.4975 3.31248 11.9418 1.9062 13.3966C0.85105 14.4881 0.484692 15.8257 0.410557 17.2782C0.403195 17.4173 0.392532 17.5558 0.295801 17.7118C0.221158 17.3638 0.124428 17.0179 0.0744121 16.6661C-0.124635 15.2625 0.0579095 13.927 0.837848 12.7025C1.37786 11.8551 2.09992 11.2172 3.06011 10.8766C5.12116 10.1454 7.14743 10.2132 9.09118 11.2464C10.5195 12.0058 11.2512 13.2441 11.2632 14.8205C11.2952 19.0311 11.2746 23.2425 11.2736 27.4537C11.2736 27.5352 11.2563 27.6167 11.2472 27.6953Z" fill="#f1ecf7"/>
<path fill-rule="evenodd" clip-rule="evenodd" d="M16.7096 27.7136V27.1917C16.7096 23.3044 16.7523 19.4163 16.6962 15.5299C16.6507 12.3782 18.4373 11.0254 20.9546 10.5268C22.2357 10.2725 23.512 10.37 24.7441 10.8029C26.8641 11.5478 28.1396 13.5913 27.986 16C27.9476 16.5919 27.8202 17.1788 27.6836 17.7502C27.5638 17.0195 27.512 16.2698 27.3117 15.5609C26.2537 11.8056 22.1022 11.0577 19.4861 12.7656C18.1255 13.6545 17.5609 15.0188 17.5558 16.5999C17.5444 20.0524 17.5525 23.5049 17.552 26.9569C17.552 27.6673 17.5327 27.6861 16.7096 27.7136Z" fill="#f1ecf7"/>
</svg>
