<svg width="50" height="50" viewBox="0 0 50 50" fill="none" xmlns="http://www.w3.org/2000/svg">
<g clip-path="url(#clip0_2432_30035)">
<path opacity="0.2" d="M30.0752 33.6763L30.5768 34.0826C31.1411 34.5906 31.1411 35.9112 30.5768 36.4191L26.627 39.7715C26.2508 40.0763 25.7492 40.0763 25.373 39.7715L21.4232 36.4191C20.8589 35.9112 20.8589 34.5906 21.4232 34.0826L21.9248 33.6763C24.4326 31.4414 27.5047 31.4414 30.0752 33.6763Z" />
<path d="M25.8998 21.5C26.1998 21.5 26.5998 21.6 26.8998 21.7L43.0998 30.2C43.5998 30.5 43.6998 31 43.6998 31.2C43.6998 31.4 43.5998 31.9 43.0998 32.2L26.8998 40.7C26.5998 40.9 26.1998 40.9 25.8998 40.9C25.5998 40.9 25.1998 40.8 24.8998 40.7L8.5998 32.2C8.0998 32 7.9998 31.5 7.9998 31.3C7.9998 31.1 8.0998 30.6 8.5998 30.3L24.7998 21.8C25.1998 21.6 25.4998 21.5 25.8998 21.5ZM25.8998 19.5C25.1998 19.5 24.5998 19.7 23.9998 20L7.6998 28.5C5.4998 29.7 5.4998 32.9 7.6998 34L23.8998 42.5C24.4998 42.8 25.1998 43 25.7998 43C26.4998 43 27.0998 42.8 27.6998 42.5L43.9998 34C46.1998 32.8 46.1998 29.6 43.9998 28.5L27.7998 20C27.1998 19.7 26.4998 19.5 25.8998 19.5Z" fill="#404040"/>
<path d="M25.9 29.3999C25.4 29.3999 24.9 29.2999 24.4 28.9999L8.1 20.5999C7.4 20.1999 7 19.4999 7 18.6999C7 17.8999 7.4 17.1999 8.1 16.7999L24.3 8.2999C24.8 8.0999 25.3 7.8999 25.8 7.8999C26.3 7.8999 26.8 7.9999 27.3 8.2999L43.5 16.7999C44.2 17.1999 44.6 17.8999 44.6 18.6999C44.6 19.4999 44.2 20.1999 43.5 20.5999L27.3 29.0999C26.9 29.2999 26.4 29.3999 25.9 29.3999Z" fill="white"/>
<path d="M25.8998 9C26.1998 9 26.5998 9.1 26.8998 9.2L43.0998 17.7C43.5998 18 43.6998 18.5 43.6998 18.7C43.6998 18.9 43.5998 19.4 43.0998 19.7L26.8998 28.2C26.5998 28.4 26.1998 28.4 25.8998 28.4C25.5998 28.4 25.1998 28.3 24.8998 28.2L8.5998 19.7C8.0998 19.4 7.9998 18.9 7.9998 18.7C7.9998 18.5 8.0998 18 8.5998 17.7L24.7998 9.2C25.1998 9.1 25.4998 9 25.8998 9ZM25.8998 7C25.1998 7 24.5998 7.2 23.9998 7.5L7.6998 15.9C5.4998 17.1 5.4998 20.3 7.6998 21.4L23.8998 30C24.4998 30.3 25.1998 30.5 25.7998 30.5C26.4998 30.5 27.0998 30.3 27.6998 30L43.9998 21.5C46.1998 20.3 46.1998 17.1 43.9998 16L27.7998 7.5C27.1998 7.2 26.4998 7 25.8998 7Z" fill="#404040"/>
</g>
<defs>
<clipPath id="clip0_2432_30035">
<rect width="39.7" height="36" fill="white" transform="translate(6 7)"/>
</clipPath>
</defs>
</svg>
