<svg width="50" height="50" viewBox="0 0 50 50" fill="none" xmlns="http://www.w3.org/2000/svg">
<g clip-path="url(#clip0_2265_22865)">
<path d="M28.507 43.0617H10.7407C9.15113 43.0617 7.93555 41.842 7.93555 40.2469V12.0988C7.93555 10.5037 9.15113 9.28394 10.7407 9.28394H35.0524C36.642 9.28394 37.8576 10.5037 37.8576 12.0988V26.9234" stroke="#404040" stroke-width="2" stroke-linecap="round" stroke-linejoin="round" fill="white"/>
<path opacity="0.2" d="M11.6629 39.3667L17.2925 39.3667C18.8876 39.3667 20.1073 38.1511 20.1073 36.5615L20.1073 35.6264C20.1073 32.5407 17.574 30.016 14.4777 30.016L13.5394 30.016C11.9444 30.016 10.7246 31.2316 10.7246 32.8212L10.7246 38.4316C10.7246 38.9927 11.0999 39.3667 11.6629 39.3667Z"/>
<path d="M28.6939 11.6296H17.0991C16.1641 11.6296 15.416 10.879 15.416 9.9407V8.62712C15.416 7.68885 16.1641 6.93823 17.0991 6.93823H28.6004C29.5355 6.93823 30.2835 7.68885 30.2835 8.62712V9.84687C30.3771 10.879 29.629 11.6296 28.6939 11.6296Z" fill="white" stroke="#404040" stroke-width="2" stroke-linecap="round" stroke-linejoin="round"/>
<path d="M35.987 42.5926C39.3438 42.5926 42.065 39.8621 42.065 36.4938C42.065 33.1256 39.3438 30.3951 35.987 30.3951C32.6303 30.3951 29.9091 33.1256 29.9091 36.4938C29.9091 39.8621 32.6303 42.5926 35.987 42.5926Z" fill="white" stroke="#404040" stroke-width="2" stroke-linecap="round" stroke-linejoin="round"/>
<path d="M37.6705 36.869L36.2679 38.8394C36.0809 39.1209 35.7069 39.1209 35.6134 38.8394L34.2108 36.869C34.1172 36.6814 34.1172 36.3999 34.2108 36.2122L35.6134 34.2419C35.8004 33.9604 36.1744 33.9604 36.2679 34.2419L37.6705 36.2122C37.8575 36.3999 37.8575 36.5876 37.6705 36.869Z" fill="white" stroke="#404040" stroke-width="2" stroke-linecap="round" stroke-linejoin="round"/>
<path d="M15.8828 21.4814H29.9088" stroke="#404040" stroke-width="2" stroke-linecap="round" stroke-linejoin="round"/>
<path d="M15.8828 28.9875H26.1685" stroke="#404040" stroke-width="2" stroke-linecap="round" stroke-linejoin="round"/>
</g>
<defs>
<clipPath id="clip0_2265_22865">
<rect width="36" height="38" fill="white" transform="translate(7 6)"/>
</clipPath>
</defs>
</svg>
