<svg width="50" height="50" viewBox="0 0 50 50" fill="none" xmlns="http://www.w3.org/2000/svg">
<path d="M31.6341 11.2591C35.2561 11.2591 38.2195 14.309 38.2195 18.0365C38.2195 21.7641 35.2561 24.814 31.6341 24.814C28.0122 24.814 25.0488 21.7641 25.0488 18.0365C25.0488 14.309 28.0122 11.2591 31.6341 11.2591ZM31.6341 9C26.8049 9 22.8536 13.0664 22.8536 18.0365C22.8536 23.0066 26.8049 27.0731 31.6341 27.0731C36.4634 27.0731 40.4146 23.0066 40.4146 18.0365C40.4146 13.0664 36.4634 9 31.6341 9Z" fill="#404040" />
<path d="M17.3658 41.8706C17.3658 33.7377 23.7317 27.1862 31.6341 27.1862C39.5365 27.1862 45.9024 33.7377 45.9024 41.8706" stroke="#404040" stroke-width="2" stroke-linecap="round" fill="white"/>
<path d="M7.37848 22.6678H17.5858" stroke="#404040" stroke-width="2" stroke-linecap="round"/>
<path d="M7.37848 31.7043H13.0858" stroke="#404040" stroke-width="2" stroke-linecap="round"/>
<path d="M19.5609 12.5015H4.96339C3.97558 12.5015 3.09753 13.5182 3.09753 14.7607V39.6112C3.09753 40.8537 3.97558 41.8703 4.96339 41.8703H11.878" stroke="#404040" stroke-width="2" stroke-linecap="round" fill="white"/>
<path opacity="0.2" d="M32.21 41.6341L35.3767 38.2244C36.2404 37.2945 36.2404 35.7446 35.3767 34.8147L34.801 34.1948C33.0737 32.3349 30.1948 32.3349 28.4675 34.1948L27.8917 34.8147C27.0281 35.7446 27.0281 37.2945 27.8917 38.2244L31.0585 41.6341C31.4903 41.9441 31.9221 41.9441 32.21 41.6341Z" />
</svg>
