<svg width="50" height="50" viewBox="0 0 50 50" fill="none" xmlns="http://www.w3.org/2000/svg">
<g clip-path="url(#clip0_2265_22894)">
<path d="M28.9045 43.0617H10.8093C9.19024 43.0617 7.95215 41.7481 7.95215 40.2469V12.0987C7.95215 10.5037 9.19024 9.28391 10.8093 9.28391H35.5712C37.1902 9.28391 38.4283 10.5037 38.4283 12.0987V26.9234" stroke="#404040" stroke-width="2" stroke-linecap="round" fill="white"/>
<path opacity="0.2" d="M11.762 40.247H17.4762C19.0953 40.247 20.3334 39.0272 20.3334 37.4322V36.4939C20.3334 33.3976 17.762 30.8643 14.6191 30.8643H13.6667C12.0477 30.8643 10.8096 32.084 10.8096 33.6791V39.3087C10.8096 39.8717 11.2858 40.247 11.762 40.247Z" />
<path d="M29.095 11.6296H17.2855C16.3331 11.6296 15.5712 10.879 15.5712 9.9407V8.62712C15.5712 7.68885 16.3331 6.93823 17.2855 6.93823H28.9997C29.9521 6.93823 30.714 7.68885 30.714 8.62712V9.84687C30.8093 10.879 30.0474 11.6296 29.095 11.6296Z" fill="white" stroke="#404040" stroke-width="2" stroke-linecap="round" stroke-linejoin="round"/>
<path d="M16.5234 26.6418V32.2715" stroke="#404040" stroke-width="2" stroke-linecap="round"/>
<path d="M23.1904 18.1975V32.2716" stroke="#404040" stroke-width="2" stroke-linecap="round"/>
<path d="M29.8564 23.8271V32.2716" stroke="#404040" stroke-width="2" stroke-linecap="round"/>
<path d="M36.3334 32.5531C38.4287 32.5531 40.143 34.2419 40.143 36.3061C40.143 38.3703 38.4287 40.0592 36.3334 40.0592C34.2382 40.0592 32.5239 38.3703 32.5239 36.3061C32.5239 34.2419 34.2382 32.5531 36.3334 32.5531ZM36.3334 30.6765C33.1906 30.6765 30.6191 33.2098 30.6191 36.3061C30.6191 39.4024 33.1906 41.9358 36.3334 41.9358C39.4763 41.9358 42.0477 39.4024 42.0477 36.3061C42.0477 33.2098 39.4763 30.6765 36.3334 30.6765Z"  fill="#404040"/>
<path d="M42.0477 41.3728L40.4286 39.8716" stroke="#404040" stroke-width="2" stroke-linecap="round"/>
</g>
<defs>
<clipPath id="clip0_2265_22894">
<rect width="36" height="38" fill="white" transform="translate(7 6)"/>
</clipPath>
</defs>
</svg>
