<svg width="50" height="50" viewBox="0 0 50 50" fill="none" xmlns="http://www.w3.org/2000/svg">
<g clip-path="url(#clip0_2265_22850)">
<path d="M21.9996 10.1V25.1C21.9996 26.4 22.7997 27.6 24.0996 28L38.5996 32.7C35.9996 38.3 30.1996 42 23.9996 42C23.5996 42 23.1996 42 22.6996 42C15.1996 41.3 8.89965 35.3 8.09965 27.8C7.59965 23.3 8.89965 19 11.7996 15.6C14.3996 12.6 17.9996 10.6 21.9996 10.1ZM22.9996 8C12.7996 8.6 4.99965 17.5 6.09965 28C6.99965 36.5 14.0996 43.2 22.5996 43.9C23.0996 43.9 23.5996 44 23.9996 44C31.6996 44 38.2996 39.2 40.7996 32.4C40.9996 31.9 40.6996 31.3 40.1996 31.1L24.6996 26.1C24.2997 26 23.9996 25.6 23.9996 25.1V9C23.9996 8.5 23.5996 8 22.9996 8Z" fill="#404040"/>
<path d="M28 8.1C35.9 9.1 42 15.9 42 24C42 25 41.9 25.9 41.7 26.8L28 22.4V8.1ZM27 6C26.5 6 26 6.5 26 7V23.1C26 23.5 26.3 23.9 26.7 24.1L42.2 29.1C42.3 29.1 42.4 29.1 42.5 29.1C42.9 29.1 43.3 28.8 43.5 28.4C43.8 27 44 25.5 44 24C44 14.4 36.5 6.5 27 6Z" fill="#404040"/>
<path opacity="0.2" d="M31.5 13.8C34.7 14.8 37.1 17.9 37.1 21.4C37.1 22.6 35.8 23.5 34.7 23.1L29.4 21.4C29.2 21.4 29 21.2 29 21V15.5C29 14.3 30.3 13.4 31.5 13.8Z" />
<path d="M15.7 33.5C12.5 31.3 10.9 27.3 11.7 23.4" stroke="#404040" stroke-width="2" stroke-linecap="round"/>
</g>
<defs>
<clipPath id="clip0_2265_22850">
<rect width="38" height="38" fill="white" transform="translate(6 6)"/>
</clipPath>
</defs>
</svg>
