<svg width="12" height="12" viewBox="0 0 12 12" fill="none" xmlns="http://www.w3.org/2000/svg">
<path d="M9.91547 9.175C10.0155 9.375 10.0155 9.675 9.91547 9.875C9.81547 10.075 9.41547 9.975 9.21547 9.875L6.01547 6.575L2.81547 9.875C2.61547 9.975 2.31547 9.975 2.11547 9.875C1.91547 9.775 2.01547 9.375 2.11547 9.175L5.41547 5.975L2.11547 2.775C2.01547 2.575 2.01547 2.275 2.11547 2.075C2.31547 1.975 2.61547 1.975 2.81547 2.075L6.01547 5.375L9.21547 2.175C9.41547 1.975 9.71547 1.975 9.91547 2.075C10.0155 2.275 10.0155 2.575 9.91547 2.775L6.61547 5.975L9.91547 9.175Z" fill="white"/>
</svg>
