<svg width="24" height="24" viewBox="0 0 24 24" fill="none" xmlns="http://www.w3.org/2000/svg">
<path d="M24 0H0V24H24V0Z" fill="white" fill-opacity="0.01"/>
<path fill-rule="evenodd" clip-rule="evenodd" d="M1.25 4C1.25 3.0335 2.0335 2.25 3 2.25H21C21.9665 2.25 22.75 3.0335 22.75 4V17C22.75 17.9665 21.9665 18.75 21 18.75H11.7361C11.6973 18.75 11.659 18.759 11.6243 18.7764L6.83541 21.1708C6.60292 21.2871 6.32681 21.2746 6.1057 21.138C5.88459 21.0013 5.75 20.7599 5.75 20.5V18.75H3C2.0335 18.75 1.25 17.9665 1.25 17V4ZM3 3.75C2.86193 3.75 2.75 3.86193 2.75 4V17C2.75 17.1381 2.86193 17.25 3 17.25H6.5C6.91421 17.25 7.25 17.5858 7.25 18V19.2865L10.9534 17.4348C11.1964 17.3133 11.4644 17.25 11.7361 17.25H21C21.1381 17.25 21.25 17.1381 21.25 17V4C21.25 3.86193 21.1381 3.75 21 3.75H3Z" fill="#4A4A4A"/>
<path fill-rule="evenodd" clip-rule="evenodd" d="M8 9C8.41421 9 8.75 9.33579 8.75 9.75V11.25C8.75 11.6642 8.41421 12 8 12C7.58579 12 7.25 11.6642 7.25 11.25V9.75C7.25 9.33579 7.58579 9 8 9Z" fill="#4A4A4A"/>
<path fill-rule="evenodd" clip-rule="evenodd" d="M12 9C12.4142 9 12.75 9.33579 12.75 9.75V11.25C12.75 11.6642 12.4142 12 12 12C11.5858 12 11.25 11.6642 11.25 11.25V9.75C11.25 9.33579 11.5858 9 12 9Z" fill="#4A4A4A"/>
<path fill-rule="evenodd" clip-rule="evenodd" d="M16 9C16.4142 9 16.75 9.33579 16.75 9.75V11.25C16.75 11.6642 16.4142 12 16 12C15.5858 12 15.25 11.6642 15.25 11.25V9.75C15.25 9.33579 15.5858 9 16 9Z" fill="#4A4A4A"/>
</svg>
