<svg width="40" height="82" viewBox="0 0 40 82" fill="none" xmlns="http://www.w3.org/2000/svg">
<mask id="mask0_4342_39366" style="mask-type:alpha" maskUnits="userSpaceOnUse" x="0" y="0" width="40" height="82">
<rect width="40" height="82" fill="#C4C4C4"/>
</mask>
<g mask="url(#mask0_4342_39366)">
<path fill-rule="evenodd" clip-rule="evenodd" d="M13.1623 27.1086C12.8295 27.364 12.5479 27.6449 12.5479 27.6449C12.1127 28.0534 11.8311 28.462 11.6262 28.7684H17.5216C14.9263 28.7688 12.3305 28.7688 9.73363 28.7688H9.73216L9.72887 28.7688L9.73173 28.7684C9.78294 28.6407 9.85974 28.4365 9.93654 28.2322C10.3462 27.2874 10.807 26.649 10.9606 26.4958C11.191 26.1894 11.7031 25.5765 12.4455 25.0403C13.8294 23.999 15.2824 23.7615 16.2149 23.609L16.3625 23.5848C18.9739 23.2017 21.3805 23.738 23.531 25.2956C24.7517 26.158 25.4419 27.348 25.6518 28.7654L23.5555 28.7666C23.2736 28.3069 22.7619 27.593 21.9437 26.9809C20.4844 25.8829 18.9483 25.7553 18.2059 25.7042C18.1035 25.7042 18.0074 25.6978 17.9114 25.6914L17.9114 25.6914C17.8154 25.685 17.7194 25.6787 17.617 25.6787C15.9017 25.6787 14.3656 26.1894 13.1623 27.1086ZM9.46292 28.794L9.48973 28.792C9.4569 28.7966 9.42251 28.8017 9.38678 28.8069L9.29693 28.8199H9.19452C7.35121 29.1008 5.73831 30.352 5.04707 32.1139L2.53811 38.5999C1.69326 40.7449 1.84687 42.9409 2.97334 44.6517C3.9974 46.2349 5.73831 47.2308 7.81204 47.4351V47.9203V48.0479V56.6278V56.7299V69.1401C7.81204 70.7232 9.09212 72 10.6794 72H15.0317H16.3374H48.3393C49.9266 72 51.2067 70.7232 51.2067 69.1401V50.7547V50.7036V47.4351C53.2805 47.2053 55.0214 46.2349 56.0454 44.6517C57.1463 42.9409 57.2999 40.7449 56.4807 38.5999L53.9461 32.0884C53.2293 30.2499 51.642 29.0242 49.7986 28.7688H49.7982V28.7429C49.8723 27.5357 49.6128 26.59 49.4565 26.0204L49.4398 25.9595C49.2862 25.3722 48.9534 24.1721 48.0573 22.8953C47.6221 22.2569 46.342 20.4439 43.9099 19.4991C43.4234 19.2948 42.2714 18.9118 40.8121 18.9118C40.5048 18.8863 40.172 18.9118 39.8136 18.9629C35.7686 19.4736 32.4915 22.9719 31.6723 26.6235C31.4686 27.487 31.4422 28.2495 31.4671 28.7602C30.1449 28.7618 28.8228 28.7631 27.5007 28.7641C27.5238 28.2537 27.4953 27.5004 27.2944 26.649C26.4752 23.023 23.1982 19.4991 19.1531 18.9884C18.7947 18.9373 18.4619 18.9373 18.1547 18.9373C16.721 18.8863 15.5689 19.2693 15.0825 19.4736C12.6247 20.4184 11.3702 22.2314 10.935 22.8698C10.0902 24.121 9.73173 25.2956 9.55252 25.934C9.39891 26.4958 9.1429 27.4661 9.1941 28.7173V28.8195C9.2837 28.8067 9.37331 28.8003 9.46292 28.794ZM49.2045 28.6152C49.22 28.6592 49.2341 28.6995 49.248 28.7361C49.1988 28.7323 49.1516 28.7266 49.1074 28.7177C48.517 28.72 47.9267 28.7222 47.3364 28.7243C47.132 28.4234 46.8347 28.0341 46.4444 27.6449C46.4444 27.6449 46.1628 27.364 45.83 27.1342C44.6267 26.2149 43.0906 25.7042 41.3753 25.7042C41.1705 25.6786 40.9657 25.6786 40.7865 25.7042C40.044 25.7553 38.5079 25.8829 37.0486 26.9809C36.2371 27.588 35.7271 28.2702 35.4438 28.7546L33.3125 28.7578C33.3902 28.2718 33.5707 27.4857 34.1044 26.6745C34.5653 25.9851 35.0517 25.5765 35.4613 25.2956C37.6119 23.7635 40.0184 23.2017 42.6298 23.5848C43.5514 23.7124 45.0619 23.9423 46.5468 25.0403C47.2893 25.602 47.8013 26.1894 48.0317 26.4958L48.0689 26.5471C48.2367 26.7779 48.6788 27.3861 49.0558 28.2322C49.1223 28.3814 49.1672 28.509 49.2045 28.6152ZM23.8382 11.4555C23.8382 11.4555 20.6124 13.1919 19.2299 15.9242C19.1275 16.1029 19.0763 16.2817 19.0763 16.2817C19.0695 16.3022 19.0626 16.3209 19.0562 16.3382C19.0388 16.3856 19.0251 16.423 19.0251 16.4604C19.1019 16.4604 19.1723 16.4668 19.2427 16.4732C19.3131 16.4796 19.3835 16.486 19.4603 16.486C20.3564 16.5626 23.1982 16.9201 25.5791 19.1927C27.8577 21.3632 28.4209 23.9933 28.6001 25.0658C28.6257 25.219 28.7537 26.1128 28.7793 27.3129C28.7974 27.7268 28.79 28.1026 28.784 28.4046L28.784 28.4048C28.7815 28.5313 28.7793 28.6449 28.7793 28.7429H30.2386C30.2386 28.6449 30.2364 28.5336 30.2339 28.4095L30.2339 28.4094V28.4093C30.228 28.1132 30.2206 27.7447 30.2386 27.3129C30.2898 26.1128 30.3922 25.219 30.4178 25.0658C30.597 23.9933 31.1603 21.3632 33.4388 19.1927C35.8454 16.9201 38.6615 16.5626 39.5576 16.486C39.6344 16.486 39.7048 16.4796 39.7752 16.4732C39.8456 16.4668 39.916 16.4604 39.9928 16.4604C39.9928 16.423 39.9791 16.3856 39.9617 16.3382C39.9553 16.3209 39.9485 16.3022 39.9416 16.2817L39.788 15.9242C38.4055 13.1664 35.1797 11.4555 35.1797 11.4555C32.594 10.0766 30.213 10 29.5218 10L29.4668 10.0019C28.6884 10.0288 26.3364 10.11 23.8382 11.4555ZM51.1811 45.5455C50.8995 45.5965 50.5923 45.5965 50.2851 45.5965H50.285C50.1058 45.5965 49.9266 45.5965 49.7474 45.571C47.9809 45.4433 46.2912 44.7028 44.9343 43.6303C44.3967 43.1962 43.9103 42.7111 43.5006 42.1748C42.8094 41.3066 42.3486 40.3107 42.1438 39.3149C42.3486 40.3363 42.2462 41.3066 41.9133 42.1748C41.7085 42.7111 41.4269 43.1962 41.0429 43.6303C40.0188 44.8305 38.4059 45.5965 36.4602 45.5965H36.2042C35.5898 45.571 34.9753 45.4689 34.4121 45.3157C34.0025 45.188 33.5928 45.0348 33.2088 44.856C32.5688 44.5496 31.9799 44.141 31.4935 43.6814L31.4679 43.6559C31.0071 43.2218 30.6231 42.7366 30.2902 42.2004C30.2774 42.1748 30.2646 42.1557 30.2518 42.1365C30.239 42.1174 30.2262 42.0982 30.2134 42.0727C29.727 41.23 29.471 40.3107 29.471 39.3404C29.471 40.2597 29.2406 41.1279 28.8309 41.945C28.8053 41.9961 28.7797 42.0408 28.7541 42.0854C28.7285 42.1301 28.7029 42.1748 28.6773 42.2259C28.3701 42.7366 27.9861 43.2218 27.5509 43.6559V43.6814H27.5253C27.0388 44.1666 26.45 44.5751 25.81 44.8816C25.4259 45.0603 25.0163 45.2391 24.6067 45.3667C24.0434 45.5455 23.429 45.6221 22.8146 45.6476H22.5586C20.6128 45.6476 18.9999 44.8816 17.9759 43.6814C17.6174 43.2473 17.3102 42.7621 17.1054 42.2259C16.7755 41.3653 16.672 40.3793 16.8697 39.3921C16.6619 40.4039 16.1781 41.3651 15.5181 42.2259C15.1085 42.7621 14.6221 43.2473 14.0844 43.6814C12.7275 44.7794 11.0378 45.4944 9.27133 45.6221C9.09212 45.6476 8.91291 45.6476 8.7337 45.6476C8.42648 45.6476 8.11926 45.6221 7.83764 45.5965C4.61184 45.1624 3.07574 42.4302 4.27902 39.3659L6.81358 32.8545C7.32561 31.5522 8.63129 30.684 9.98817 30.684H10.7818H14.1868H18.6927H19.9216H24.3251H25.7588H27.5253H28.7541H29.5222H30.1878H31.4167H33.1832H34.6169H39.0204H40.4285H44.8319H48.2369H49.1074C50.4643 30.684 51.6932 31.5522 52.2052 32.8545L54.7397 39.3659C55.943 42.3791 54.4069 45.1114 51.1811 45.5455ZM49.7474 50.7291V69.1656C49.7474 69.9572 49.1074 70.5956 48.3137 70.5956H16.4654L16.491 54.4062C16.491 52.1846 18.7695 50.3972 21.5601 50.3972C24.3507 50.3972 26.6292 52.1846 26.6292 54.4062V66.2801C26.6292 66.6887 26.962 66.9951 27.3461 66.9951C27.7557 66.9951 28.0629 66.6631 28.0629 66.2801V54.4062C28.0629 51.3931 25.1443 48.9417 21.5601 48.9417C17.9759 48.9417 15.0573 51.3931 15.0573 54.4062L15.0317 70.5956H15.0061H10.6538C9.86016 70.5956 9.22013 69.9572 9.22013 69.1656V56.6533V48.0735V47.5117C11.2683 47.384 13.3164 46.5924 15.0317 45.2646C15.4157 44.9582 15.7741 44.6517 16.0814 44.3198C16.1582 44.4475 16.2606 44.5751 16.363 44.7028C17.7711 46.5158 20.024 47.5372 22.5073 47.5372H22.7634C23.3778 47.5117 23.9666 47.4351 24.5555 47.3074C24.9651 47.2053 25.3747 47.0776 25.7844 46.9244C26.3988 46.6946 26.962 46.3881 27.5253 46.0306C27.9093 45.7753 28.2933 45.4944 28.6261 45.1624L28.7797 45.0092C29.0102 44.7794 29.2406 44.5496 29.4454 44.2943C29.6758 44.5751 29.9062 44.8305 30.1878 45.0603C30.5718 45.4178 31.0071 45.7498 31.4679 46.0562C32.0055 46.4137 32.5944 46.6946 33.2088 46.9244C33.5928 47.0776 34.0025 47.2053 34.4377 47.3074C35.0009 47.4351 35.6154 47.5117 36.2298 47.5372H36.4858C38.9692 47.5372 41.2221 46.5158 42.6302 44.7028C42.6814 44.639 42.7262 44.5751 42.771 44.5113C42.8158 44.4475 42.8606 44.3836 42.9118 44.3198C43.2446 44.6517 43.6031 44.9582 43.9615 45.2646C45.6768 46.618 47.7249 47.4095 49.773 47.5117V50.7291H49.7474ZM42.5291 53.2824C42.5291 52.8993 42.8364 52.5674 43.246 52.5674C43.63 52.5674 43.9628 52.8993 43.9628 53.3079L43.9372 61.1217C43.9372 64.1093 41.0187 66.5607 37.4344 66.5607C33.8502 66.5607 30.9316 64.1093 30.9316 61.0962V53.2824C30.9316 52.8993 31.2389 52.5674 31.6485 52.5674C32.0325 52.5674 32.3653 52.8738 32.3653 53.2824V61.0962C32.3653 63.3177 34.6439 65.1052 37.4344 65.1052C40.225 65.1052 42.5035 63.3177 42.5035 61.0962L42.5291 53.2824Z" fill-opacity="0.1"/>
</g>
</svg>
