<svg width="61" height="70" viewBox="0 0 61 70" fill="none" xmlns="http://www.w3.org/2000/svg">
<g clip-path="url(#clip0_7922_41960)">
<path fill-rule="evenodd" clip-rule="evenodd" d="M31.2851 20.7969C31.2872 20.9257 31.2892 21.0421 31.2895 21.1445L32.65 21.1438C32.6515 20.5297 32.7015 19.6788 32.8929 18.7324L32.8948 18.7233C33.0901 17.8068 33.5298 15.7435 35.1278 13.7782C37.1442 11.3134 39.6949 10.5493 40.3023 10.3768C43.4361 9.51408 45.9626 10.4753 46.4727 10.6725C49.2099 11.7539 50.5945 13.791 51.0842 14.5114L51.0884 14.5176C52.0219 15.9147 52.3949 17.198 52.5951 17.8868L52.6189 17.9683L52.623 17.9839C52.7936 18.6267 53.0799 19.7052 53.0076 21.1232V21.1756C55.038 21.4302 56.8004 22.8322 57.5747 24.8944L60.3927 32.2395C61.3158 34.655 61.1458 37.1444 59.9311 39.067C58.7893 40.8662 56.8702 41.9754 54.5623 42.2219V45.9191V45.9684V66.7219C54.5623 68.4965 53.129 69.9508 51.3799 69.9508H15.8634H14.4058H9.59578C7.84668 69.9508 6.41338 68.4965 6.41338 66.7219V52.7219V52.5986V42.912V42.7888V42.2465C4.10554 42 2.18638 40.8662 1.04461 39.0916C-0.170048 37.1691 -0.3401 34.6796 0.583038 32.2641L3.40104 24.9191C4.17533 22.9305 5.93775 21.5044 7.96814 21.2008V21.1232C7.89585 19.7052 8.18209 18.6267 8.35268 17.9839L8.35683 17.9683L8.3964 17.8382C8.61966 17.1017 8.99477 15.8643 9.88729 14.5176C10.3732 13.7782 11.7822 11.7324 14.503 10.6725L14.5358 10.6607C15.0032 10.4926 16.7471 9.86519 19.0458 10.1056C19.9203 10.2042 22.5926 10.5986 24.9247 12.7922C27.2569 15.0106 27.8399 17.6479 28.0585 18.7324C28.2739 19.7277 28.3007 20.5557 28.3015 21.1457L29.7365 21.1451C29.759 20.7751 29.7585 20.2197 29.7348 19.5704C29.6872 18.2435 29.5465 17.2471 29.5178 17.0438L29.5161 17.0317C29.3218 15.8239 28.6902 12.8415 26.1637 10.4014C23.4914 7.81337 20.3576 7.41901 19.3616 7.34506C19.2766 7.33274 19.1976 7.32658 19.1187 7.32042L19.1187 7.32041C19.0397 7.31425 18.9608 7.30809 18.8757 7.29577C18.9 7.24647 18.9243 7.17253 18.9486 7.09858C18.9486 7.09858 19.0215 6.87675 19.1187 6.67957C20.6491 3.57393 24.2202 1.62675 24.2202 1.62675C27.0677 0.084261 29.6995 0.00103871 30.4964 -0.0241594L30.5121 -0.0246582L30.5279 -0.0241594C31.3248 0.00103872 33.9565 0.0842612 36.8041 1.62675C36.8041 1.62675 40.3751 3.57393 41.9056 6.67957C42.0028 6.9014 42.0757 7.09858 42.0757 7.09858C42.1055 7.14399 42.117 7.18939 42.1271 7.22909C42.1334 7.25404 42.1392 7.27674 42.1485 7.29577C42.0635 7.30809 41.9846 7.31425 41.9056 7.32041C41.8267 7.32658 41.7477 7.33274 41.6627 7.34506C40.6667 7.44365 37.5086 7.83802 34.8606 10.4014C32.3098 12.8662 31.7025 15.8239 31.5082 17.0317C31.4596 17.2042 31.3381 18.2394 31.2895 19.5704C31.2724 20.0398 31.2794 20.4601 31.2851 20.7967V20.7968L31.2851 20.7969ZM37.0509 21.1411L34.7432 21.1426C34.8192 20.5972 35.0174 19.7017 35.6137 18.8063C36.1239 18.0176 36.6583 17.5739 37.1199 17.2289C39.5006 15.5035 42.1728 14.8873 45.0637 15.3063C46.084 15.4542 47.7845 15.7007 49.3879 16.9331C50.2139 17.5493 50.7726 18.2394 51.0398 18.5845L51.0472 18.5945C51.203 18.8051 51.7271 19.5137 52.1573 20.5563C52.1917 20.6436 52.2261 20.7279 52.2584 20.8068C52.311 20.9354 52.3578 21.05 52.3896 21.1411C52.3342 21.1374 52.2807 21.1318 52.2302 21.1233L50.2816 21.1264C50.0623 20.7864 49.731 20.3386 49.2664 19.8908C49.2664 19.8908 48.9506 19.5704 48.5862 19.2993C47.1043 18.1408 45.1852 17.5739 42.9988 17.6972C42.1728 17.7465 40.4723 17.8944 38.8447 19.1268C37.9254 19.814 37.3675 20.5991 37.0509 21.1411ZM23.8801 17.2289C25.2331 18.2094 25.9854 19.5556 26.2325 21.1463L23.8894 21.1469C23.571 20.6056 23.0154 19.8307 22.1067 19.1514C20.4791 17.919 18.7786 17.7711 17.9526 17.7218C15.7662 17.5739 13.8471 18.1655 12.3652 19.3239C12.0008 19.5951 11.685 19.9155 11.685 19.9155C11.2343 20.3727 10.8994 20.8065 10.6804 21.1479L8.58355 21.1479C8.63206 21.0006 8.70349 20.7895 8.8184 20.5563C9.27997 19.4965 9.79012 18.7817 9.93588 18.5845C10.2031 18.2394 10.7618 17.5493 11.5878 16.9331C13.2155 15.7007 14.916 15.4542 15.9363 15.3063C18.8272 14.8627 21.4994 15.4789 23.8801 17.2289ZM52.959 45.9437V66.7712C52.959 67.6585 52.2545 68.3733 51.3799 68.3733H16.0577L16.082 50.0846C16.082 47.5951 18.6085 45.5493 21.6938 45.5493C24.779 45.5493 27.3055 47.5705 27.3055 50.0846V63.4684C27.3055 63.912 27.6699 64.2817 28.1071 64.2817C28.5444 64.2817 28.9088 63.912 28.9088 63.4684V50.0846C28.9088 46.6832 25.6778 43.9226 21.6938 43.9226C17.7097 43.9226 14.4787 46.6832 14.4787 50.0846L14.4544 68.3733H14.4301H9.62007C8.74552 68.3733 8.04102 67.6585 8.04102 66.7712V52.6479V42.9613V42.3205C10.3003 42.1972 12.5838 41.2853 14.4787 39.7817C14.8917 39.4367 15.2804 39.0916 15.6448 38.7219L15.6448 38.7219C15.742 38.8698 15.8391 39.0177 15.9606 39.1409C17.5396 41.162 20.0175 42.3451 22.7626 42.3451H23.0542C23.7344 42.3205 24.3903 42.2465 25.0219 42.0986C25.4835 42.0001 25.945 41.8522 26.3823 41.6796C27.0625 41.4085 27.6941 41.0634 28.3015 40.6691C28.7388 40.3733 29.1517 40.0529 29.5404 39.6832C29.5769 39.6585 29.6072 39.6277 29.6376 39.5969C29.668 39.5661 29.6983 39.5353 29.7348 39.5106C30.002 39.2641 30.2449 38.993 30.4636 38.6972C30.7065 38.993 30.998 39.2888 31.2652 39.5599L31.2652 39.5599C31.7025 39.9789 32.1641 40.3486 32.6742 40.6937C33.2816 41.0881 33.9132 41.4332 34.5934 41.6796C35.0307 41.8522 35.4922 42.0001 35.9538 42.0986C36.5854 42.2465 37.2413 42.3205 37.9215 42.3451H38.2131C40.9825 42.3451 43.4604 41.1867 45.0151 39.1409C45.0965 39.0171 45.1949 38.8932 45.2818 38.7839L45.2819 38.7837L45.3309 38.7219C45.6953 39.0916 46.084 39.4613 46.497 39.7817C48.4162 41.3099 50.6754 42.1972 52.9347 42.3205V45.9437H52.959ZM54.5623 40.1022C54.2465 40.1515 53.9064 40.1761 53.5663 40.1761C53.372 40.1761 53.1533 40.1761 52.959 40.1515C51.0155 40.0036 49.1207 39.1902 47.6388 37.9578C47.0315 37.4648 46.497 36.9226 46.0597 36.331C45.3067 35.3451 44.7722 34.236 44.5536 33.1022C44.7722 34.2606 44.6507 35.3451 44.2863 36.331C44.0677 36.9226 43.7276 37.4648 43.3146 37.9578C42.1728 39.3134 40.3994 40.1761 38.2374 40.1761H37.9458C37.2656 40.1515 36.5854 40.0529 35.9538 39.8557C35.4922 39.7078 35.0307 39.5353 34.6177 39.3381C33.9132 38.993 33.2573 38.5247 32.6985 38.0071C32.6864 38.0071 32.6803 38.0009 32.6742 37.9948C32.6682 37.9886 32.6621 37.9824 32.6499 37.9824C32.1398 37.4895 31.7025 36.9472 31.3381 36.3557L31.2652 36.2078C30.7308 35.2712 30.4393 34.2113 30.4393 33.1268C30.4393 34.162 30.172 35.1479 29.7105 36.0599C29.6619 36.1585 29.6133 36.2571 29.5404 36.3557C29.2003 36.9472 28.7873 37.4895 28.2772 37.9578V37.9824H28.2529C27.6941 38.5247 27.0625 38.9684 26.358 39.3381C25.945 39.5599 25.4835 39.7324 25.0219 39.8803C24.3903 40.0775 23.7101 40.1761 23.0299 40.2008H22.7384C20.5763 40.2008 18.7786 39.3381 17.6611 37.9824C17.2481 37.4895 16.9323 36.9472 16.6894 36.3557C16.3036 35.3771 16.205 34.2771 16.4173 33.1521C16.1957 34.301 15.6636 35.3769 14.916 36.3557C14.4544 36.9472 13.92 37.4895 13.3369 37.9824C11.8307 39.2148 9.96018 40.0282 7.99244 40.1761C7.79809 40.2008 7.57945 40.2008 7.38511 40.2008C7.045 40.2008 6.7049 40.1761 6.38909 40.1268C2.818 39.6339 1.11749 36.5529 2.42931 33.1022L5.24732 25.7571C5.80606 24.2782 7.26364 23.317 8.76982 23.317H9.64437H13.4098H18.3899H19.8475H24.779H26.358H28.3258H29.6862H30.5364H31.2895H32.6499H34.6177H36.1967H41.0797H42.6344H47.5173H51.2828H52.2545C53.7607 23.317 55.1211 24.2782 55.6798 25.7571L58.4978 33.1022C59.8339 36.5036 58.1334 39.6092 54.5623 40.1022ZM44.9423 48.8521C44.9423 48.4084 45.3067 48.0387 45.7439 48.0387C46.1812 48.0387 46.5456 48.4084 46.5456 48.8521L46.5213 57.6514C46.5213 61.0528 43.2903 63.8133 39.3063 63.8133C35.3222 63.8133 32.0912 61.0528 32.0912 57.6514V48.8521C32.0912 48.4084 32.4556 48.0387 32.8929 48.0387C33.3302 48.0387 33.6945 48.4084 33.6945 48.8521V57.6514C33.6945 60.1654 36.221 62.1866 39.3063 62.1866C42.3915 62.1866 44.918 60.1408 44.918 57.6514L44.9423 48.8521Z" />
</g>
<defs>
<clipPath id="clip0_7922_41960">
<rect width="61" height="70" fill="white"/>
</clipPath>
</defs>
</svg>
