<svg width="248" height="216" viewBox="0 0 248 216" fill="none" xmlns="http://www.w3.org/2000/svg">
<g opacity="0.05">
<mask id="mask0_1615_34007" style="mask-type:alpha" maskUnits="userSpaceOnUse" x="0" y="0" width="248" height="216">
<path d="M0 8C0 3.58172 3.58172 0 8 0H240C244.418 0 248 3.58172 248 8V216H0V8Z" fill="url(#paint0_linear_1615_34007)"/>
</mask>
<g mask="url(#mask0_1615_34007)">
<path fill-rule="evenodd" clip-rule="evenodd" d="M200.869 87.9235C207.567 94.2835 212.552 101.903 216.284 110.408C206.605 55.4933 158.595 7.20554 92.3428 6.01949C30.7745 4.91619 -24.4942 50.7859 -34.7057 111.578C-34.2836 110.692 -33.9148 109.903 -33.5762 109.179L-33.5758 109.179L-33.5752 109.177L-33.5748 109.176C-32.9644 107.871 -32.4523 106.776 -31.9043 105.7C-10.4782 63.7865 37.2615 64.5634 61.0776 90.7714C72.2854 103.101 77.3808 118.179 77.5819 134.667C77.8186 154.127 77.7682 173.587 77.7178 193.046V193.047V193.048V193.048V193.049C77.6967 201.202 77.6756 209.354 77.6756 217.506C77.6756 221.081 77.6786 224.655 77.6816 228.228V228.229V228.23V228.23V228.231C77.6903 238.592 77.699 248.951 77.6345 259.314C77.6185 261.794 78.1714 262.994 80.918 263.309C84.631 263.732 85.4353 262.282 85.4262 258.827C85.3813 236.732 85.3764 214.637 85.3715 192.542C85.3667 170.767 85.3619 148.992 85.3188 127.217C85.3051 122.199 84.8892 117.154 84.1854 112.189C80.2439 84.3653 60.1065 63.3406 32.655 58.247C30.6461 57.8736 28.6099 57.6519 26.5395 57.4264L26.5393 57.4264C25.5507 57.3187 24.5544 57.2102 23.5494 57.0839C34.0351 35.257 61.2467 14.6505 93.1882 15.855C120.5 16.8824 154.14 38.491 158.17 57.0931C157.158 57.2277 156.144 57.3455 155.131 57.4631C152.857 57.7272 150.588 57.9907 148.354 58.4424C145.1 59.0951 141.837 59.8996 138.721 61.0351C112.85 70.4545 96.8213 94.5433 96.7619 124.346C96.6926 158.395 96.7139 192.441 96.7353 226.488C96.7421 237.344 96.7489 248.199 96.7527 259.055C96.7527 260.004 96.8237 260.953 96.893 261.88C96.9232 262.285 96.9531 262.685 96.9767 263.079C104.236 263.491 104.238 263.491 104.238 256.733C104.238 246.429 104.24 236.125 104.243 225.821C104.249 196.383 104.255 166.945 104.211 137.505C104.199 128.359 105.815 119.547 108.909 111.003C123.162 71.6567 171.092 59.6123 200.869 87.9235ZM186.273 247.195H185.071V239.998C185.672 239.911 186.273 239.869 187.006 239.869C189.035 239.869 189.981 240.906 189.981 242.119C189.981 243.076 189.465 243.942 188.649 244.289L190.5 247.195H189.079L187.484 244.549C187.267 244.59 187.006 244.59 186.922 244.59C186.791 244.59 186.574 244.59 186.273 244.549V247.195ZM187.136 240.949C186.835 240.949 186.49 240.949 186.273 240.993V243.554C186.574 243.6 186.835 243.6 187.05 243.6C188.13 243.6 188.736 243.076 188.736 242.165C188.736 241.428 188.13 240.949 187.136 240.949ZM181.271 243.641C181.271 247.066 183.992 250.02 187.354 250.02C190.758 250.02 193.479 247.066 193.479 243.641C193.479 240.085 190.758 237.217 187.354 237.217C183.992 237.217 181.271 240.085 181.271 243.641ZM194.638 243.641C194.638 247.673 191.405 251.054 187.354 251.054C183.343 251.054 180.112 247.719 180.112 243.641C180.112 239.478 183.3 236.139 187.354 236.139C191.405 236.139 194.638 239.52 194.638 243.641ZM134.734 255.621C134.686 255.178 134.632 254.783 134.582 254.419C134.49 253.747 134.412 253.179 134.412 252.608C134.42 246.121 134.413 239.634 134.406 233.146V233.146V233.146V233.146C134.387 216.153 134.368 199.16 134.613 182.171C134.773 170.667 137.856 159.855 146.552 151.679C157.723 141.181 171.042 140.099 184.546 145.388C197.957 150.647 204.773 161.707 205.73 175.984C206.731 190.867 200.345 203.267 191.42 214.546C177.237 232.475 159.554 245.74 138.493 254.451C137.73 254.769 136.933 254.992 136.072 255.233L136.072 255.234L136.071 255.234C135.642 255.354 135.198 255.478 134.734 255.621ZM39.4616 252.627C41.9997 253.887 44.5883 255.172 47.2225 256.54C47.2863 255.656 47.3481 254.931 47.4012 254.307C47.4964 253.189 47.5638 252.397 47.5653 251.605C47.5686 246.277 47.5776 240.95 47.5865 235.622V235.621V235.62V235.619V235.618C47.6149 218.764 47.6432 201.908 47.4922 185.053C47.4442 179.948 46.8135 174.723 45.5934 169.77C41.076 151.384 27.6656 141.803 8.42618 142.769C-7.88616 143.578 -20.8099 155.771 -23.481 173.091C-25.1925 184.182 -22.1078 194.408 -16.6284 203.804C-6.6957 220.829 7.238 234.046 23.8634 244.291C28.7997 247.334 34.0145 249.923 39.4616 252.627ZM66.224 260.578C59.849 260.914 58.9693 260.155 58.9693 254.416C58.967 222.675 58.967 190.937 58.967 159.196C58.967 140.263 49.5781 125.316 33.7433 119.027C15.2442 111.685 -5.18789 115.77 -17.8443 129.143C-27.3406 139.176 -30.6378 151.471 -31.305 164.823C-31.3713 166.101 -31.4672 167.374 -32.3378 168.809C-32.5526 167.786 -32.7877 166.765 -33.0228 165.744C-33.5233 163.571 -34.0241 161.396 -34.3303 159.196C-36.1217 146.294 -34.4788 134.018 -27.4594 122.762C-22.5993 114.972 -16.1009 109.109 -7.45914 105.978C11.0902 99.257 29.3265 99.88 46.8201 109.378C59.6753 116.358 66.2606 127.741 66.368 142.231C66.5778 170.441 66.5364 198.655 66.495 226.869V226.872C66.4796 237.367 66.4641 247.862 66.4617 258.358C66.4617 258.876 66.3873 259.395 66.3142 259.904C66.2816 260.131 66.2494 260.356 66.224 260.578ZM115.401 255.95V260.747C122.809 260.494 122.983 260.322 122.983 253.792C122.984 244.071 122.978 234.35 122.972 224.629C122.959 202.617 122.946 180.602 123.017 158.588C123.063 144.054 128.144 131.514 140.389 123.342C163.934 107.643 201.297 114.518 210.819 149.038C212.055 153.506 212.663 158.15 213.27 162.794C213.549 164.922 213.827 167.05 214.166 169.161C215.396 163.909 216.543 158.515 216.888 153.074C218.27 130.932 206.79 112.148 187.711 105.301C176.622 101.322 165.136 100.426 153.606 102.763C130.95 107.347 114.871 119.782 115.28 148.753C115.633 173.702 115.552 198.659 115.471 223.616C115.436 234.394 115.401 245.172 115.401 255.95Z" fill="#7340B3"/>
</g>
</g>
<defs>
<linearGradient id="paint0_linear_1615_34007" x1="124" y1="0" x2="124" y2="216" gradientUnits="userSpaceOnUse">
<stop offset="0.511008" stop-color="#FF5E00"/>
<stop offset="1" stop-color="#FF5E00" stop-opacity="0"/>
</linearGradient>
</defs>
</svg>
