<svg width="50" height="50" viewBox="0 0 50 50" fill="none" xmlns="http://www.w3.org/2000/svg">
<path d="M50 0H0V50H50V0Z" fill="white" fill-opacity="0.01"/>
<path d="M18.75 6.25C18.75 9.70178 21.5482 12.5 25 12.5C28.4518 12.5 31.25 9.70178 31.25 6.25H36.9318L43.75 16.4773L37.7841 21.5909V41.75C37.7841 42.8546 36.8887 43.75 35.7841 43.75H14.2159C13.1113 43.75 12.2159 42.8546 12.2159 41.75V21.5909L6.25 16.4773L13.0682 6.25H18.75Z" stroke="#404040" fill="white" stroke-width="2" stroke-linejoin="round"/>
<path opacity="0.2" d="M25.7071 35.435L29.9497 31.1924C31.1518 29.9903 31.1518 28.1518 29.9497 26.9497L29.2426 26.2426C26.9092 23.9092 23.0908 23.9092 20.7574 26.2426L20.0503 26.9497C18.8482 28.1518 18.8482 29.9903 20.0503 31.1924L24.2929 35.435C24.7172 35.8593 25.2828 35.8593 25.7071 35.435Z"/>
</svg>
