<svg width="50" height="50" viewBox="0 0 50 50" fill="none" xmlns="http://www.w3.org/2000/svg">
<path opacity="0.2" d="M38 41V35C38 33.3 36.7 32 35 32H34C30.7 32 28 34.7 28 38V39C28 40.7 29.3 42 31 42H37C37.6 42 38 41.6 38 41Z" />
<path d="M39 8C39.6 8 40 8.4 40 9V43C40 43.6 39.6 44 39 44H11C10.4 44 10 43.6 10 43V9C10 8.4 10.4 8 11 8H39ZM39 6H11C9.3 6 8 7.3 8 9V43C8 44.7 9.3 46 11 46H39C40.7 46 42 44.7 42 43V9C42 7.3 40.7 6 39 6Z" fill="#404040"/>
<path d="M25 11.6001C25.6 11.6001 26 12.0001 26 12.6001C26 13.2001 25.6 13.6001 25 13.6001C24.4 13.6001 24 13.2001 24 12.6001C24 12.0001 24.4 11.6001 25 11.6001ZM25 9.6001C23.3 9.6001 22 10.9001 22 12.6001C22 14.3001 23.3 15.6001 25 15.6001C26.7 15.6001 28 14.3001 28 12.6001C28 10.9001 26.7 9.6001 25 9.6001Z" fill="#404040"/>
<path d="M9 18.2002H41" stroke="#404040" stroke-width="2" stroke-linecap="round"/>
<path d="M25 15.2002V22.2002" stroke="#404040" stroke-width="2"/>
<path d="M25 24C26.1 24 27 24.9 27 26C27 27.1 26.1 28 25 28C23.9 28 23 27.1 23 26C23 24.9 23.9 24 25 24ZM25 22C22.8 22 21 23.8 21 26C21 28.2 22.8 30 25 30C27.2 30 29 28.2 29 26C29 23.8 27.2 22 25 22Z" fill="#404040"/>
</svg>
