<svg width="50" height="50" viewBox="0 0 50 50" fill="none" xmlns="http://www.w3.org/2000/svg">
<path d="M43.7625 13.8375C42.8125 9.325 34.975 6 25 6C15.025 6 7.1875 9.325 6.2375 13.8375C6 14.075 6 14.55 6 14.7875V25V34.5V34.7375C6 34.975 6 34.975 6 35.2125C6 40.2 14.075 44 25 44C35.925 44 44 40.2 44 35.2125C44 34.975 44 34.975 44 34.7375V34.5V25V14.7875C44 14.55 44 14.075 43.7625 13.8375ZM41.625 30.7V32.3625V33.3125V35.2125C41.625 35.45 41.625 35.45 41.625 35.6875C40.9125 38.5375 34.2625 41.625 25 41.625C15.7375 41.625 9.0875 38.5375 8.375 35.6875C8.375 35.45 8.375 35.45 8.375 35.2125V33.3125V32.3625V30.7V29.275C8.6125 29.75 8.85 29.75 9.325 29.9875C9.8 30.225 10.0375 30.4625 10.5125 30.7C10.9875 30.9375 11.4625 31.175 11.7 31.4125C13.6 32.3625 15.975 32.8375 18.35 33.3125C20.4875 33.55 22.625 33.7875 25 33.7875C27.375 33.7875 29.5125 33.55 31.65 33.3125C34.2625 32.8375 36.4 32.3625 38.3 31.4125C38.775 31.175 39.25 30.9375 39.4875 30.7C39.9625 30.4625 40.2 30.225 40.675 29.9875C41.15 29.75 41.3875 29.75 41.625 29.275V30.7ZM41.625 20.725V22.3875V25C41.625 26.1875 40.4375 27.6125 38.3 28.8C37.825 29.0375 37.35 29.275 36.875 29.5125C36.4 29.75 35.6875 29.9875 34.975 30.225C32.3625 30.9375 28.8 31.65 25 31.65C21.2 31.65 17.6375 31.175 15.025 30.225C14.3125 29.9875 13.8375 29.75 13.125 29.5125C12.65 29.275 12.175 29.0375 11.7 28.8C9.5625 27.6125 8.375 26.1875 8.375 25V22.3875V20.725V19.3C8.6125 19.5375 8.85 19.775 9.325 20.0125C9.5625 20.25 10.0375 20.4875 10.5125 20.725C10.75 20.725 11.225 20.9625 11.7 21.2C15.025 22.625 19.775 23.575 25 23.575C30.225 23.575 34.975 22.625 38.3 21.2C38.775 20.9625 39.25 20.725 39.4875 20.4875C39.9625 20.25 40.2 20.0125 40.675 19.775C40.9125 19.5375 41.3875 19.3 41.625 19.0625V20.725ZM41.3875 15.5C41.15 16.6875 39.9625 17.6375 38.0625 18.5875C37.5875 18.825 37.1125 19.0625 36.6375 19.3C36.1625 19.5375 35.45 19.775 34.7375 20.0125C32.3625 20.725 28.8 21.2 25 21.2C21.2 21.2 17.6375 20.725 15.025 20.0125C14.3125 19.775 13.8375 19.5375 13.125 19.3C12.65 19.0625 12.175 18.825 11.7 18.5875C10.0375 17.6375 8.85 16.6875 8.6125 15.5C8.375 15.2625 8.375 15.025 8.375 14.7875C8.375 14.3125 8.6125 13.6 9.0875 13.125C10.9875 10.75 16.925 8.375 25 8.375C33.075 8.375 39.0125 10.75 40.9125 13.125C41.3875 13.6 41.625 14.3125 41.625 14.7875C41.625 15.025 41.625 15.2625 41.3875 15.5Z" fill="#404040"/>
<path opacity="0.2" d="M25.832 18.896L28.7156 16.0124C29.6987 15.0294 29.6987 13.4565 28.7156 12.4734C26.8151 10.5729 23.6693 10.5729 21.7687 12.4734C20.7857 13.4565 20.7857 15.0294 21.7687 16.0124L24.6524 18.896C24.98 19.2237 25.5043 19.2237 25.832 18.896Z" />
</svg>
