<svg width="50" height="50" viewBox="0 0 50 50"  xmlns="http://www.w3.org/2000/svg">
<path d="M41.15 7.9C41.72 7.9 42.1 8.28 42.1 8.85V41.15C42.1 41.72 41.72 42.1 41.15 42.1H8.85C8.28 42.1 7.9 41.72 7.9 41.15V8.85C7.9 8.28 8.28 7.9 8.85 7.9H41.15ZM41.15 6H8.85C7.235 6 6 7.235 6 8.85V41.15C6 42.765 7.235 44 8.85 44H41.15C42.765 44 44 42.765 44 41.15V8.85C44 7.235 42.765 6 41.15 6Z" fill="#404040"/>
<path opacity="0.2" d="M18.4108 33.279L22.3235 33.3536C23.3725 33.3805 24.332 32.5362 24.3589 31.4872L24.3417 30.8157C24.4066 28.6234 22.6958 26.8932 20.5035 26.8283L19.832 26.8455C18.7831 26.8186 17.8236 27.6629 17.7967 28.7119L17.7221 32.6247C17.689 32.9077 18.0333 33.2349 18.4108 33.279Z" />
<path d="M28.8016 36.4002H18.8987C18.3022 36.4002 17.7351 36.3013 17.2144 36.1035C16.6863 35.9033 16.217 35.6138 15.821 35.2424C15.4225 34.8685 15.1072 34.4174 14.8847 33.9013C14.6623 33.3875 14.5498 32.8062 14.5498 32.1766V25.0416C14.5498 24.7135 14.562 24.3807 14.5865 24.0502C14.6158 23.6763 14.6891 23.3169 14.804 22.984C14.9312 22.6198 15.1267 22.2845 15.3883 21.983C15.6621 21.6694 16.0239 21.4162 16.4639 21.2304C16.4688 21.228 16.4761 21.2256 16.481 21.2232C16.7499 21.1147 17.0701 20.9482 17.4319 20.7263C17.8059 20.4947 18.2044 20.2125 18.6127 19.8917C19.016 19.5733 19.4145 19.2091 19.7983 18.8087C20.1796 18.4131 20.5267 17.9886 20.8323 17.5496C21.1257 17.1299 21.3628 16.686 21.5363 16.2325C21.6977 15.8104 21.7808 15.3763 21.7808 14.9445C21.7808 14.9348 21.7808 14.9276 21.7808 14.9179C21.8004 14.368 21.8761 13.9121 22.013 13.5238C22.1573 13.1137 22.3602 12.7688 22.6119 12.4986C22.8711 12.2212 23.1644 12.0138 23.4822 11.8859C23.7878 11.7629 24.1056 11.7002 24.4282 11.7002C25.1909 11.7002 25.8485 11.939 26.3814 12.4118C26.9021 12.8725 27.2468 13.5599 27.4424 14.5127C27.4497 14.5513 27.4546 14.5899 27.457 14.6285C27.4913 15.3425 27.4497 16.1071 27.3324 16.8983C27.2321 17.5713 27.0561 18.3166 26.8092 19.1126C26.6772 19.5347 26.511 19.9568 26.3081 20.3766H31.8279C32.5466 20.3766 33.1749 20.6129 33.6907 21.0809C34.2211 21.5585 34.4998 22.188 34.4998 22.8972C34.4998 23.2542 34.424 23.5991 34.2774 23.9248C34.138 24.2287 33.9547 24.5037 33.7273 24.7376C33.6075 24.8607 33.4755 24.9716 33.3313 25.0681C33.6467 25.4902 33.8129 25.9895 33.8129 26.5347C33.8129 27.2342 33.5391 27.8686 33.0233 28.3679C32.9011 28.4861 32.774 28.5898 32.6395 28.679C32.9597 29.1132 33.1284 29.6222 33.1284 30.1697C33.1284 30.5629 33.0184 30.9392 32.7984 31.2889C32.5979 31.6049 32.329 31.8799 31.9941 32.1042C31.9232 32.1525 31.8475 32.1983 31.7717 32.2417C32.109 32.7048 32.2802 33.2379 32.2802 33.8313C32.2802 34.3185 32.131 34.7503 31.8401 35.1145C31.5932 35.4209 31.2828 35.6766 30.9161 35.8719C30.5787 36.0529 30.2121 36.1879 29.8283 36.2724C29.4542 36.3568 29.1096 36.4002 28.8016 36.4002ZM17.0726 22.6512C16.8575 22.7428 16.6888 22.8562 16.5739 22.9913C16.4419 23.1432 16.3466 23.3049 16.283 23.4833C16.2097 23.6908 16.1632 23.9224 16.1461 24.166C16.1241 24.4554 16.1119 24.7497 16.1119 25.0416V32.1766C16.1119 32.5987 16.1828 32.975 16.3221 33.2958C16.4614 33.6214 16.6497 33.8916 16.899 34.1232C17.1484 34.3571 17.4344 34.5332 17.7742 34.6611C18.1164 34.7889 18.4953 34.854 18.9011 34.854H28.804C28.9971 34.854 29.2245 34.8251 29.4836 34.7672C29.728 34.7141 29.9578 34.6273 30.1681 34.5163C30.3514 34.4174 30.4981 34.2992 30.613 34.1545C30.6619 34.0942 30.7156 34.005 30.7156 33.8289C30.7156 33.5177 30.6227 33.2669 30.4247 33.0425C30.2512 32.8472 30.0434 32.7579 29.75 32.7579C29.3174 32.7579 28.9678 32.413 28.9678 31.986C28.9678 31.5591 29.3174 31.2142 29.75 31.2142C30.0043 31.2142 30.2536 31.178 30.4932 31.1056C30.7303 31.0357 30.9405 30.9392 31.119 30.821C31.273 30.7173 31.3879 30.6039 31.471 30.4688C31.537 30.3651 31.5663 30.2686 31.5663 30.1649C31.5663 29.8779 31.4637 29.6439 31.2461 29.434C31.0237 29.2193 30.7645 29.118 30.4345 29.118C30.0018 29.118 29.6523 28.7731 29.6523 28.3462C29.6523 27.9192 30.0018 27.5743 30.4345 27.5743H31.1434C31.4588 27.5743 31.7081 27.473 31.9306 27.2583C32.1481 27.0484 32.2508 26.8145 32.2508 26.5274C32.2508 26.2428 32.1555 26.0281 31.9428 25.8327C31.7179 25.6253 31.4637 25.5288 31.141 25.5288C30.7083 25.5288 30.3587 25.1839 30.3587 24.7569C30.3587 24.33 30.7083 23.9851 31.141 23.9851H31.8255C31.9697 23.9851 32.109 23.9561 32.2459 23.8982C32.3877 23.8379 32.5002 23.7607 32.5931 23.6643C32.6982 23.5557 32.7813 23.4327 32.8473 23.288C32.9035 23.1625 32.9328 23.0323 32.9328 22.8924C32.9328 22.6126 32.84 22.4027 32.6322 22.2146C32.4073 22.0096 32.1506 21.9155 31.8255 21.9155H24.9709C24.6849 21.9155 24.4209 21.7611 24.284 21.5127C24.1471 21.2642 24.1593 20.9627 24.3134 20.7239C24.7607 20.0413 25.0956 19.3442 25.3107 18.6543C25.5356 17.9331 25.6921 17.2649 25.7801 16.6691C25.8803 15.9986 25.917 15.3545 25.8925 14.7539C25.7703 14.1847 25.5772 13.7698 25.3327 13.5551C25.0907 13.3404 24.8023 13.2391 24.4258 13.2391C24.306 13.2391 24.1911 13.2632 24.0713 13.3115C23.9662 13.3525 23.8636 13.4297 23.7609 13.5382C23.6533 13.654 23.5604 13.818 23.4871 14.0279C23.404 14.2619 23.3551 14.573 23.3429 14.9517C23.3404 15.5668 23.2255 16.1795 22.9957 16.7729C22.7782 17.3421 22.4824 17.8945 22.1157 18.4179C21.7637 18.9221 21.3652 19.4093 20.9301 19.8628C20.4974 20.3138 20.0452 20.7263 19.5856 21.0905C19.1333 21.4548 18.6884 21.7708 18.2631 22.0337C17.8206 22.3062 17.4319 22.5089 17.0726 22.6512Z" fill="#404040" stroke="#404040" stroke-width="0.5"/>
</svg>
