<svg width="50" height="50" viewBox="0 0 50 50" fill="none" xmlns="http://www.w3.org/2000/svg">
<g clip-path="url(#clip0_2662_22011)">
<path d="M25.6667 8.8C26.2 8.8 26.5556 9.16 26.5556 9.7V15.1C26.5556 15.64 26.2 16 25.6667 16H18.5556C17.0444 16 15.8889 17.17 15.8889 18.7V25.9C15.8889 26.44 15.5333 26.8 15 26.8H9.66667C9.13333 26.8 8.77778 26.44 8.77778 25.9V9.7C8.77778 9.16 9.13333 8.8 9.66667 8.8H25.6667ZM25.6667 7H9.66667C8.15556 7 7 8.17 7 9.7V25.9C7 27.43 8.15556 28.6 9.66667 28.6H15C16.5111 28.6 17.6667 27.43 17.6667 25.9V18.7C17.6667 18.16 18.0222 17.8 18.5556 17.8H25.6667C27.1778 17.8 28.3333 16.63 28.3333 15.1V9.7C28.3333 8.17 27.1778 7 25.6667 7Z" fill="#404040"/>
<path d="M40.3331 21.4001C40.8664 21.4001 41.222 21.7601 41.222 22.3001V40.3001C41.222 40.8401 40.8664 41.2001 40.3331 41.2001H22.5553C22.022 41.2001 21.6664 40.8401 21.6664 40.3001V22.3001C21.6664 21.7601 22.022 21.4001 22.5553 21.4001H40.3331ZM40.3331 19.6001H22.5553C21.0442 19.6001 19.8887 20.7701 19.8887 22.3001V40.3001C19.8887 41.8301 21.0442 43.0001 22.5553 43.0001H40.3331C41.8442 43.0001 42.9998 41.8301 42.9998 40.3001V22.3001C42.9998 20.7701 41.8442 19.6001 40.3331 19.6001Z" fill="#404040"/>
<path d="M40.333 8.8C40.8663 8.8 41.2219 9.16 41.2219 9.7V15.1C41.2219 15.64 40.8663 16 40.333 16H34.9997C34.4663 16 34.1108 15.64 34.1108 15.1V9.7C34.1108 9.16 34.4663 8.8 34.9997 8.8H40.333ZM40.333 7H34.9997C33.4886 7 32.333 8.17 32.333 9.7V15.1C32.333 16.63 33.4886 17.8 34.9997 17.8H40.333C41.8441 17.8 42.9997 16.63 42.9997 15.1V9.7C42.9997 8.17 41.8441 7 40.333 7Z" fill="#404040"/>
<path d="M15 34.0002C15.5333 34.0002 15.8889 34.3602 15.8889 34.9002V40.3002C15.8889 40.8402 15.5333 41.2002 15 41.2002H9.66667C9.13333 41.2002 8.77778 40.8402 8.77778 40.3002V34.9002C8.77778 34.3602 9.13333 34.0002 9.66667 34.0002H15ZM15 32.2002H9.66667C8.15556 32.2002 7 33.3702 7 34.9002V40.3002C7 41.8302 8.15556 43.0002 9.66667 43.0002H15C16.5111 43.0002 17.6667 41.8302 17.6667 40.3002V34.9002C17.6667 33.3702 16.5111 32.2002 15 32.2002Z" fill="#404040"/>
<path opacity="0.2" d="M39.4446 38.4999V33.0999C39.4446 31.5699 38.289 30.3999 36.7779 30.3999H35.889C32.9557 30.3999 30.5557 32.8299 30.5557 35.7999V36.6999C30.5557 38.2299 31.7112 39.3999 33.2223 39.3999H38.5557C39.089 39.3999 39.4446 39.0399 39.4446 38.4999Z" />
</g>
<defs>
<clipPath id="clip0_2662_22011">
<rect width="36" height="36" fill="white" transform="translate(7 7)"/>
</clipPath>
</defs>
</svg>
