<svg width="50" height="50" viewBox="0 0 50 50" fill="none" xmlns="http://www.w3.org/2000/svg">
<g clip-path="url(#clip0_3260_21827)">
<path opacity="0.2" d="M31.7653 31.0248V26.9468C31.7653 25.5565 30.6531 24.4443 29.2628 24.4443C26.575 24.4443 24.3506 26.6687 24.3506 29.3565C24.3506 30.7468 25.4628 31.859 26.8531 31.859H30.9311C31.3945 31.859 31.7653 31.4882 31.7653 31.0248Z"/>
<path d="M24.9999 16.9367C25.1852 16.9367 25.3706 16.9367 25.556 17.122L32.9706 22.9611C33.156 23.1464 33.3413 23.4245 33.3413 23.7025V32.5074C33.3413 33.0635 32.9706 33.4342 32.4145 33.4342H17.5852C17.0291 33.4342 16.6584 33.0635 16.6584 32.5074V23.7025C16.6584 23.4245 16.7511 23.1464 17.0291 22.9611L24.4438 17.122C24.6291 16.9367 24.8145 16.9367 24.9999 16.9367ZM24.9999 15.083C24.3511 15.083 23.795 15.2684 23.3316 15.6391L15.9169 21.4781C15.2682 22.0342 14.8047 22.7757 14.8047 23.7025V32.5074C14.8047 34.083 16.0096 35.2879 17.5852 35.2879H32.4145C33.9901 35.2879 35.195 34.083 35.195 32.5074V23.7025C35.195 22.8684 34.8243 22.0342 34.0828 21.4781L26.6682 15.6391C26.2047 15.2684 25.6487 15.083 24.9999 15.083Z" fill="#404040"/>
<path d="M25.0001 27.0391V29.0781" stroke="#404040" stroke-width="2" stroke-linecap="round"/>
<path d="M33.9902 6.92676H40.2927C41.8683 6.92676 43.0732 8.13164 43.0732 9.61456V15.917" stroke="#404040" stroke-width="2" stroke-linecap="round" fill="rgba(0,0,0,0)"/>
<path d="M6.92682 16.0097V9.61456C6.92682 8.13164 8.1317 6.92676 9.61462 6.92676H15.9171" stroke="#404040" stroke-width="2" stroke-linecap="round" fill="rgba(0,0,0,0)"/>
<path d="M16.0097 43.0733H9.61462C8.1317 43.0733 6.92682 41.8684 6.92682 40.3854V34.083" stroke="#404040" stroke-width="2" stroke-linecap="round" fill="rgba(0,0,0,0)"/>
<path d="M43.0733 33.9902V40.2927C43.0733 41.7756 41.8684 42.9805 40.3855 42.9805H34.0831" stroke="#404040" stroke-width="2" stroke-linecap="round" fill="rgba(0,0,0,0)"/>
</g>
<defs>
<clipPath id="clip0_3260_21827">
<rect width="38" height="38" fill="white" transform="translate(6 6)"/>
</clipPath>
</defs>
</svg>
