<svg width="24" height="24" viewBox="0 0 24 24" fill="none" xmlns="http://www.w3.org/2000/svg">
<path d="M2 10.4419C2 9.53052 2.41427 8.66858 3.12591 8.09927L10.1259 2.49927C11.2216 1.62274 12.7784 1.62274 13.8741 2.49927L20.8741 8.09927C21.5857 8.66858 22 9.53052 22 10.4419V19C22 20.6569 20.6569 22 19 22H5C3.34315 22 2 20.6569 2 19V10.4419Z" fill="#2B2B2B"/>
<rect x="11" y="13" width="2" height="5" rx="1" fill="white"/>
<mask id="mask0_4157_99740" style="mask-type:alpha" maskUnits="userSpaceOnUse" x="2" y="1" width="20" height="21">
<path d="M2 10.4419C2 9.53052 2.41427 8.66858 3.12591 8.09927L10.1259 2.49927C11.2216 1.62274 12.7784 1.62274 13.8741 2.49927L20.8741 8.09927C21.5857 8.66858 22 9.53052 22 10.4419V19C22 20.6569 20.6569 22 19 22H5C3.34315 22 2 20.6569 2 19V10.4419Z" fill="#440099"/>
</mask>
<g mask="url(#mask0_4157_99740)">
<path opacity="0.5" d="M11.108 18.0648V21H12.9223V18.0648C12.9223 15.1477 13.9187 12.3142 16.1241 10.2903C18.1524 8.42204 20.7813 7.38601 23.5303 7.35063C22.3645 5.46964 20.7274 3.89012 18.7915 2.78616C16.7493 1.62275 14.4054 1.00283 12.0167 1.00283H12.0152H12.0136C9.6265 1.00283 7.27942 1.62275 5.23728 2.78616C3.30448 3.89012 1.66738 5.46964 0.5 7.35063C3.25058 7.38601 5.87949 8.42204 7.90623 10.2903C10.1132 12.3142 11.108 15.1477 11.108 18.0648Z" fill="url(#paint0_linear_4157_99740)"/>
</g>
<defs>
<linearGradient id="paint0_linear_4157_99740" x1="11.0556" y1="-1.94118" x2="10.8515" y2="19.2333" gradientUnits="userSpaceOnUse">
<stop stop-color="white"/>
<stop offset="1" stop-color="white" stop-opacity="0"/>
</linearGradient>
</defs>
</svg>
