<svg width="100" height="72" viewBox="0 0 100 72" fill="none" xmlns="http://www.w3.org/2000/svg">
<path fill-rule="evenodd" clip-rule="evenodd" d="M53.5513 2.3302V22.6078C53.5513 28.4541 50.5263 31.8088 45.2547 31.8088C40.0269 31.8088 37.0279 28.4541 37.0279 22.6078V2.3302H33.9815V22.6575C33.9815 30.2861 38.1955 34.8419 45.2547 34.8419C52.1719 34.8419 56.6402 30.0601 56.6402 22.6575V2.3302H53.5513Z" fill="#72C4D5"/>
<path fill-rule="evenodd" clip-rule="evenodd" d="M11.5749 53.9671C7.31229 52.1098 5.14603 50.6356 5.14603 47.739C5.14603 44.6371 7.8555 42.4705 11.7331 42.4705C13.8176 42.4705 16.03 43.1435 17.8007 44.3169L18.2213 44.596L19.8747 41.8784L19.5306 41.6584C17.3235 40.2579 14.6325 39.4882 11.9533 39.4882C6.1283 39.4882 1.73514 43.1073 1.73514 47.907C1.73514 52.3817 5.06956 54.6921 10.0732 56.7802C14.8236 58.8091 16.9437 60.2543 16.9437 63.4626C16.9437 66.7373 14.1789 69.026 10.2208 69.026C7.5918 69.026 4.84542 68.1222 2.05949 66.3386L1.63362 66.0667L3.05176e-05 68.8738L0.342834 69.0877C3.51244 71.0477 6.67151 71.9999 10.0033 71.9999C15.9272 71.9999 20.3929 68.2055 20.3929 63.1738C20.3929 58.5904 17.2931 56.402 11.5749 53.9671Z" fill="#72C4D5"/>
<path fill-rule="evenodd" clip-rule="evenodd" d="M33.0306 55.2942L49.2441 39.4882H44.8588L30.4865 53.6167V39.4882H27.1869V71.9999H30.4865V56.9881L45.3808 71.9999H49.8456L33.0306 55.2942Z" fill="#72C4D5"/>
<path fill-rule="evenodd" clip-rule="evenodd" d="M56.65 71.9999H61.1817V39.4882H56.65V71.9999Z" fill="#72C4D5"/>
<path fill-rule="evenodd" clip-rule="evenodd" d="M94.7143 71.9999L73.7045 47.2829V71.8164H70.2407V39.7262L71.2323 39.4882L92.0603 63.9869V39.6419H95.1653V71.9156L94.7143 71.9999Z" fill="#72C4D5"/>
<path fill-rule="evenodd" clip-rule="evenodd" d="M26.7389 34.8419L5.72904 10.1249V34.3695H2.26529V2.56825L3.25692 2.3302L24.0849 26.829V2.7567H27.1899V34.7576L26.7389 34.8419Z" fill="#72C4D5"/>
<path fill-rule="evenodd" clip-rule="evenodd" d="M92.2852 9.63854C92.2852 9.63854 95.3977 9.46265 97.7479 12.273C98.5284 13.2102 99.2714 14.4138 99.698 16.0927C98.5721 7.012 91.3956 0.00918831 82.7028 0C74.0113 0.00918831 66.8336 7.012 65.71 16.0927C66.1354 14.4138 66.8796 13.2102 67.659 12.273C70.0091 9.46265 73.1216 9.63854 73.1216 9.63854C80.8593 10.0612 80.8896 18.4934 80.8896 18.4934V37.0709C81.2544 37.1103 81.6192 37.1379 81.9889 37.1562V17.3226C81.9889 14.6173 81.2059 11.9894 79.4691 10.1124C77.874 8.37974 75.8051 7.41891 73.6404 7.38609C74.5591 5.64162 75.8475 4.17674 77.3686 3.1529C78.9758 2.07393 80.8229 1.49901 82.7016 1.49901H82.704C84.5839 1.49901 86.4286 2.07393 88.0358 3.1529C89.5593 4.17674 90.8477 5.64162 91.7652 7.38609C89.6017 7.41891 87.5328 8.37974 85.9365 10.1124C84.2009 11.9894 83.4167 14.6173 83.4167 17.3226V37.1562C83.7852 37.1379 84.1536 37.1103 84.516 37.0709V18.4934C84.516 18.4934 84.5487 10.0612 92.2852 9.63854ZM92.9797 19.6709C92.9797 19.6709 91.8198 19.6932 90.8392 20.36C89.6745 21.1502 88.46 22.7542 88.46 26.0712V36.1035C91.8998 34.7607 94.8438 32.2615 96.8679 29.0351C98.2084 26.6724 98.2727 24.7914 97.9357 23.4355C97.4606 21.6831 95.9747 19.491 92.9797 19.6709ZM97.3576 15.309C96.3165 14.427 94.7662 13.7562 92.4585 13.7562C92.4585 13.7562 85.9426 13.7982 85.9426 19.9964V36.8543C86.311 36.7743 86.6747 36.6876 87.0346 36.5839V21.649C87.0346 21.649 86.9995 20.4492 87.6201 19.1209C88.2879 17.6022 89.7205 15.9483 92.793 15.8564C92.793 15.8564 95.382 15.5965 97.3127 17.8805C98.2206 19.008 99.0411 20.3351 99.0593 24.1062C100.682 18.8754 98.2 16.0953 97.3576 15.309ZM72.9495 13.7562C70.6442 13.7562 69.0952 14.427 68.0517 15.309C67.2105 16.0953 64.727 18.8754 66.3499 24.1062C66.3669 20.3351 67.1875 19.008 68.0965 17.8805C70.0273 15.5965 72.6174 15.8564 72.6174 15.8564C75.6887 15.9483 77.1214 17.6022 77.7904 19.1209C78.4085 20.4492 78.3758 21.649 78.3758 21.649V36.5839C78.7346 36.6876 79.0982 36.7743 79.4654 36.8543V19.9964C79.4654 13.7982 72.9495 13.7562 72.9495 13.7562ZM74.5724 20.36C73.5907 19.6932 72.4295 19.6709 72.4295 19.6709C69.4346 19.491 67.9498 21.6831 67.4747 23.4355C67.1378 24.7914 67.202 26.6724 68.5413 29.0351C70.5654 32.2615 73.5095 34.7607 76.9505 36.1035V26.0712C76.9505 22.7542 75.7348 21.1502 74.5724 20.36Z" />
</svg>
