<svg width="44" height="31" viewBox="0 0 44 31" fill="none" xmlns="http://www.w3.org/2000/svg">
<path fill-rule="evenodd" clip-rule="evenodd" d="M23.5626 0.585297V9.43623C23.5626 11.9881 22.2316 13.4524 19.9121 13.4524C17.6118 13.4524 16.2923 11.9881 16.2923 9.43623V0.585297H14.9519V9.45791C14.9519 12.7877 16.8061 14.7763 19.9121 14.7763C22.9557 14.7763 24.9217 12.6891 24.9217 9.45791V0.585297H23.5626Z" fill="#72C4D5"/>
<path fill-rule="evenodd" clip-rule="evenodd" d="M5.09295 23.1242C3.21739 22.3135 2.26424 21.67 2.26424 20.4057C2.26424 19.0518 3.45641 18.1061 5.16256 18.1061C6.07975 18.1061 7.0532 18.3999 7.83232 18.912L8.01738 19.0338L8.74486 17.8476L8.59344 17.7516C7.62231 17.1403 6.43827 16.8043 5.25945 16.8043C2.69644 16.8043 0.763449 18.384 0.763449 20.4791C0.763449 22.4322 2.23059 23.4407 4.43218 24.3521C6.52239 25.2377 7.45523 25.8685 7.45523 27.2689C7.45523 28.6983 6.2387 29.6973 4.49716 29.6973C3.34038 29.6973 2.13197 29.3027 0.906161 28.5242L0.718779 28.4055L0 29.6308L0.150833 29.7242C1.54546 30.5797 2.93545 30.9953 4.40144 30.9953C7.00795 30.9953 8.97285 29.3391 8.97285 27.1428C8.97285 25.1422 7.60897 24.187 5.09295 23.1242Z" fill="#72C4D5"/>
<path fill-rule="evenodd" clip-rule="evenodd" d="M14.5334 23.7035L21.6673 16.8043H19.7378L13.414 22.9712V16.8043H11.9622V30.9953H13.414V24.4428L19.9675 30.9953H21.932L14.5334 23.7035Z" fill="#72C4D5"/>
<path fill-rule="evenodd" clip-rule="evenodd" d="M25.366 30.9953H26.95V16.8043H25.366V30.9953Z" fill="#72C4D5"/>
<path fill-rule="evenodd" clip-rule="evenodd" d="M41.6743 30.9953L32.4299 20.2066V30.9152H30.9059V16.9082L31.3422 16.8043L40.5065 27.4978V16.8714H41.8727V30.9585L41.6743 30.9953Z" fill="#72C4D5"/>
<path fill-rule="evenodd" clip-rule="evenodd" d="M11.7651 14.7763L2.52075 3.9876V14.5701H0.996704V0.6892L1.43302 0.585297L10.5973 11.2787V0.771458H11.9635V14.7395L11.7651 14.7763Z" fill="#72C4D5"/>
<g clip-path="url(#clip0_13157_39561)">
<path fill-rule="evenodd" clip-rule="evenodd" d="M43.8616 6.06728C43.6416 5.57307 43.3475 5.13028 42.9524 4.76068C41.1961 3.11549 38.369 3.8154 37.5283 6.10188C37.3458 6.59836 37.2505 7.11047 37.2512 7.64196C37.2538 9.35281 37.2534 11.0636 37.2531 12.7743L37.2528 14.5704C37.2528 14.9631 37.2527 14.9631 36.8245 14.9392C36.8231 14.9164 36.8214 14.8931 36.8196 14.8697L36.8196 14.8696L36.8196 14.8696L36.8196 14.8696C36.8155 14.8157 36.8113 14.7605 36.8113 14.7053C36.8111 14.0746 36.8107 13.4438 36.8103 12.813V12.8129V12.8129V12.8128C36.809 10.8343 36.8078 8.85586 36.8118 6.87726C36.8153 5.14537 37.7608 3.74554 39.2867 3.19817C39.4705 3.13218 39.663 3.08543 39.8549 3.0475C39.9867 3.02125 40.1205 3.00594 40.2546 2.99059C40.3144 2.98375 40.3742 2.97691 40.4339 2.96909C40.1962 1.8881 38.212 0.632391 36.6011 0.572685C34.717 0.502693 33.112 1.70016 32.4935 2.96856C32.5528 2.97589 32.6116 2.9822 32.6699 2.98846C32.792 3.00156 32.9121 3.01445 33.0306 3.03614C34.6498 3.33214 35.8376 4.55392 36.07 6.1708C36.1115 6.45931 36.1361 6.7525 36.1369 7.04409C36.1394 8.30945 36.1397 9.5748 36.14 10.8402C36.1403 12.1241 36.1406 13.4081 36.1432 14.6921C36.1438 14.8929 36.0963 14.9772 35.8773 14.9526C35.7153 14.9343 35.6827 14.8646 35.6836 14.7204C35.6874 14.1182 35.6869 13.5162 35.6864 12.9141V12.9141V12.914V12.914C35.6862 12.7063 35.6861 12.4986 35.6861 12.2909C35.6861 11.8172 35.6873 11.3435 35.6886 10.8698V10.8698V10.8697V10.8697V10.8696V10.8696V10.8695C35.6915 9.73875 35.6945 8.60787 35.6805 7.47699C35.6687 6.51889 35.3681 5.64266 34.7071 4.92618C33.3023 3.4032 30.4865 3.35805 29.2227 5.79373C29.1904 5.85623 29.1602 5.91984 29.1242 5.99566L29.1241 5.9957L29.1241 5.99571C29.1041 6.03783 29.0824 6.08371 29.0574 6.13527C29.6597 2.60257 32.9197 -0.0629818 36.5512 0.00113247C40.459 0.0700554 43.2907 2.87612 43.8616 6.06728ZM39.0427 14.4359V14.4359C39.0373 14.3968 39.0327 14.3638 39.0327 14.3307C39.0331 13.9537 39.0327 13.5767 39.0323 13.1997V13.1997V13.1997V13.1997C39.0312 12.2123 39.0301 11.2247 39.0445 10.2375C39.054 9.56898 39.2358 8.94065 39.7487 8.46554C40.4076 7.85552 41.1932 7.79261 41.9898 8.09996C42.7807 8.40557 43.1828 9.04831 43.2393 9.87793C43.2983 10.7428 42.9216 11.4634 42.3952 12.1189C41.5586 13.1607 40.5156 13.9316 39.2734 14.4378C39.2284 14.4562 39.1814 14.4692 39.1306 14.4832C39.1053 14.4902 39.079 14.4975 39.0517 14.5058C39.0488 14.48 39.0456 14.4571 39.0427 14.4359ZM33.432 14.3318C33.5817 14.4051 33.7344 14.4797 33.8898 14.5592C33.8935 14.508 33.8972 14.4659 33.9003 14.4297L33.9003 14.4295L33.9003 14.4295C33.9059 14.3645 33.9099 14.3185 33.91 14.2724C33.9102 13.9629 33.9107 13.6533 33.9113 13.3437V13.3436V13.3436C33.9129 12.3641 33.9146 11.3846 33.9057 10.405C33.9029 10.1083 33.8657 9.80473 33.7937 9.51688C33.5272 8.44845 32.7363 7.89172 31.6014 7.94782C30.6393 7.99484 29.877 8.70343 29.7195 9.70989C29.6185 10.3544 29.8005 10.9486 30.1236 11.4947C30.7095 12.484 31.5314 13.2521 32.512 13.8474C32.8031 14.0243 33.1107 14.1747 33.432 14.3318ZM35.0106 14.7939C34.6346 14.8134 34.5827 14.7693 34.5827 14.4358L34.5825 8.90248C34.5825 7.80225 34.0287 6.93364 33.0948 6.56819C32.0036 6.14156 30.7985 6.37892 30.0519 7.15604C29.4918 7.73907 29.2973 8.45355 29.258 9.22947C29.2541 9.30373 29.2484 9.37773 29.1971 9.46108C29.1844 9.40163 29.1705 9.34231 29.1567 9.28297C29.1271 9.1567 29.0976 9.03033 29.0795 8.90248C28.9739 8.15275 29.0708 7.43934 29.4848 6.78524C29.7715 6.33257 30.1548 5.99183 30.6645 5.8099C31.7586 5.41934 32.8342 5.45554 33.8661 6.00745C34.6243 6.41311 35.0127 7.07456 35.0191 7.91659C35.0314 9.556 35.029 11.1956 35.0266 12.8352C35.0256 13.4451 35.0247 14.055 35.0246 14.6649C35.0246 14.695 35.0202 14.7252 35.0159 14.7548C35.014 14.7679 35.0121 14.781 35.0106 14.7939ZM37.9112 14.525V14.8038C38.3481 14.7891 38.3584 14.7791 38.3584 14.3996C38.3585 13.8348 38.3581 13.2699 38.3578 12.705C38.357 11.4258 38.3562 10.1465 38.3604 8.86721C38.3631 8.02263 38.6628 7.29387 39.3851 6.81902C40.7738 5.90673 42.9777 6.30624 43.5393 8.31222C43.6122 8.57187 43.648 8.84176 43.6839 9.11159C43.7003 9.23528 43.7167 9.35896 43.7367 9.48164C43.8092 9.17642 43.8769 8.86293 43.8972 8.54677C43.9788 7.26007 43.3017 6.16853 42.1763 5.77062C41.5222 5.53941 40.8447 5.48731 40.1646 5.62316C38.8283 5.8895 37.8799 6.61212 37.9041 8.29565C37.9249 9.74548 37.9201 11.1958 37.9153 12.646C37.9133 13.2724 37.9112 13.8987 37.9112 14.525Z"/>
</g>
<defs>
<clipPath id="clip0_13157_39561">
<rect width="14.96" height="14.96" fill="white" transform="translate(29.04)"/>
</clipPath>
</defs>
</svg>
