<svg width="59" height="13" viewBox="0 0 59 13" xmlns="http://www.w3.org/2000/svg">
<path d="M11.8865 5.968H14.6705L12.3825 8.032L13.8225 12.016H11.5185L10.6545 9.6L8.5425 11.504H5.7425L9.9665 7.696L8.9745 4.928H4.8305V5.648H7.1185L4.8305 8.144V10.272C4.8305 10.5173 4.7825 10.7467 4.6865 10.96C4.60117 11.1627 4.4785 11.344 4.3185 11.504C4.1585 11.664 3.97183 11.792 3.7585 11.888C3.54517 11.9733 3.32117 12.016 3.0865 12.016H0.1745L0.7825 10.64H2.1905C2.32917 10.64 2.4465 10.592 2.5425 10.496C2.6385 10.4 2.6865 10.2827 2.6865 10.144V9.76H0.5585L2.6865 7.44V4.928H0.2065V3.36H2.6865V2.288L0.2065 2.528V1.104L6.6865 0.464V1.888L4.8305 2.064V3.36H8.4145L7.3905 0.511999H9.6945L10.7025 3.36H11.8065L10.8465 0.511999H12.9745L14.4625 4.928H13.4865H12.3345H11.2785L11.7105 6.128L11.8865 5.968ZM19.1813 0.447999L18.4613 1.728H21.3733V10.24C21.3733 10.4853 21.3253 10.7147 21.2293 10.928C21.1439 11.1413 21.0213 11.328 20.8613 11.488C20.7013 11.648 20.5146 11.776 20.3013 11.872C20.0879 11.9573 19.8639 12 19.6293 12H15.1013V1.728H16.0613L16.7973 0.447999H19.1813ZM18.6533 10.416C18.8026 10.416 18.9253 10.368 19.0213 10.272C19.1173 10.176 19.1653 10.0587 19.1653 9.92V8.064H17.3253V10.416H18.6533ZM19.1653 3.312H17.3253V6.496H19.1653V3.312ZM24.6213 1.472H29.1813V1.568V3.056V10.272C29.1813 10.5173 29.1333 10.7467 29.0373 10.96C28.9413 11.1733 28.8133 11.36 28.6533 11.52C28.4933 11.68 28.3066 11.808 28.0933 11.904C27.8799 11.9893 27.6559 12.032 27.4213 12.032H23.1173L23.7413 10.64H26.4613C26.5999 10.64 26.7173 10.592 26.8133 10.496C26.9093 10.4 26.9573 10.2827 26.9573 10.144V3.056H24.0933H23.5493H21.7733L22.6533 0.447999H24.9733L24.6213 1.472ZM24.1573 7.808L22.6693 4.752H25.0053L26.4933 7.808H24.1573ZM29.884 4.416H30.604L29.98 0.848H31.5L32.124 4.416H32.188V0.48H34.012V4.416H34.06L34.684 0.848H36.204L35.58 4.416H36.204V5.792H34.012V11.984H32.188V5.792H29.884V4.416ZM31.436 11.984H29.9L30.252 6.288H31.788L31.436 11.984ZM35.932 6.288L36.3 11.984H34.764L34.412 6.288H35.932ZM41.228 10.4C41.3773 10.4 41.5 10.352 41.596 10.256C41.692 10.16 41.74 10.0427 41.74 9.904V7.12H39.852L38.78 11.984H36.732L37.804 7.12H36.732V5.536H43.756V10.4C43.756 10.848 43.6013 11.2267 43.292 11.536C42.9933 11.8347 42.62 11.984 42.172 11.984H39.964L40.652 10.4H41.228ZM43.836 4.752H41.612L40.924 0.495999H43.084L43.836 4.752ZM38.892 4.672H36.684L37.42 0.495999H39.628L38.892 4.672ZM58.5388 12H44.6028V10.432H58.5388V12ZM44.6988 9.28L47.8508 4.96H47.0028H44.6988L48.2188 0.464H50.8908L48.5068 3.52H51.3708L48.2028 7.856H51.4188V9.28H44.6988ZM51.7228 9.28L54.8748 4.96H54.0108H51.7228L55.2428 0.464H57.9148L55.5148 3.52H58.3788L55.2268 7.856H58.4268V9.28H51.7228Z"/>
</svg>
