<svg width="34" height="14" viewBox="0 0 34 14" fill="none" xmlns="http://www.w3.org/2000/svg">
<path d="M7.49673 1.53809L4.23427 6.743C3.33188 8.06256 2.22125 8.64903 0.83297 8.64903H0L4.23427 1.90463C4.37309 1.6847 4.65075 1.53809 4.92841 1.53809H7.49673ZM5.34489 7.32947C5.55314 7.10954 5.76138 6.96293 5.96962 6.96293H8.95443L5.20606 11.9479C5.20606 12.0212 5.13665 12.0212 5.20606 12.0945C5.20606 12.1678 5.20606 12.1678 5.27548 12.2412C5.34489 12.3145 5.41431 12.3878 5.48372 12.3878L10.6204 12.0212L10.0651 9.67535H11.6616C12.0781 9.67535 12.4946 9.82197 12.8416 10.1152C13.1887 10.4084 13.3969 10.8483 13.5358 11.3614L14.0217 13.9273H11.1063C11.0369 13.9273 10.9674 13.9273 10.898 13.8539C10.8286 13.7806 10.8286 13.7073 10.7592 13.634L10.6898 13.2675L1.80477 13.8539C1.52711 13.8539 1.31887 13.7806 1.11063 13.4874C0.971799 13.1942 0.971799 12.9009 1.11063 12.6077L5.34489 7.32947ZM12.7722 1.83132L15.757 8.79564H14.9241C13.6052 8.79564 12.564 7.98925 11.8698 6.37646L9.71799 1.53809H12.4251C12.564 1.53809 12.7028 1.61139 12.7722 1.83132Z" fill="#4A4A4A"/>
<path d="M19.9219 9.2355L20.0607 8.20918H31.0281L30.4034 12.5344C30.334 12.9742 30.1952 13.2675 29.8481 13.5607C29.5704 13.8539 29.2234 14.0006 28.8069 14.0006H17.423C17.0065 14.0006 16.7288 13.8539 16.5206 13.5607C16.3123 13.2675 16.2429 12.9009 16.2429 12.5344L16.7982 8.28248H19.436L18.8807 12.2412C18.8807 12.4611 18.8807 12.6077 19.0195 12.681C19.0889 12.8276 19.2277 12.9009 19.436 12.9009H27.1409C27.3492 12.9009 27.488 12.8276 27.5574 12.681C27.6963 12.5344 27.7657 12.3878 27.7657 12.2412L28.1822 9.38211H19.9219V9.2355ZM25.7527 6.15653H31.7917L31.7223 6.96293C31.7223 7.10955 31.5835 7.25616 31.4446 7.40278C31.3058 7.5494 31.167 7.62271 31.0281 7.62271H16.4512L16.5206 6.96293C16.5206 6.743 16.6594 6.59638 16.7982 6.37646C16.9371 6.22984 17.0759 6.15653 17.2841 6.15653H23.1149L23.462 3.73735H19.7136L19.6442 3.88396C19.5054 4.32382 19.2971 4.61705 18.9501 4.83698C18.6724 5.0569 18.3253 5.20352 17.9783 5.20352H16.7288L17.7006 2.27117C17.77 2.12456 17.8394 1.97794 17.9783 1.90463C18.1171 1.83132 18.2559 1.75801 18.3948 1.75801H20.3384L20.1301 2.41779H23.6702L23.7397 2.05125C23.7397 1.90463 23.8091 1.75801 23.8785 1.6847C23.9479 1.61139 24.0867 1.53809 24.1561 1.53809H26.3774L26.2386 2.34448H31.9999L31.9305 3.07757C31.9305 3.29749 31.7917 3.44411 31.6529 3.51742C31.514 3.66404 31.3058 3.73735 31.167 3.73735H26.0303L25.7527 6.15653Z" fill="#4A4A4A"/>
<mask id="mask0_1615_18297" style="mask-type:alpha" maskUnits="userSpaceOnUse" x="0" y="1" width="32" height="14">
<path fill-rule="evenodd" clip-rule="evenodd" d="M4.23427 6.743L7.49673 1.53809H4.92841C4.65075 1.53809 4.37309 1.6847 4.23427 1.90463L0 8.64903H0.83297C2.22125 8.64903 3.33188 8.06256 4.23427 6.743ZM5.96962 6.96293C5.76138 6.96293 5.55314 7.10954 5.34489 7.32947L1.11063 12.6077C0.971799 12.9009 0.971799 13.1942 1.11063 13.4874C1.31887 13.7806 1.52711 13.8539 1.80477 13.8539L10.6898 13.2675L10.7592 13.634C10.7939 13.6707 10.8113 13.7073 10.8286 13.744C10.846 13.7806 10.8633 13.8173 10.898 13.8539C10.9674 13.9273 11.0369 13.9273 11.1063 13.9273H14.0217L13.5358 11.3614C13.3969 10.8483 13.1887 10.4084 12.8416 10.1152C12.4946 9.82197 12.0781 9.67535 11.6616 9.67535H10.0651L10.6204 12.0212L5.48372 12.3878C5.41431 12.3878 5.34489 12.3145 5.27548 12.2412C5.20606 12.1678 5.20606 12.1678 5.20606 12.0945C5.16316 12.0492 5.17329 12.0319 5.18729 12.008C5.19594 11.9932 5.20606 11.9759 5.20606 11.9479L8.95443 6.96293H5.96962ZM15.757 8.79564L12.7722 1.83132C12.7028 1.61139 12.564 1.53809 12.4251 1.53809H9.71799L11.8698 6.37646C12.564 7.98925 13.6052 8.79564 14.9241 8.79564H15.757ZM20.0608 8.20918L19.9219 9.2355V9.38211H28.1822L27.7657 12.2412C27.7657 12.3878 27.6963 12.5344 27.5575 12.681C27.4881 12.8276 27.3493 12.9009 27.141 12.9009H19.436C19.2278 12.9009 19.089 12.8276 19.0195 12.681C18.8807 12.6077 18.8807 12.4611 18.8807 12.2412L19.436 8.28248H16.7983L16.243 12.5344C16.243 12.9009 16.3124 13.2675 16.5206 13.5607C16.7289 13.8539 17.0065 14.0006 17.423 14.0006H28.807C29.2234 14.0006 29.5705 13.8539 29.8482 13.5607C30.1952 13.2675 30.3341 12.9742 30.4035 12.5344L31.0282 8.20918H20.0608ZM31.7918 6.15653H25.7527L26.0304 3.73735H31.167C31.3059 3.73735 31.5141 3.66404 31.6529 3.51742C31.7918 3.44411 31.9306 3.29749 31.9306 3.07757L32 2.34448H26.2386L26.3775 1.53809H24.1562C24.0868 1.53809 23.948 1.61139 23.8785 1.6847C23.8091 1.75801 23.7397 1.90463 23.7397 2.05125L23.6703 2.41779H20.1302L20.3384 1.75801H18.3948C18.256 1.75801 18.1172 1.83132 17.9783 1.90463C17.8395 1.97794 17.7701 2.12456 17.7007 2.27117L16.7289 5.20352H17.9783C18.3254 5.20352 18.6725 5.0569 18.9501 4.83698C19.2972 4.61705 19.5054 4.32382 19.6443 3.88396L19.7137 3.73735H23.4621L23.115 6.15653H17.2842C17.076 6.15653 16.9371 6.22984 16.7983 6.37646C16.7693 6.42236 16.7403 6.46507 16.7126 6.50592C16.6076 6.66078 16.5206 6.7889 16.5206 6.96293L16.4512 7.62271H31.0282C31.167 7.62271 31.3059 7.5494 31.4447 7.40278C31.5835 7.25616 31.7223 7.10955 31.7223 6.96293L31.7918 6.15653Z" fill="#4A4A4A"/>
</mask>
<g mask="url(#mask0_1615_18297)">
<path fill-rule="evenodd" clip-rule="evenodd" d="M20.4847 0.620288C20.4847 0.620288 20.0336 0.469825 19.5786 0.575487C19.0382 0.70032 18.386 1.11083 18.0084 2.30288L16.8661 5.90825C18.349 5.89566 19.7719 5.39975 20.9219 4.51681C21.7092 3.85087 21.9482 3.18367 21.9723 2.65034C21.9881 1.95567 21.6632 0.964866 20.4847 0.620288Z" fill="#333333"/>
</g>
<path fill-rule="evenodd" clip-rule="evenodd" d="M19.5013 0.621264C19.5013 0.621264 19.0502 0.470801 18.5952 0.576464C18.0548 0.701297 17.4026 1.11181 17.025 2.30385L15.8827 5.90923C17.3656 5.89664 18.7885 5.40073 19.9385 4.51779C20.7258 3.85184 20.9648 3.18464 20.9889 2.65131C21.0047 1.95665 20.6798 0.965843 19.5013 0.621264Z"/>
</svg>
