<svg width="24" height="24" viewBox="0 0 24 24" fill="none" xmlns="http://www.w3.org/2000/svg">
<path d="M18.25 16C18.25 16.4142 18.5858 16.75 19 16.75C19.4142 16.75 19.75 16.4142 19.75 16H18.25ZM4.25 13C4.25 13.4142 4.58579 13.75 5 13.75C5.41421 13.75 5.75 13.4142 5.75 13H4.25ZM19.0038 5.67818C18.8261 5.30404 18.3787 5.14482 18.0045 5.32255C17.6304 5.50029 17.4712 5.94768 17.6489 6.32182L19.0038 5.67818ZM14.6782 3.35108C15.0523 3.52881 15.4997 3.36959 15.6774 2.99545C15.8552 2.62131 15.696 2.17392 15.3218 1.99619L14.6782 3.35108ZM18.25 9V16H19.75V9H18.25ZM5.75 13C5.75 12.9932 5.75 12.9864 5.75 12.9796C5.75 12.9728 5.75 12.966 5.75 12.9593C5.75 12.9525 5.75 12.9458 5.75 12.9391C5.75 12.9325 5.75 12.9258 5.75 12.9192C5.75 12.9125 5.75 12.9059 5.75 12.8993C5.75 12.8927 5.75 12.8862 5.75 12.8796C5.75 12.8731 5.75 12.8666 5.75 12.8601C5.75 12.8536 5.75 12.8471 5.75 12.8406C5.75 12.8342 5.75 12.8278 5.75 12.8214C5.75 12.815 5.75 12.8086 5.75 12.8023C5.75 12.7959 5.75 12.7896 5.75 12.7833C5.75 12.777 5.75 12.7707 5.75 12.7645C5.75 12.7582 5.75 12.752 5.75 12.7458C5.75 12.7395 5.75 12.7334 5.75 12.7272C5.75 12.721 5.75 12.7149 5.75 12.7088C5.75 12.7027 5.75 12.6966 5.75 12.6905C5.75 12.6845 5.75 12.6784 5.75 12.6724C5.75 12.6664 5.75 12.6604 5.75 12.6544C5.75 12.6484 5.75 12.6425 5.75 12.6365C5.75 12.6306 5.75 12.6247 5.75 12.6188C5.75 12.6129 5.75 12.6071 5.75 12.6012C5.75 12.5954 5.75 12.5896 5.75 12.5838C5.75 12.578 5.75 12.5722 5.75 12.5665C5.75 12.5607 5.75 12.555 5.75 12.5493C5.75 12.5436 5.75 12.5379 5.75 12.5323C5.75 12.5266 5.75 12.521 5.75 12.5154C5.75 12.5098 5.75 12.5042 5.75 12.4986C5.75 12.493 5.75 12.4875 5.75 12.482C5.75 12.4765 5.75 12.4709 5.75 12.4655C5.75 12.46 5.75 12.4545 5.75 12.4491C5.75 12.4437 5.75 12.4382 5.75 12.4329C5.75 12.4275 5.75 12.4221 5.75 12.4167C5.75 12.4114 5.75 12.4061 5.75 12.4008C5.75 12.3955 5.75 12.3902 5.75 12.3849C5.75 12.3797 5.75 12.3744 5.75 12.3692C5.75 12.364 5.75 12.3588 5.75 12.3536C5.75 12.3484 5.75 12.3433 5.75 12.3381C5.75 12.333 5.75 12.3279 5.75 12.3228C5.75 12.3177 5.75 12.3126 5.75 12.3076C5.75 12.3025 5.75 12.2975 5.75 12.2925C5.75 12.2875 5.75 12.2825 5.75 12.2775C5.75 12.2726 5.75 12.2676 5.75 12.2627C5.75 12.2578 5.75 12.2529 5.75 12.248C5.75 12.2431 5.75 12.2383 5.75 12.2334C5.75 12.2286 5.75 12.2238 5.75 12.219C5.75 12.2142 5.75 12.2094 5.75 12.2046C5.75 12.1999 5.75 12.1951 5.75 12.1904C5.75 12.1857 5.75 12.181 5.75 12.1763C5.75 12.1716 5.75 12.167 5.75 12.1623C5.75 12.1577 5.75 12.1531 5.75 12.1485C5.75 12.1439 5.75 12.1393 5.75 12.1347C5.75 12.1302 5.75 12.1256 5.75 12.1211C5.75 12.1166 5.75 12.1121 5.75 12.1076C5.75 12.1031 5.75 12.0987 5.75 12.0942C5.75 12.0898 5.75 12.0854 5.75 12.081C5.75 12.0766 5.75 12.0722 5.75 12.0678C5.75 12.0635 5.75 12.0591 5.75 12.0548C5.75 12.0505 5.75 12.0462 5.75 12.0419C5.75 12.0376 5.75 12.0333 5.75 12.0291C5.75 12.0248 5.75 12.0206 5.75 12.0164C5.75 12.0122 5.75 12.008 5.75 12.0038C5.75 11.9997 5.75 11.9955 5.75 11.9914C5.75 11.9872 5.75 11.9831 5.75 11.979C5.75 11.9749 5.75 11.9709 5.75 11.9668C5.75 11.9627 5.75 11.9587 5.75 11.9547C5.75 11.9507 5.75 11.9467 5.75 11.9427C5.75 11.9387 5.75 11.9347 5.75 11.9308C5.75 11.9268 5.75 11.9229 5.75 11.919C5.75 11.9151 5.75 11.9112 5.75 11.9073C5.75 11.9034 5.75 11.8996 5.75 11.8957C5.75 11.8919 5.75 11.8881 5.75 11.8843C5.75 11.8805 5.75 11.8767 5.75 11.8729C5.75 11.8691 5.75 11.8654 5.75 11.8617C5.75 11.8579 5.75 11.8542 5.75 11.8505C5.75 11.8468 5.75 11.8431 5.75 11.8395C5.75 11.8358 5.75 11.8322 5.75 11.8285C5.75 11.8249 5.75 11.8213 5.75 11.8177C5.75 11.8141 5.75 11.8106 5.75 11.807C5.75 11.8034 5.75 11.7999 5.75 11.7964C5.75 11.7929 5.75 11.7893 5.75 11.7859C5.75 11.7824 5.75 11.7789 5.75 11.7754C5.75 11.772 5.75 11.7686 5.75 11.7651C5.75 11.7617 5.75 11.7583 5.75 11.7549C5.75 11.7515 5.75 11.7482 5.75 11.7448C5.75 11.7415 5.75 11.7381 5.75 11.7348C5.75 11.7315 5.75 11.7282 5.75 11.7249C5.75 11.7216 5.75 11.7183 5.75 11.7151C5.75 11.7118 5.75 11.7086 5.75 11.7054C5.75 11.7021 5.75 11.6989 5.75 11.6957C5.75 11.6925 5.75 11.6894 5.75 11.6862C5.75 11.6831 5.75 11.6799 5.75 11.6768C5.75 11.6737 5.75 11.6706 5.75 11.6675C5.75 11.6644 5.75 11.6613 5.75 11.6582C5.75 11.6552 5.75 11.6521 5.75 11.6491C5.75 11.6461 5.75 11.6431 5.75 11.6401C5.75 11.6371 5.75 11.6341 5.75 11.6311C5.75 11.6281 5.75 11.6252 5.75 11.6222C5.75 11.6193 5.75 11.6164 5.75 11.6135C5.75 11.6106 5.75 11.6077 5.75 11.6048C5.75 11.6019 5.75 11.5991 5.75 11.5962C5.75 11.5934 5.75 11.5906 5.75 11.5877C5.75 11.5849 5.75 11.5821 5.75 11.5793C5.75 11.5765 5.75 11.5738 5.75 11.571C5.75 11.5683 5.75 11.5655 5.75 11.5628C5.75 11.5601 5.75 11.5574 5.75 11.5547C5.75 11.552 5.75 11.5493 5.75 11.5466C5.75 11.544 5.75 11.5413 5.75 11.5387C5.75 11.536 5.75 11.5334 5.75 11.5308C5.75 11.5282 5.75 11.5256 5.75 11.523C5.75 11.5204 5.75 11.5179 5.75 11.5153C5.75 11.5127 5.75 11.5102 5.75 11.5077C5.75 11.5052 5.75 11.5026 5.75 11.5002C5.75 11.4977 5.75 11.4952 5.75 11.4927C5.75 11.4902 5.75 11.4878 5.75 11.4853C5.75 11.4829 5.75 11.4805 5.75 11.4781C5.75 11.4756 5.75 11.4732 5.75 11.4709C5.75 11.4685 5.75 11.4661 5.75 11.4637C5.75 11.4614 5.75 11.459 5.75 11.4567C5.75 11.4544 5.75 11.452 5.75 11.4497C5.75 11.4474 5.75 11.4451 5.75 11.4429C5.75 11.4406 5.75 11.4383 5.75 11.4361C5.75 11.4338 5.75 11.4316 5.75 11.4293C5.75 11.4271 5.75 11.4249 5.75 11.4227C5.75 11.4205 5.75 11.4183 5.75 11.4161C5.75 11.414 5.75 11.4118 5.75 11.4096C5.75 11.4075 5.75 11.4054 5.75 11.4032C5.75 11.4011 5.75 11.399 5.75 11.3969C5.75 11.3948 5.75 11.3927 5.75 11.3906C5.75 11.3885 5.75 11.3865 5.75 11.3844C5.75 11.3824 5.75 11.3803 5.75 11.3783C5.75 11.3763 5.75 11.3743 5.75 11.3723C5.75 11.3703 5.75 11.3683 5.75 11.3663C5.75 11.3643 5.75 11.3624 5.75 11.3604C5.75 11.3585 5.75 11.3565 5.75 11.3546C5.75 11.3527 5.75 11.3507 5.75 11.3488C5.75 11.3469 5.75 11.345 5.75 11.3432C5.75 11.3413 5.75 11.3394 5.75 11.3375C5.75 11.3357 5.75 11.3338 5.75 11.332C5.75 11.3302 5.75 11.3283 5.75 11.3265C5.75 11.3247 5.75 11.3229 5.75 11.3211C5.75 11.3193 5.75 11.3175 5.75 11.3158C5.75 11.314 5.75 11.3122 5.75 11.3105C5.75 11.3087 5.75 11.307 5.75 11.3053C5.75 11.3036 5.75 11.3018 5.75 11.3001C5.75 11.2984 5.75 11.2967 5.75 11.2951C5.75 11.2934 5.75 11.2917 5.75 11.2901C5.75 11.2884 5.75 11.2867 5.75 11.2851C5.75 11.2835 5.75 11.2818 5.75 11.2802C5.75 11.2786 5.75 11.277 5.75 11.2754C5.75 11.2738 5.75 11.2722 5.75 11.2706C5.75 11.2691 5.75 11.2675 5.75 11.2659C5.75 11.2644 5.75 11.2628 5.75 11.2613C5.75 11.2598 5.75 11.2582 5.75 11.2567C5.75 11.2552 5.75 11.2537 5.75 11.2522C5.75 11.2507 5.75 11.2492 5.75 11.2477C5.75 11.2463 5.75 11.2448 5.75 11.2433C5.75 11.2419 5.75 11.2404 5.75 11.239C5.75 11.2376 5.75 11.2361 5.75 11.2347C5.75 11.2333 5.75 11.2319 5.75 11.2305C5.75 11.2291 5.75 11.2277 5.75 11.2263C5.75 11.2249 5.75 11.2236 5.75 11.2222C5.75 11.2208 5.75 11.2195 5.75 11.2181C5.75 11.2168 5.75 11.2155 5.75 11.2141C5.75 11.2128 5.75 11.2115 5.75 11.2102C5.75 11.2089 5.75 11.2076 5.75 11.2063C5.75 11.205 5.75 11.2037 5.75 11.2024C5.75 11.2012 5.75 11.1999 5.75 11.1987C5.75 11.1974 5.75 11.1962 5.75 11.1949C5.75 11.1937 5.75 11.1924 5.75 11.1912C5.75 11.19 5.75 11.1888 5.75 11.1876C5.75 11.1864 5.75 11.1852 5.75 11.184C5.75 11.1828 5.75 11.1816 5.75 11.1805C5.75 11.1793 5.75 11.1781 5.75 11.177C5.75 11.1758 5.75 11.1747 5.75 11.1735C5.75 11.1724 5.75 11.1713 5.75 11.1701C5.75 11.169 5.75 11.1679 5.75 11.1668C5.75 11.1657 5.75 11.1646 5.75 11.1635C5.75 11.1624 5.75 11.1613 5.75 11.1602C5.75 11.1591 5.75 11.1581 5.75 11.157C5.75 11.1559 5.75 11.1549 5.75 11.1538C5.75 11.1528 5.75 11.1518 5.75 11.1507C5.75 11.1497 5.75 11.1487 5.75 11.1476C5.75 11.1466 5.75 11.1456 5.75 11.1446C5.75 11.1436 5.75 11.1426 5.75 11.1416C5.75 11.1406 5.75 11.1396 5.75 11.1387C5.75 11.1377 5.75 11.1367 5.75 11.1358C5.75 11.1348 5.75 11.1338 5.75 11.1329C5.75 11.1319 5.75 11.131 5.75 11.1301C5.75 11.1291 5.75 11.1282 5.75 11.1273C5.75 11.1264 5.75 11.1254 5.75 11.1245C5.75 11.1236 5.75 11.1227 5.75 11.1218C5.75 11.1209 5.75 11.12 5.75 11.1191C5.75 11.1183 5.75 11.1174 5.75 11.1165C5.75 11.1156 5.75 11.1148 5.75 11.1139C5.75 11.113 5.75 11.1122 5.75 11.1113C5.75 11.1105 5.75 11.1096 5.75 11.1088C5.75 11.108 5.75 11.1071 5.75 11.1063C5.75 11.1055 5.75 11.1047 5.75 11.1039C5.75 11.103 5.75 11.1022 5.75 11.1014C5.75 11.1006 5.75 11.0998 5.75 11.099C5.75 11.0982 5.75 11.0975 5.75 11.0967C5.75 11.0959 5.75 11.0951 5.75 11.0944C5.75 11.0936 5.75 11.0928 5.75 11.0921C5.75 11.0913 5.75 11.0905 5.75 11.0898C5.75 11.089 5.75 11.0883 5.75 11.0876C5.75 11.0868 5.75 11.0861 5.75 11.0853C5.75 11.0846 5.75 11.0839 5.75 11.0832C5.75 11.0825 5.75 11.0817 5.75 11.081C5.75 11.0803 5.75 11.0796 5.75 11.0789C5.75 11.0782 5.75 11.0775 5.75 11.0768C5.75 11.0761 5.75 11.0754 5.75 11.0747C5.75 11.0741 5.75 11.0734 5.75 11.0727C5.75 11.072 5.75 11.0714 5.75 11.0707C5.75 11.07 5.75 11.0694 5.75 11.0687C5.75 11.068 5.75 11.0674 5.75 11.0667C5.75 11.0661 5.75 11.0654 5.75 11.0648C5.75 11.0641 5.75 11.0635 5.75 11.0629C5.75 11.0622 5.75 11.0616 5.75 11.061C5.75 11.0604 5.75 11.0597 5.75 11.0591C5.75 11.0585 5.75 11.0579 5.75 11.0573C5.75 11.0566 5.75 11.056 5.75 11.0554C5.75 11.0548 5.75 11.0542 5.75 11.0536C5.75 11.053 5.75 11.0524 5.75 11.0518C5.75 11.0512 5.75 11.0506 5.75 11.05C5.75 11.0495 5.75 11.0489 5.75 11.0483C5.75 11.0477 5.75 11.0471 5.75 11.0466C5.75 11.046 5.75 11.0454 5.75 11.0448C5.75 11.0443 5.75 11.0437 5.75 11.0431C5.75 11.0426 5.75 11.042 5.75 11.0415C5.75 11.0409 5.75 11.0403 5.75 11.0398C5.75 11.0392 5.75 11.0387 5.75 11.0381C5.75 11.0376 5.75 11.037 5.75 11.0365C5.75 11.036 5.75 11.0354 5.75 11.0349C5.75 11.0343 5.75 11.0338 5.75 11.0333C5.75 11.0327 5.75 11.0322 5.75 11.0317C5.75 11.0311 5.75 11.0306 5.75 11.0301C5.75 11.0295 5.75 11.029 5.75 11.0285C5.75 11.028 5.75 11.0275 5.75 11.0269C5.75 11.0264 5.75 11.0259 5.75 11.0254C5.75 11.0249 5.75 11.0243 5.75 11.0238C5.75 11.0233 5.75 11.0228 5.75 11.0223C5.75 11.0218 5.75 11.0213 5.75 11.0208C5.75 11.0203 5.75 11.0198 5.75 11.0193C5.75 11.0188 5.75 11.0182 5.75 11.0177C5.75 11.0172 5.75 11.0167 5.75 11.0162C5.75 11.0157 5.75 11.0152 5.75 11.0147C5.75 11.0142 5.75 11.0138 5.75 11.0133C5.75 11.0128 5.75 11.0123 5.75 11.0118C5.75 11.0113 5.75 11.0108 5.75 11.0103C5.75 11.0098 5.75 11.0093 5.75 11.0088C5.75 11.0083 5.75 11.0078 5.75 11.0073C5.75 11.0068 5.75 11.0064 5.75 11.0059C5.75 11.0054 5.75 11.0049 5.75 11.0044C5.75 11.0039 5.75 11.0034 5.75 11.0029C5.75 11.0024 5.75 11.002 5.75 11.0015C5.75 11.001 5.75 11.0005 5.75 11C5.75 10.9995 5.75 10.999 5.75 10.9985C5.75 10.998 5.75 10.9976 5.75 10.9971C5.75 10.9966 5.75 10.9961 5.75 10.9956C5.75 10.9951 5.75 10.9946 5.75 10.9941C5.75 10.9936 5.75 10.9932 5.75 10.9927C5.75 10.9922 5.75 10.9917 5.75 10.9912C5.75 10.9907 5.75 10.9902 5.75 10.9897C5.75 10.9892 5.75 10.9887 5.75 10.9882C5.75 10.9877 5.75 10.9872 5.75 10.9867C5.75 10.9862 5.75 10.9858 5.75 10.9853C5.75 10.9848 5.75 10.9843 5.75 10.9838C5.75 10.9833 5.75 10.9828 5.75 10.9823C5.75 10.9818 5.75 10.9812 5.75 10.9807C5.75 10.9802 5.75 10.9797 5.75 10.9792C5.75 10.9787 5.75 10.9782 5.75 10.9777C5.75 10.9772 5.75 10.9767 5.75 10.9762C5.75 10.9757 5.75 10.9751 5.75 10.9746C5.75 10.9741 5.75 10.9736 5.75 10.9731C5.75 10.9725 5.75 10.972 5.75 10.9715C5.75 10.971 5.75 10.9705 5.75 10.9699C5.75 10.9694 5.75 10.9689 5.75 10.9683C5.75 10.9678 5.75 10.9673 5.75 10.9667C5.75 10.9662 5.75 10.9657 5.75 10.9651C5.75 10.9646 5.75 10.964 5.75 10.9635C5.75 10.963 5.75 10.9624 5.75 10.9619C5.75 10.9613 5.75 10.9608 5.75 10.9602C5.75 10.9597 5.75 10.9591 5.75 10.9585C5.75 10.958 5.75 10.9574 5.75 10.9569C5.75 10.9563 5.75 10.9557 5.75 10.9552C5.75 10.9546 5.75 10.954 5.75 10.9534C5.75 10.9529 5.75 10.9523 5.75 10.9517C5.75 10.9511 5.75 10.9505 5.75 10.95C5.75 10.9494 5.75 10.9488 5.75 10.9482C5.75 10.9476 5.75 10.947 5.75 10.9464C5.75 10.9458 5.75 10.9452 5.75 10.9446C5.75 10.944 5.75 10.9434 5.75 10.9427C5.75 10.9421 5.75 10.9415 5.75 10.9409C5.75 10.9403 5.75 10.9396 5.75 10.939C5.75 10.9384 5.75 10.9378 5.75 10.9371C5.75 10.9365 5.75 10.9359 5.75 10.9352C5.75 10.9346 5.75 10.9339 5.75 10.9333C5.75 10.9326 5.75 10.932 5.75 10.9313C5.75 10.9306 5.75 10.93 5.75 10.9293C5.75 10.9286 5.75 10.928 5.75 10.9273C5.75 10.9266 5.75 10.9259 5.75 10.9253C5.75 10.9246 5.75 10.9239 5.75 10.9232C5.75 10.9225 5.75 10.9218 5.75 10.9211C5.75 10.9204 5.75 10.9197 5.75 10.919C5.75 10.9183 5.75 10.9175 5.75 10.9168C5.75 10.9161 5.75 10.9154 5.75 10.9147C5.75 10.9139 5.75 10.9132 5.75 10.9124C5.75 10.9117 5.75 10.911 5.75 10.9102C5.75 10.9095 5.75 10.9087 5.75 10.9079C5.75 10.9072 5.75 10.9064 5.75 10.9056C5.75 10.9049 5.75 10.9041 5.75 10.9033C5.75 10.9025 5.75 10.9018 5.75 10.901C5.75 10.9002 5.75 10.8994 5.75 10.8986C5.75 10.8978 5.75 10.897 5.75 10.8961C5.75 10.8953 5.75 10.8945 5.75 10.8937C5.75 10.8929 5.75 10.892 5.75 10.8912C5.75 10.8904 5.75 10.8895 5.75 10.8887C5.75 10.8878 5.75 10.887 5.75 10.8861C5.75 10.8852 5.75 10.8844 5.75 10.8835C5.75 10.8826 5.75 10.8817 5.75 10.8809C5.75 10.88 5.75 10.8791 5.75 10.8782C5.75 10.8773 5.75 10.8764 5.75 10.8755C5.75 10.8746 5.75 10.8736 5.75 10.8727C5.75 10.8718 5.75 10.8709 5.75 10.8699C5.75 10.869 5.75 10.8681 5.75 10.8671C5.75 10.8662 5.75 10.8652 5.75 10.8642C5.75 10.8633 5.75 10.8623 5.75 10.8613C5.75 10.8604 5.75 10.8594 5.75 10.8584C5.75 10.8574 5.75 10.8564 5.75 10.8554C5.75 10.8544 5.75 10.8534 5.75 10.8524C5.75 10.8513 5.75 10.8503 5.75 10.8493C5.75 10.8482 5.75 10.8472 5.75 10.8462C5.75 10.8451 5.75 10.8441 5.75 10.843C5.75 10.8419 5.75 10.8409 5.75 10.8398C5.75 10.8387 5.75 10.8376 5.75 10.8365C5.75 10.8354 5.75 10.8343 5.75 10.8332C5.75 10.8321 5.75 10.831 5.75 10.8299C5.75 10.8287 5.75 10.8276 5.75 10.8265C5.75 10.8253 5.75 10.8242 5.75 10.823C5.75 10.8219 5.75 10.8207 5.75 10.8195C5.75 10.8184 5.75 10.8172 5.75 10.816C5.75 10.8148 5.75 10.8136 5.75 10.8124C5.75 10.8112 5.75 10.81 5.75 10.8088C5.75 10.8076 5.75 10.8063 5.75 10.8051C5.75 10.8038 5.75 10.8026 5.75 10.8013C5.75 10.8001 5.75 10.7988 5.75 10.7976C5.75 10.7963 5.75 10.795 5.75 10.7937C5.75 10.7924 5.75 10.7911 5.75 10.7898C5.75 10.7885 5.75 10.7872 5.75 10.7859C5.75 10.7845 5.75 10.7832 5.75 10.7819C5.75 10.7805 5.75 10.7792 5.75 10.7778C5.75 10.7764 5.75 10.7751 5.75 10.7737C5.75 10.7723 5.75 10.7709 5.75 10.7695C5.75 10.7681 5.75 10.7667 5.75 10.7653C5.75 10.7639 5.75 10.7624 5.75 10.761C5.75 10.7596 5.75 10.7581 5.75 10.7567C5.75 10.7552 5.75 10.7537 5.75 10.7523C5.75 10.7508 5.75 10.7493 5.75 10.7478C5.75 10.7463 5.75 10.7448 5.75 10.7433C5.75 10.7418 5.75 10.7402 5.75 10.7387C5.75 10.7372 5.75 10.7356 5.75 10.7341C5.75 10.7325 5.75 10.7309 5.75 10.7294C5.75 10.7278 5.75 10.7262 5.75 10.7246C5.75 10.723 5.75 10.7214 5.75 10.7198C5.75 10.7182 5.75 10.7165 5.75 10.7149C5.75 10.7133 5.75 10.7116 5.75 10.7099C5.75 10.7083 5.75 10.7066 5.75 10.7049C5.75 10.7033 5.75 10.7016 5.75 10.6999C5.75 10.6982 5.75 10.6964 5.75 10.6947C5.75 10.693 5.75 10.6913 5.75 10.6895C5.75 10.6878 5.75 10.686 5.75 10.6842C5.75 10.6825 5.75 10.6807 5.75 10.6789C5.75 10.6771 5.75 10.6753 5.75 10.6735C5.75 10.6717 5.75 10.6698 5.75 10.668C5.75 10.6662 5.75 10.6643 5.75 10.6625C5.75 10.6606 5.75 10.6587 5.75 10.6568C5.75 10.655 5.75 10.6531 5.75 10.6512C5.75 10.6493 5.75 10.6473 5.75 10.6454C5.75 10.6435 5.75 10.6415 5.75 10.6396C5.75 10.6376 5.75 10.6357 5.75 10.6337C5.75 10.6317 5.75 10.6297 5.75 10.6277C5.75 10.6257 5.75 10.6237 5.75 10.6217C5.75 10.6197 5.75 10.6176 5.75 10.6156C5.75 10.6135 5.75 10.6115 5.75 10.6094C5.75 10.6073 5.75 10.6052 5.75 10.6031C5.75 10.601 5.75 10.5989 5.75 10.5968C5.75 10.5946 5.75 10.5925 5.75 10.5904C5.75 10.5882 5.75 10.586 5.75 10.5839C5.75 10.5817 5.75 10.5795 5.75 10.5773C5.75 10.5751 5.75 10.5729 5.75 10.5707C5.75 10.5684 5.75 10.5662 5.75 10.5639C5.75 10.5617 5.75 10.5594 5.75 10.5571C5.75 10.5549 5.75 10.5526 5.75 10.5503C5.75 10.548 5.75 10.5456 5.75 10.5433C5.75 10.541 5.75 10.5386 5.75 10.5363C5.75 10.5339 5.75 10.5315 5.75 10.5291C5.75 10.5268 5.75 10.5244 5.75 10.5219C5.75 10.5195 5.75 10.5171 5.75 10.5147C5.75 10.5122 5.75 10.5098 5.75 10.5073C5.75 10.5048 5.75 10.5023 5.75 10.4998C5.75 10.4974 5.75 10.4948 5.75 10.4923C5.75 10.4898 5.75 10.4873 5.75 10.4847C5.75 10.4821 5.75 10.4796 5.75 10.477C5.75 10.4744 5.75 10.4718 5.75 10.4692C5.75 10.4666 5.75 10.464 5.75 10.4613C5.75 10.4587 5.75 10.456 5.75 10.4534C5.75 10.4507 5.75 10.448 5.75 10.4453C5.75 10.4426 5.75 10.4399 5.75 10.4372C5.75 10.4345 5.75 10.4317 5.75 10.429C5.75 10.4262 5.75 10.4235 5.75 10.4207C5.75 10.4179 5.75 10.4151 5.75 10.4123C5.75 10.4094 5.75 10.4066 5.75 10.4038C5.75 10.4009 5.75 10.3981 5.75 10.3952C5.75 10.3923 5.75 10.3894 5.75 10.3865C5.75 10.3836 5.75 10.3807 5.75 10.3778C5.75 10.3748 5.75 10.3719 5.75 10.3689C5.75 10.3659 5.75 10.3629 5.75 10.3599C5.75 10.3569 5.75 10.3539 5.75 10.3509C5.75 10.3479 5.75 10.3448 5.75 10.3418C5.75 10.3387 5.75 10.3356 5.75 10.3325C5.75 10.3294 5.75 10.3263 5.75 10.3232C5.75 10.3201 5.75 10.3169 5.75 10.3138C5.75 10.3106 5.75 10.3075 5.75 10.3043C5.75 10.3011 5.75 10.2979 5.75 10.2946C5.75 10.2914 5.75 10.2882 5.75 10.2849C5.75 10.2817 5.75 10.2784 5.75 10.2751C5.75 10.2718 5.75 10.2685 5.75 10.2652C5.75 10.2619 5.75 10.2585 5.75 10.2552C5.75 10.2518 5.75 10.2485 5.75 10.2451C5.75 10.2417 5.75 10.2383 5.75 10.2349C5.75 10.2314 5.75 10.228 5.75 10.2246C5.75 10.2211 5.75 10.2176 5.75 10.2141C5.75 10.2107 5.75 10.2071 5.75 10.2036C5.75 10.2001 5.75 10.1966 5.75 10.193C5.75 10.1894 5.75 10.1859 5.75 10.1823C5.75 10.1787 5.75 10.1751 5.75 10.1715C5.75 10.1678 5.75 10.1642 5.75 10.1605C5.75 10.1569 5.75 10.1532 5.75 10.1495C5.75 10.1458 5.75 10.1421 5.75 10.1383C5.75 10.1346 5.75 10.1309 5.75 10.1271C5.75 10.1233 5.75 10.1195 5.75 10.1157C5.75 10.1119 5.75 10.1081 5.75 10.1043C5.75 10.1004 5.75 10.0966 5.75 10.0927C5.75 10.0888 5.75 10.0849 5.75 10.081C5.75 10.0771 5.75 10.0732 5.75 10.0692C5.75 10.0653 5.75 10.0613 5.75 10.0573C5.75 10.0533 5.75 10.0493 5.75 10.0453C5.75 10.0413 5.75 10.0373 5.75 10.0332C5.75 10.0291 5.75 10.0251 5.75 10.021C5.75 10.0169 5.75 10.0128 5.75 10.0086C5.75 10.0045 5.75 10.0003 5.75 9.99617C5.75 9.992 5.75 9.98781 5.75 9.9836C5.75 9.97939 5.75 9.97516 5.75 9.97091C5.75 9.96667 5.75 9.9624 5.75 9.95811C5.75 9.95383 5.75 9.94952 5.75 9.9452C5.75 9.94088 5.75 9.93653 5.75 9.93217C5.75 9.92781 5.75 9.92343 5.75 9.91902C5.75 9.91462 5.75 9.9102 5.75 9.90576C5.75 9.90132 5.75 9.89686 5.75 9.89238C5.75 9.8879 5.75 9.8834 5.75 9.87888C5.75 9.87436 5.75 9.86983 5.75 9.86527C5.75 9.86071 5.75 9.85613 5.75 9.85153C5.75 9.84693 5.75 9.84231 5.75 9.83768C5.75 9.83304 5.75 9.82838 5.75 9.8237C5.75 9.81902 5.75 9.81432 5.75 9.8096C5.75 9.80488 5.75 9.80014 5.75 9.79539C5.75 9.79063 5.75 9.78585 5.75 9.78104C5.75 9.77624 5.75 9.77142 5.75 9.76658C5.75 9.76174 5.75 9.75688 5.75 9.752C5.75 9.74711 5.75 9.74221 5.75 9.73729C5.75 9.73236 5.75 9.72742 5.75 9.72245C5.75 9.71749 5.75 9.7125 5.75 9.70749C5.75 9.70249 5.75 9.69746 5.75 9.69241C5.75 9.68736 5.75 9.68229 5.75 9.6772C5.75 9.67211 5.75 9.66699 5.75 9.66186C5.75 9.65673 5.75 9.65157 5.75 9.6464C5.75 9.64122 5.75 9.63602 5.75 9.6308C5.75 9.62558 5.75 9.62034 5.75 9.61508C5.75 9.60982 5.75 9.60454 5.75 9.59923C5.75 9.59393 5.75 9.5886 5.75 9.58325C5.75 9.5779 5.75 9.57253 5.75 9.56714C5.75 9.56175 5.75 9.55634 5.75 9.5509C5.75 9.54547 5.75 9.54001 5.75 9.53453C5.75 9.52905 5.75 9.52355 5.75 9.51803C5.75 9.5125 5.75 9.50696 5.75 9.50139C5.75 9.49582 5.75 9.49023 5.75 9.48462C5.75 9.47901 5.75 9.47337 5.75 9.46772C5.75 9.46206 5.75 9.45638 5.75 9.45068C5.75 9.44498 5.75 9.43925 5.75 9.43351C5.75 9.42776 5.75 9.42199 5.75 9.4162C5.75 9.41041 5.75 9.40459 5.75 9.39876C5.75 9.39292 5.75 9.38706 5.75 9.38118C5.75 9.37529 5.75 9.36939 5.75 9.36346C5.75 9.35753 5.75 9.35158 5.75 9.3456C5.75 9.33963 5.75 9.33363 5.75 9.32761C5.75 9.32159 5.75 9.31555 5.75 9.30948C5.75 9.30341 5.75 9.29732 5.75 9.29121C5.75 9.28509 5.75 9.27896 5.75 9.2728C5.75 9.26663 5.75 9.26045 5.75 9.25424C5.75 9.24804 5.75 9.2418 5.75 9.23555C5.75 9.22929 5.75 9.22302 5.75 9.21671C5.75 9.21041 5.75 9.20409 5.75 9.19774C5.75 9.19139 5.75 9.18501 5.75 9.17862C5.75 9.17222 5.75 9.1658 5.75 9.15935C5.75 9.15291 5.75 9.14644 5.75 9.13994C5.75 9.13345 5.75 9.12693 5.75 9.12039C5.75 9.11385 5.75 9.10728 5.75 9.10069C5.75 9.0941 5.75 9.08749 5.75 9.08085C5.75 9.07421 5.75 9.06754 5.75 9.06086C5.75 9.05417 5.75 9.04746 5.75 9.04072C5.75 9.03398 5.75 9.02722 5.75 9.02043C5.75 9.01365 5.75 9.00684 5.75 9H4.25C4.25 9.00684 4.25 9.01365 4.25 9.02043C4.25 9.02722 4.25 9.03398 4.25 9.04072C4.25 9.04746 4.25 9.05417 4.25 9.06086C4.25 9.06754 4.25 9.07421 4.25 9.08085C4.25 9.08749 4.25 9.0941 4.25 9.10069C4.25 9.10728 4.25 9.11385 4.25 9.12039C4.25 9.12693 4.25 9.13345 4.25 9.13994C4.25 9.14644 4.25 9.15291 4.25 9.15935C4.25 9.1658 4.25 9.17222 4.25 9.17862C4.25 9.18501 4.25 9.19139 4.25 9.19774C4.25 9.20409 4.25 9.21041 4.25 9.21671C4.25 9.22302 4.25 9.22929 4.25 9.23555C4.25 9.2418 4.25 9.24804 4.25 9.25424C4.25 9.26045 4.25 9.26663 4.25 9.2728C4.25 9.27896 4.25 9.28509 4.25 9.29121C4.25 9.29732 4.25 9.30341 4.25 9.30948C4.25 9.31555 4.25 9.32159 4.25 9.32761C4.25 9.33363 4.25 9.33963 4.25 9.3456C4.25 9.35158 4.25 9.35753 4.25 9.36346C4.25 9.36939 4.25 9.37529 4.25 9.38118C4.25 9.38706 4.25 9.39292 4.25 9.39876C4.25 9.40459 4.25 9.41041 4.25 9.4162C4.25 9.42199 4.25 9.42776 4.25 9.43351C4.25 9.43925 4.25 9.44498 4.25 9.45068C4.25 9.45638 4.25 9.46206 4.25 9.46772C4.25 9.47337 4.25 9.47901 4.25 9.48462C4.25 9.49023 4.25 9.49582 4.25 9.50139C4.25 9.50696 4.25 9.5125 4.25 9.51803C4.25 9.52355 4.25 9.52905 4.25 9.53453C4.25 9.54001 4.25 9.54547 4.25 9.5509C4.25 9.55634 4.25 9.56175 4.25 9.56714C4.25 9.57253 4.25 9.5779 4.25 9.58325C4.25 9.5886 4.25 9.59393 4.25 9.59923C4.25 9.60454 4.25 9.60982 4.25 9.61508C4.25 9.62034 4.25 9.62558 4.25 9.6308C4.25 9.63602 4.25 9.64122 4.25 9.6464C4.25 9.65157 4.25 9.65673 4.25 9.66186C4.25 9.66699 4.25 9.67211 4.25 9.6772C4.25 9.68229 4.25 9.68736 4.25 9.69241C4.25 9.69746 4.25 9.70249 4.25 9.70749C4.25 9.7125 4.25 9.71749 4.25 9.72245C4.25 9.72742 4.25 9.73236 4.25 9.73729C4.25 9.74221 4.25 9.74711 4.25 9.752C4.25 9.75688 4.25 9.76174 4.25 9.76658C4.25 9.77142 4.25 9.77624 4.25 9.78104C4.25 9.78585 4.25 9.79063 4.25 9.79539C4.25 9.80014 4.25 9.80488 4.25 9.8096C4.25 9.81432 4.25 9.81902 4.25 9.8237C4.25 9.82838 4.25 9.83304 4.25 9.83768C4.25 9.84231 4.25 9.84693 4.25 9.85153C4.25 9.85613 4.25 9.86071 4.25 9.86527C4.25 9.86983 4.25 9.87436 4.25 9.87888C4.25 9.8834 4.25 9.8879 4.25 9.89238C4.25 9.89686 4.25 9.90132 4.25 9.90576C4.25 9.9102 4.25 9.91462 4.25 9.91902C4.25 9.92343 4.25 9.92781 4.25 9.93217C4.25 9.93653 4.25 9.94088 4.25 9.9452C4.25 9.94952 4.25 9.95383 4.25 9.95811C4.25 9.9624 4.25 9.96667 4.25 9.97091C4.25 9.97516 4.25 9.97939 4.25 9.9836C4.25 9.98781 4.25 9.992 4.25 9.99617C4.25 10.0003 4.25 10.0045 4.25 10.0086C4.25 10.0128 4.25 10.0169 4.25 10.021C4.25 10.0251 4.25 10.0291 4.25 10.0332C4.25 10.0373 4.25 10.0413 4.25 10.0453C4.25 10.0493 4.25 10.0533 4.25 10.0573C4.25 10.0613 4.25 10.0653 4.25 10.0692C4.25 10.0732 4.25 10.0771 4.25 10.081C4.25 10.0849 4.25 10.0888 4.25 10.0927C4.25 10.0966 4.25 10.1004 4.25 10.1043C4.25 10.1081 4.25 10.1119 4.25 10.1157C4.25 10.1195 4.25 10.1233 4.25 10.1271C4.25 10.1309 4.25 10.1346 4.25 10.1383C4.25 10.1421 4.25 10.1458 4.25 10.1495C4.25 10.1532 4.25 10.1569 4.25 10.1605C4.25 10.1642 4.25 10.1678 4.25 10.1715C4.25 10.1751 4.25 10.1787 4.25 10.1823C4.25 10.1859 4.25 10.1894 4.25 10.193C4.25 10.1966 4.25 10.2001 4.25 10.2036C4.25 10.2071 4.25 10.2107 4.25 10.2141C4.25 10.2176 4.25 10.2211 4.25 10.2246C4.25 10.228 4.25 10.2314 4.25 10.2349C4.25 10.2383 4.25 10.2417 4.25 10.2451C4.25 10.2485 4.25 10.2518 4.25 10.2552C4.25 10.2585 4.25 10.2619 4.25 10.2652C4.25 10.2685 4.25 10.2718 4.25 10.2751C4.25 10.2784 4.25 10.2817 4.25 10.2849C4.25 10.2882 4.25 10.2914 4.25 10.2946C4.25 10.2979 4.25 10.3011 4.25 10.3043C4.25 10.3075 4.25 10.3106 4.25 10.3138C4.25 10.3169 4.25 10.3201 4.25 10.3232C4.25 10.3263 4.25 10.3294 4.25 10.3325C4.25 10.3356 4.25 10.3387 4.25 10.3418C4.25 10.3448 4.25 10.3479 4.25 10.3509C4.25 10.3539 4.25 10.3569 4.25 10.3599C4.25 10.3629 4.25 10.3659 4.25 10.3689C4.25 10.3719 4.25 10.3748 4.25 10.3778C4.25 10.3807 4.25 10.3836 4.25 10.3865C4.25 10.3894 4.25 10.3923 4.25 10.3952C4.25 10.3981 4.25 10.4009 4.25 10.4038C4.25 10.4066 4.25 10.4094 4.25 10.4123C4.25 10.4151 4.25 10.4179 4.25 10.4207C4.25 10.4235 4.25 10.4262 4.25 10.429C4.25 10.4317 4.25 10.4345 4.25 10.4372C4.25 10.4399 4.25 10.4426 4.25 10.4453C4.25 10.448 4.25 10.4507 4.25 10.4534C4.25 10.456 4.25 10.4587 4.25 10.4613C4.25 10.464 4.25 10.4666 4.25 10.4692C4.25 10.4718 4.25 10.4744 4.25 10.477C4.25 10.4796 4.25 10.4821 4.25 10.4847C4.25 10.4873 4.25 10.4898 4.25 10.4923C4.25 10.4948 4.25 10.4974 4.25 10.4998C4.25 10.5023 4.25 10.5048 4.25 10.5073C4.25 10.5098 4.25 10.5122 4.25 10.5147C4.25 10.5171 4.25 10.5195 4.25 10.5219C4.25 10.5244 4.25 10.5268 4.25 10.5291C4.25 10.5315 4.25 10.5339 4.25 10.5363C4.25 10.5386 4.25 10.541 4.25 10.5433C4.25 10.5456 4.25 10.548 4.25 10.5503C4.25 10.5526 4.25 10.5549 4.25 10.5571C4.25 10.5594 4.25 10.5617 4.25 10.5639C4.25 10.5662 4.25 10.5684 4.25 10.5707C4.25 10.5729 4.25 10.5751 4.25 10.5773C4.25 10.5795 4.25 10.5817 4.25 10.5839C4.25 10.586 4.25 10.5882 4.25 10.5904C4.25 10.5925 4.25 10.5946 4.25 10.5968C4.25 10.5989 4.25 10.601 4.25 10.6031C4.25 10.6052 4.25 10.6073 4.25 10.6094C4.25 10.6115 4.25 10.6135 4.25 10.6156C4.25 10.6176 4.25 10.6197 4.25 10.6217C4.25 10.6237 4.25 10.6257 4.25 10.6277C4.25 10.6297 4.25 10.6317 4.25 10.6337C4.25 10.6357 4.25 10.6376 4.25 10.6396C4.25 10.6415 4.25 10.6435 4.25 10.6454C4.25 10.6473 4.25 10.6493 4.25 10.6512C4.25 10.6531 4.25 10.655 4.25 10.6568C4.25 10.6587 4.25 10.6606 4.25 10.6625C4.25 10.6643 4.25 10.6662 4.25 10.668C4.25 10.6698 4.25 10.6717 4.25 10.6735C4.25 10.6753 4.25 10.6771 4.25 10.6789C4.25 10.6807 4.25 10.6825 4.25 10.6842C4.25 10.686 4.25 10.6878 4.25 10.6895C4.25 10.6913 4.25 10.693 4.25 10.6947C4.25 10.6964 4.25 10.6982 4.25 10.6999C4.25 10.7016 4.25 10.7033 4.25 10.7049C4.25 10.7066 4.25 10.7083 4.25 10.7099C4.25 10.7116 4.25 10.7133 4.25 10.7149C4.25 10.7165 4.25 10.7182 4.25 10.7198C4.25 10.7214 4.25 10.723 4.25 10.7246C4.25 10.7262 4.25 10.7278 4.25 10.7294C4.25 10.7309 4.25 10.7325 4.25 10.7341C4.25 10.7356 4.25 10.7372 4.25 10.7387C4.25 10.7402 4.25 10.7418 4.25 10.7433C4.25 10.7448 4.25 10.7463 4.25 10.7478C4.25 10.7493 4.25 10.7508 4.25 10.7523C4.25 10.7537 4.25 10.7552 4.25 10.7567C4.25 10.7581 4.25 10.7596 4.25 10.761C4.25 10.7624 4.25 10.7639 4.25 10.7653C4.25 10.7667 4.25 10.7681 4.25 10.7695C4.25 10.7709 4.25 10.7723 4.25 10.7737C4.25 10.7751 4.25 10.7764 4.25 10.7778C4.25 10.7792 4.25 10.7805 4.25 10.7819C4.25 10.7832 4.25 10.7845 4.25 10.7859C4.25 10.7872 4.25 10.7885 4.25 10.7898C4.25 10.7911 4.25 10.7924 4.25 10.7937C4.25 10.795 4.25 10.7963 4.25 10.7976C4.25 10.7988 4.25 10.8001 4.25 10.8013C4.25 10.8026 4.25 10.8038 4.25 10.8051C4.25 10.8063 4.25 10.8076 4.25 10.8088C4.25 10.81 4.25 10.8112 4.25 10.8124C4.25 10.8136 4.25 10.8148 4.25 10.816C4.25 10.8172 4.25 10.8184 4.25 10.8195C4.25 10.8207 4.25 10.8219 4.25 10.823C4.25 10.8242 4.25 10.8253 4.25 10.8265C4.25 10.8276 4.25 10.8287 4.25 10.8299C4.25 10.831 4.25 10.8321 4.25 10.8332C4.25 10.8343 4.25 10.8354 4.25 10.8365C4.25 10.8376 4.25 10.8387 4.25 10.8398C4.25 10.8409 4.25 10.8419 4.25 10.843C4.25 10.8441 4.25 10.8451 4.25 10.8462C4.25 10.8472 4.25 10.8482 4.25 10.8493C4.25 10.8503 4.25 10.8513 4.25 10.8524C4.25 10.8534 4.25 10.8544 4.25 10.8554C4.25 10.8564 4.25 10.8574 4.25 10.8584C4.25 10.8594 4.25 10.8604 4.25 10.8613C4.25 10.8623 4.25 10.8633 4.25 10.8642C4.25 10.8652 4.25 10.8662 4.25 10.8671C4.25 10.8681 4.25 10.869 4.25 10.8699C4.25 10.8709 4.25 10.8718 4.25 10.8727C4.25 10.8736 4.25 10.8746 4.25 10.8755C4.25 10.8764 4.25 10.8773 4.25 10.8782C4.25 10.8791 4.25 10.88 4.25 10.8809C4.25 10.8817 4.25 10.8826 4.25 10.8835C4.25 10.8844 4.25 10.8852 4.25 10.8861C4.25 10.887 4.25 10.8878 4.25 10.8887C4.25 10.8895 4.25 10.8904 4.25 10.8912C4.25 10.892 4.25 10.8929 4.25 10.8937C4.25 10.8945 4.25 10.8953 4.25 10.8961C4.25 10.897 4.25 10.8978 4.25 10.8986C4.25 10.8994 4.25 10.9002 4.25 10.901C4.25 10.9018 4.25 10.9025 4.25 10.9033C4.25 10.9041 4.25 10.9049 4.25 10.9056C4.25 10.9064 4.25 10.9072 4.25 10.9079C4.25 10.9087 4.25 10.9095 4.25 10.9102C4.25 10.911 4.25 10.9117 4.25 10.9124C4.25 10.9132 4.25 10.9139 4.25 10.9147C4.25 10.9154 4.25 10.9161 4.25 10.9168C4.25 10.9175 4.25 10.9183 4.25 10.919C4.25 10.9197 4.25 10.9204 4.25 10.9211C4.25 10.9218 4.25 10.9225 4.25 10.9232C4.25 10.9239 4.25 10.9246 4.25 10.9253C4.25 10.9259 4.25 10.9266 4.25 10.9273C4.25 10.928 4.25 10.9286 4.25 10.9293C4.25 10.93 4.25 10.9306 4.25 10.9313C4.25 10.932 4.25 10.9326 4.25 10.9333C4.25 10.9339 4.25 10.9346 4.25 10.9352C4.25 10.9359 4.25 10.9365 4.25 10.9371C4.25 10.9378 4.25 10.9384 4.25 10.939C4.25 10.9396 4.25 10.9403 4.25 10.9409C4.25 10.9415 4.25 10.9421 4.25 10.9427C4.25 10.9434 4.25 10.944 4.25 10.9446C4.25 10.9452 4.25 10.9458 4.25 10.9464C4.25 10.947 4.25 10.9476 4.25 10.9482C4.25 10.9488 4.25 10.9494 4.25 10.95C4.25 10.9505 4.25 10.9511 4.25 10.9517C4.25 10.9523 4.25 10.9529 4.25 10.9534C4.25 10.954 4.25 10.9546 4.25 10.9552C4.25 10.9557 4.25 10.9563 4.25 10.9569C4.25 10.9574 4.25 10.958 4.25 10.9585C4.25 10.9591 4.25 10.9597 4.25 10.9602C4.25 10.9608 4.25 10.9613 4.25 10.9619C4.25 10.9624 4.25 10.963 4.25 10.9635C4.25 10.964 4.25 10.9646 4.25 10.9651C4.25 10.9657 4.25 10.9662 4.25 10.9667C4.25 10.9673 4.25 10.9678 4.25 10.9683C4.25 10.9689 4.25 10.9694 4.25 10.9699C4.25 10.9705 4.25 10.971 4.25 10.9715C4.25 10.972 4.25 10.9725 4.25 10.9731C4.25 10.9736 4.25 10.9741 4.25 10.9746C4.25 10.9751 4.25 10.9757 4.25 10.9762C4.25 10.9767 4.25 10.9772 4.25 10.9777C4.25 10.9782 4.25 10.9787 4.25 10.9792C4.25 10.9797 4.25 10.9802 4.25 10.9807C4.25 10.9812 4.25 10.9818 4.25 10.9823C4.25 10.9828 4.25 10.9833 4.25 10.9838C4.25 10.9843 4.25 10.9848 4.25 10.9853C4.25 10.9858 4.25 10.9862 4.25 10.9867C4.25 10.9872 4.25 10.9877 4.25 10.9882C4.25 10.9887 4.25 10.9892 4.25 10.9897C4.25 10.9902 4.25 10.9907 4.25 10.9912C4.25 10.9917 4.25 10.9922 4.25 10.9927C4.25 10.9932 4.25 10.9936 4.25 10.9941C4.25 10.9946 4.25 10.9951 4.25 10.9956C4.25 10.9961 4.25 10.9966 4.25 10.9971C4.25 10.9976 4.25 10.998 4.25 10.9985C4.25 10.999 4.25 10.9995 4.25 11C4.25 11.0005 4.25 11.001 4.25 11.0015C4.25 11.002 4.25 11.0024 4.25 11.0029C4.25 11.0034 4.25 11.0039 4.25 11.0044C4.25 11.0049 4.25 11.0054 4.25 11.0059C4.25 11.0064 4.25 11.0068 4.25 11.0073C4.25 11.0078 4.25 11.0083 4.25 11.0088C4.25 11.0093 4.25 11.0098 4.25 11.0103C4.25 11.0108 4.25 11.0113 4.25 11.0118C4.25 11.0123 4.25 11.0128 4.25 11.0133C4.25 11.0138 4.25 11.0142 4.25 11.0147C4.25 11.0152 4.25 11.0157 4.25 11.0162C4.25 11.0167 4.25 11.0172 4.25 11.0177C4.25 11.0182 4.25 11.0188 4.25 11.0193C4.25 11.0198 4.25 11.0203 4.25 11.0208C4.25 11.0213 4.25 11.0218 4.25 11.0223C4.25 11.0228 4.25 11.0233 4.25 11.0238C4.25 11.0243 4.25 11.0249 4.25 11.0254C4.25 11.0259 4.25 11.0264 4.25 11.0269C4.25 11.0275 4.25 11.028 4.25 11.0285C4.25 11.029 4.25 11.0295 4.25 11.0301C4.25 11.0306 4.25 11.0311 4.25 11.0317C4.25 11.0322 4.25 11.0327 4.25 11.0333C4.25 11.0338 4.25 11.0343 4.25 11.0349C4.25 11.0354 4.25 11.036 4.25 11.0365C4.25 11.037 4.25 11.0376 4.25 11.0381C4.25 11.0387 4.25 11.0392 4.25 11.0398C4.25 11.0403 4.25 11.0409 4.25 11.0415C4.25 11.042 4.25 11.0426 4.25 11.0431C4.25 11.0437 4.25 11.0443 4.25 11.0448C4.25 11.0454 4.25 11.046 4.25 11.0466C4.25 11.0471 4.25 11.0477 4.25 11.0483C4.25 11.0489 4.25 11.0495 4.25 11.05C4.25 11.0506 4.25 11.0512 4.25 11.0518C4.25 11.0524 4.25 11.053 4.25 11.0536C4.25 11.0542 4.25 11.0548 4.25 11.0554C4.25 11.056 4.25 11.0566 4.25 11.0573C4.25 11.0579 4.25 11.0585 4.25 11.0591C4.25 11.0597 4.25 11.0604 4.25 11.061C4.25 11.0616 4.25 11.0622 4.25 11.0629C4.25 11.0635 4.25 11.0641 4.25 11.0648C4.25 11.0654 4.25 11.0661 4.25 11.0667C4.25 11.0674 4.25 11.068 4.25 11.0687C4.25 11.0694 4.25 11.07 4.25 11.0707C4.25 11.0714 4.25 11.072 4.25 11.0727C4.25 11.0734 4.25 11.0741 4.25 11.0747C4.25 11.0754 4.25 11.0761 4.25 11.0768C4.25 11.0775 4.25 11.0782 4.25 11.0789C4.25 11.0796 4.25 11.0803 4.25 11.081C4.25 11.0817 4.25 11.0825 4.25 11.0832C4.25 11.0839 4.25 11.0846 4.25 11.0853C4.25 11.0861 4.25 11.0868 4.25 11.0876C4.25 11.0883 4.25 11.089 4.25 11.0898C4.25 11.0905 4.25 11.0913 4.25 11.0921C4.25 11.0928 4.25 11.0936 4.25 11.0944C4.25 11.0951 4.25 11.0959 4.25 11.0967C4.25 11.0975 4.25 11.0982 4.25 11.099C4.25 11.0998 4.25 11.1006 4.25 11.1014C4.25 11.1022 4.25 11.103 4.25 11.1039C4.25 11.1047 4.25 11.1055 4.25 11.1063C4.25 11.1071 4.25 11.108 4.25 11.1088C4.25 11.1096 4.25 11.1105 4.25 11.1113C4.25 11.1122 4.25 11.113 4.25 11.1139C4.25 11.1148 4.25 11.1156 4.25 11.1165C4.25 11.1174 4.25 11.1183 4.25 11.1191C4.25 11.12 4.25 11.1209 4.25 11.1218C4.25 11.1227 4.25 11.1236 4.25 11.1245C4.25 11.1254 4.25 11.1264 4.25 11.1273C4.25 11.1282 4.25 11.1291 4.25 11.1301C4.25 11.131 4.25 11.1319 4.25 11.1329C4.25 11.1338 4.25 11.1348 4.25 11.1358C4.25 11.1367 4.25 11.1377 4.25 11.1387C4.25 11.1396 4.25 11.1406 4.25 11.1416C4.25 11.1426 4.25 11.1436 4.25 11.1446C4.25 11.1456 4.25 11.1466 4.25 11.1476C4.25 11.1487 4.25 11.1497 4.25 11.1507C4.25 11.1518 4.25 11.1528 4.25 11.1538C4.25 11.1549 4.25 11.1559 4.25 11.157C4.25 11.1581 4.25 11.1591 4.25 11.1602C4.25 11.1613 4.25 11.1624 4.25 11.1635C4.25 11.1646 4.25 11.1657 4.25 11.1668C4.25 11.1679 4.25 11.169 4.25 11.1701C4.25 11.1713 4.25 11.1724 4.25 11.1735C4.25 11.1747 4.25 11.1758 4.25 11.177C4.25 11.1781 4.25 11.1793 4.25 11.1805C4.25 11.1816 4.25 11.1828 4.25 11.184C4.25 11.1852 4.25 11.1864 4.25 11.1876C4.25 11.1888 4.25 11.19 4.25 11.1912C4.25 11.1924 4.25 11.1937 4.25 11.1949C4.25 11.1962 4.25 11.1974 4.25 11.1987C4.25 11.1999 4.25 11.2012 4.25 11.2024C4.25 11.2037 4.25 11.205 4.25 11.2063C4.25 11.2076 4.25 11.2089 4.25 11.2102C4.25 11.2115 4.25 11.2128 4.25 11.2141C4.25 11.2155 4.25 11.2168 4.25 11.2181C4.25 11.2195 4.25 11.2208 4.25 11.2222C4.25 11.2236 4.25 11.2249 4.25 11.2263C4.25 11.2277 4.25 11.2291 4.25 11.2305C4.25 11.2319 4.25 11.2333 4.25 11.2347C4.25 11.2361 4.25 11.2376 4.25 11.239C4.25 11.2404 4.25 11.2419 4.25 11.2433C4.25 11.2448 4.25 11.2463 4.25 11.2477C4.25 11.2492 4.25 11.2507 4.25 11.2522C4.25 11.2537 4.25 11.2552 4.25 11.2567C4.25 11.2582 4.25 11.2598 4.25 11.2613C4.25 11.2628 4.25 11.2644 4.25 11.2659C4.25 11.2675 4.25 11.2691 4.25 11.2706C4.25 11.2722 4.25 11.2738 4.25 11.2754C4.25 11.277 4.25 11.2786 4.25 11.2802C4.25 11.2818 4.25 11.2835 4.25 11.2851C4.25 11.2867 4.25 11.2884 4.25 11.2901C4.25 11.2917 4.25 11.2934 4.25 11.2951C4.25 11.2967 4.25 11.2984 4.25 11.3001C4.25 11.3018 4.25 11.3036 4.25 11.3053C4.25 11.307 4.25 11.3087 4.25 11.3105C4.25 11.3122 4.25 11.314 4.25 11.3158C4.25 11.3175 4.25 11.3193 4.25 11.3211C4.25 11.3229 4.25 11.3247 4.25 11.3265C4.25 11.3283 4.25 11.3302 4.25 11.332C4.25 11.3338 4.25 11.3357 4.25 11.3375C4.25 11.3394 4.25 11.3413 4.25 11.3432C4.25 11.345 4.25 11.3469 4.25 11.3488C4.25 11.3507 4.25 11.3527 4.25 11.3546C4.25 11.3565 4.25 11.3585 4.25 11.3604C4.25 11.3624 4.25 11.3643 4.25 11.3663C4.25 11.3683 4.25 11.3703 4.25 11.3723C4.25 11.3743 4.25 11.3763 4.25 11.3783C4.25 11.3803 4.25 11.3824 4.25 11.3844C4.25 11.3865 4.25 11.3885 4.25 11.3906C4.25 11.3927 4.25 11.3948 4.25 11.3969C4.25 11.399 4.25 11.4011 4.25 11.4032C4.25 11.4054 4.25 11.4075 4.25 11.4096C4.25 11.4118 4.25 11.414 4.25 11.4161C4.25 11.4183 4.25 11.4205 4.25 11.4227C4.25 11.4249 4.25 11.4271 4.25 11.4293C4.25 11.4316 4.25 11.4338 4.25 11.4361C4.25 11.4383 4.25 11.4406 4.25 11.4429C4.25 11.4451 4.25 11.4474 4.25 11.4497C4.25 11.452 4.25 11.4544 4.25 11.4567C4.25 11.459 4.25 11.4614 4.25 11.4637C4.25 11.4661 4.25 11.4685 4.25 11.4709C4.25 11.4732 4.25 11.4756 4.25 11.4781C4.25 11.4805 4.25 11.4829 4.25 11.4853C4.25 11.4878 4.25 11.4902 4.25 11.4927C4.25 11.4952 4.25 11.4977 4.25 11.5002C4.25 11.5026 4.25 11.5052 4.25 11.5077C4.25 11.5102 4.25 11.5127 4.25 11.5153C4.25 11.5179 4.25 11.5204 4.25 11.523C4.25 11.5256 4.25 11.5282 4.25 11.5308C4.25 11.5334 4.25 11.536 4.25 11.5387C4.25 11.5413 4.25 11.544 4.25 11.5466C4.25 11.5493 4.25 11.552 4.25 11.5547C4.25 11.5574 4.25 11.5601 4.25 11.5628C4.25 11.5655 4.25 11.5683 4.25 11.571C4.25 11.5738 4.25 11.5765 4.25 11.5793C4.25 11.5821 4.25 11.5849 4.25 11.5877C4.25 11.5906 4.25 11.5934 4.25 11.5962C4.25 11.5991 4.25 11.6019 4.25 11.6048C4.25 11.6077 4.25 11.6106 4.25 11.6135C4.25 11.6164 4.25 11.6193 4.25 11.6222C4.25 11.6252 4.25 11.6281 4.25 11.6311C4.25 11.6341 4.25 11.6371 4.25 11.6401C4.25 11.6431 4.25 11.6461 4.25 11.6491C4.25 11.6521 4.25 11.6552 4.25 11.6582C4.25 11.6613 4.25 11.6644 4.25 11.6675C4.25 11.6706 4.25 11.6737 4.25 11.6768C4.25 11.6799 4.25 11.6831 4.25 11.6862C4.25 11.6894 4.25 11.6925 4.25 11.6957C4.25 11.6989 4.25 11.7021 4.25 11.7054C4.25 11.7086 4.25 11.7118 4.25 11.7151C4.25 11.7183 4.25 11.7216 4.25 11.7249C4.25 11.7282 4.25 11.7315 4.25 11.7348C4.25 11.7381 4.25 11.7415 4.25 11.7448C4.25 11.7482 4.25 11.7515 4.25 11.7549C4.25 11.7583 4.25 11.7617 4.25 11.7651C4.25 11.7686 4.25 11.772 4.25 11.7754C4.25 11.7789 4.25 11.7824 4.25 11.7859C4.25 11.7893 4.25 11.7929 4.25 11.7964C4.25 11.7999 4.25 11.8034 4.25 11.807C4.25 11.8106 4.25 11.8141 4.25 11.8177C4.25 11.8213 4.25 11.8249 4.25 11.8285C4.25 11.8322 4.25 11.8358 4.25 11.8395C4.25 11.8431 4.25 11.8468 4.25 11.8505C4.25 11.8542 4.25 11.8579 4.25 11.8617C4.25 11.8654 4.25 11.8691 4.25 11.8729C4.25 11.8767 4.25 11.8805 4.25 11.8843C4.25 11.8881 4.25 11.8919 4.25 11.8957C4.25 11.8996 4.25 11.9034 4.25 11.9073C4.25 11.9112 4.25 11.9151 4.25 11.919C4.25 11.9229 4.25 11.9268 4.25 11.9308C4.25 11.9347 4.25 11.9387 4.25 11.9427C4.25 11.9467 4.25 11.9507 4.25 11.9547C4.25 11.9587 4.25 11.9627 4.25 11.9668C4.25 11.9709 4.25 11.9749 4.25 11.979C4.25 11.9831 4.25 11.9872 4.25 11.9914C4.25 11.9955 4.25 11.9997 4.25 12.0038C4.25 12.008 4.25 12.0122 4.25 12.0164C4.25 12.0206 4.25 12.0248 4.25 12.0291C4.25 12.0333 4.25 12.0376 4.25 12.0419C4.25 12.0462 4.25 12.0505 4.25 12.0548C4.25 12.0591 4.25 12.0635 4.25 12.0678C4.25 12.0722 4.25 12.0766 4.25 12.081C4.25 12.0854 4.25 12.0898 4.25 12.0942C4.25 12.0987 4.25 12.1031 4.25 12.1076C4.25 12.1121 4.25 12.1166 4.25 12.1211C4.25 12.1256 4.25 12.1302 4.25 12.1347C4.25 12.1393 4.25 12.1439 4.25 12.1485C4.25 12.1531 4.25 12.1577 4.25 12.1623C4.25 12.167 4.25 12.1716 4.25 12.1763C4.25 12.181 4.25 12.1857 4.25 12.1904C4.25 12.1951 4.25 12.1999 4.25 12.2046C4.25 12.2094 4.25 12.2142 4.25 12.219C4.25 12.2238 4.25 12.2286 4.25 12.2334C4.25 12.2383 4.25 12.2431 4.25 12.248C4.25 12.2529 4.25 12.2578 4.25 12.2627C4.25 12.2676 4.25 12.2726 4.25 12.2775C4.25 12.2825 4.25 12.2875 4.25 12.2925C4.25 12.2975 4.25 12.3025 4.25 12.3076C4.25 12.3126 4.25 12.3177 4.25 12.3228C4.25 12.3279 4.25 12.333 4.25 12.3381C4.25 12.3433 4.25 12.3484 4.25 12.3536C4.25 12.3588 4.25 12.364 4.25 12.3692C4.25 12.3744 4.25 12.3797 4.25 12.3849C4.25 12.3902 4.25 12.3955 4.25 12.4008C4.25 12.4061 4.25 12.4114 4.25 12.4167C4.25 12.4221 4.25 12.4275 4.25 12.4329C4.25 12.4382 4.25 12.4437 4.25 12.4491C4.25 12.4545 4.25 12.46 4.25 12.4655C4.25 12.4709 4.25 12.4765 4.25 12.482C4.25 12.4875 4.25 12.493 4.25 12.4986C4.25 12.5042 4.25 12.5098 4.25 12.5154C4.25 12.521 4.25 12.5266 4.25 12.5323C4.25 12.5379 4.25 12.5436 4.25 12.5493C4.25 12.555 4.25 12.5607 4.25 12.5665C4.25 12.5722 4.25 12.578 4.25 12.5838C4.25 12.5896 4.25 12.5954 4.25 12.6012C4.25 12.6071 4.25 12.6129 4.25 12.6188C4.25 12.6247 4.25 12.6306 4.25 12.6365C4.25 12.6425 4.25 12.6484 4.25 12.6544C4.25 12.6604 4.25 12.6664 4.25 12.6724C4.25 12.6784 4.25 12.6845 4.25 12.6905C4.25 12.6966 4.25 12.7027 4.25 12.7088C4.25 12.7149 4.25 12.721 4.25 12.7272C4.25 12.7334 4.25 12.7395 4.25 12.7458C4.25 12.752 4.25 12.7582 4.25 12.7645C4.25 12.7707 4.25 12.777 4.25 12.7833C4.25 12.7896 4.25 12.7959 4.25 12.8023C4.25 12.8086 4.25 12.815 4.25 12.8214C4.25 12.8278 4.25 12.8342 4.25 12.8406C4.25 12.8471 4.25 12.8536 4.25 12.8601C4.25 12.8666 4.25 12.8731 4.25 12.8796C4.25 12.8862 4.25 12.8927 4.25 12.8993C4.25 12.9059 4.25 12.9125 4.25 12.9192C4.25 12.9258 4.25 12.9325 4.25 12.9391C4.25 12.9458 4.25 12.9525 4.25 12.9593C4.25 12.966 4.25 12.9728 4.25 12.9796C4.25 12.9864 4.25 12.9932 4.25 13H5.75ZM12 1.25C7.71979 1.25 4.25 4.71979 4.25 9H5.75C5.75 5.54822 8.54822 2.75 12 2.75V1.25ZM17.6489 6.32182C18.0341 7.13264 18.25 8.04006 18.25 9H19.75C19.75 7.81274 19.4825 6.68587 19.0038 5.67818L17.6489 6.32182ZM12 2.75C12.9599 2.75 13.8674 2.9659 14.6782 3.35108L15.3218 1.99619C14.3141 1.51749 13.1873 1.25 12 1.25V2.75Z" fill="white"/>
<path d="M19.0001 16L21.1465 18.1464C21.4615 18.4614 21.2384 19 20.793 19H4.5" stroke="white" stroke-width="1.5" stroke-linecap="round" stroke-linejoin="round"/>
<path d="M15.5 19C15.5 20.933 13.933 22.5 12 22.5C10.067 22.5 8.5 20.933 8.5 19" stroke="white" stroke-width="1.5" stroke-linecap="round"/>
<line x1="3" y1="17.9393" x2="18.4957" y2="2.44365" stroke="white" stroke-width="1.5" stroke-linecap="round"/>
</svg>
