<svg width="277" height="209" viewBox="0 0 277 209" fill="none" xmlns="http://www.w3.org/2000/svg">
<g clip-path="url(#clip0_3298_21433)">
<path d="M253.107 186.312L253.523 176.915C257.858 174.586 262.693 173.356 267.608 173.331C260.843 178.89 261.688 189.605 257.102 197.08C255.654 199.401 253.705 201.364 251.399 202.824C249.094 204.285 246.491 205.205 243.783 205.517L238.123 209C237.346 204.648 237.517 200.178 238.625 195.898C239.732 191.619 241.749 187.632 244.538 184.211C246.121 182.308 247.936 180.613 249.94 179.165C251.296 182.759 253.107 186.312 253.107 186.312Z" fill="#F2F2F2"/>
<path d="M58.7667 102.768C58.3926 102.425 58.098 102.003 57.9035 101.534C57.709 101.064 57.6194 100.557 57.641 100.048C57.6625 99.5396 57.7947 99.0421 58.0283 98.5905C58.2619 98.1389 58.5911 97.7443 58.9929 97.4345L55.1147 85.6929L61.2919 87.3609L64.0276 98.2552C64.5008 98.968 64.6973 99.8305 64.58 100.679C64.4628 101.528 64.0398 102.304 63.3913 102.86C62.7429 103.417 61.9139 103.714 61.0615 103.697C60.2092 103.68 59.3926 103.35 58.7667 102.768V102.768Z" fill="#A0616A"/>
<path d="M69.9624 38.9741C70.9874 39.5647 77.0516 38.1013 78.2359 38.5176C77.5822 42.527 81.133 41.0224 77.2771 46.2877C73.4212 51.5531 65.6549 67.3399 63.8906 73.2402C62.1264 79.1404 63.8726 87.4555 63.6083 90.2519C63.4806 91.8721 63.4886 93.5002 63.6321 95.1191C61.5488 95.0926 59.4954 95.5272 57.3795 95.2496C55.1231 88.8321 53.606 79.6974 52.5758 74.6489C51.5456 69.6004 51.5079 71.7354 51.9804 69.211C52.4529 66.6866 52.5673 68.521 52.0709 66.106C51.5746 63.691 53.5819 60.6567 55.4366 58.9266C56.2363 56.6147 57.2698 54.4591 58.0615 52.1713C63.8631 47.0843 64.2446 44.1458 69.9624 38.9741Z"/>
<path d="M238.521 202.488H233.396L230.958 182.616H238.523L238.521 202.488Z" fill="#FFB6B6"/>
<path d="M239.829 207.482L223.302 207.482V207.272C223.302 205.557 223.98 203.912 225.186 202.7C226.392 201.487 228.029 200.806 229.735 200.806H229.735L232.754 198.504L238.387 200.806L239.829 200.806L239.829 207.482Z" fill="#2F2E41"/>
<path d="M214.709 202.488H209.583L207.145 182.616H214.709L214.709 202.488Z" fill="#FFB6B6"/>
<path d="M216.016 207.482L199.488 207.482V207.272C199.488 205.557 200.166 203.912 201.373 202.7C202.579 201.487 204.215 200.806 205.921 200.806H205.922L208.941 198.504L214.573 200.806L216.016 200.806L216.016 207.482Z" fill="#2F2E41"/>
<path d="M212.49 93.8477L245.83 94.6854C252.162 98.1422 252.258 105.624 250.183 114.507C250.183 114.507 250.884 119.787 249.483 121.195C248.082 122.603 247.382 122.603 248.082 125.067C248.782 127.531 245.082 131.555 245.531 132.007C245.981 132.458 247.031 134.922 247.031 134.922L243.529 154.985C243.529 154.985 241.078 189.832 240.378 190.536C239.677 191.24 238.977 190.536 239.677 192.296C240.378 194.056 241.078 193.352 240.378 194.056C239.757 194.728 239.173 195.433 238.627 196.168H230.16C230.16 196.168 229.522 192.648 229.522 192.296C229.522 191.944 228.821 189.832 228.821 189.48C228.821 189.128 229.44 188.506 229.44 188.506C229.654 187.79 229.799 187.056 229.872 186.312C229.872 185.608 231.973 158.505 231.973 158.505L227.771 123.307L217.615 157.801C217.615 157.801 217.615 188.072 216.915 188.776C216.214 189.48 216.214 189.128 216.565 190.536C216.915 191.944 218.316 191.592 217.265 192.648C216.214 193.704 215.864 191.944 216.214 193.704L216.565 195.464L206.059 195.615C206.059 195.615 204.658 192.648 205.358 191.592C206.059 190.536 206.017 190.824 205.162 189.096C204.308 187.368 203.958 187.016 204.308 186.664C204.658 186.312 204.658 184.44 204.658 184.44L206.409 150.762C206.409 150.762 206.759 115.211 206.759 114.155C206.786 113.612 206.686 113.07 206.468 112.572V111.138L207.81 106.059L212.49 93.8477Z" fill="#2F2E41"/>
<path d="M232.518 24.1676C238.239 24.1676 242.876 19.506 242.876 13.7557C242.876 8.00533 238.239 3.34375 232.518 3.34375C226.797 3.34375 222.159 8.00533 222.159 13.7557C222.159 19.506 226.797 24.1676 232.518 24.1676Z" fill="#FFB6B6"/>
<path d="M227.338 31.0493C225.107 32.3828 223.772 34.833 223.005 37.3263C221.586 41.9424 220.732 46.7149 220.462 51.5386L219.653 65.9797L209.628 96.7288C218.316 104.118 250.973 98.4082 250.973 98.4082C250.973 98.4082 251.976 98.0723 250.973 97.0647C249.971 96.0571 248.995 96.9498 249.997 95.9422C251 94.9345 250.309 96.0571 249.975 95.0495C249.64 94.0418 249.975 94.7136 250.309 94.3777C250.643 94.0418 247.722 91.019 247.722 91.019L250.395 73.3687L253.737 37.7666C249.727 32.7286 241.662 29.7587 241.662 29.7587L239.579 25.9888L229.16 26.8265L227.338 31.0493Z" fill="#3F3D56"/>
<path d="M225.918 7.64506C226.318 7.64821 226.717 7.70082 227.105 7.80172C227.87 7.98657 228.647 8.11753 229.431 8.19361C231.829 8.42038 234.082 9.44833 235.831 11.1133C237.579 12.7783 238.722 14.9842 239.077 17.3788C239.679 16.8513 241.049 15.881 242.172 16.7827C242.189 16.7971 242.199 16.8044 242.238 16.7856C242.984 16.4301 244.307 12.0544 244.347 8.20158C244.369 6.15667 244.048 3.54541 242.403 2.71848L242.316 2.67492L242.293 2.58021C242.183 2.12022 240.955 1.33502 238.821 0.723882C234.941 -0.386731 229.273 -0.54729 226.017 2.63667C225.77 3.71006 224.854 4.00417 224.044 4.26454C223.148 4.55273 222.373 4.80144 222.251 5.90714C222.149 7.48064 222.156 9.05938 222.273 10.6318C222.577 9.66963 223.174 8.82745 223.979 8.22388C224.551 7.83653 225.228 7.63455 225.918 7.64506Z" fill="#2F2E41"/>
<path d="M206.636 65.1753L223.558 54.2829L215.035 42.8955L206.619 53.3005L180.398 54.917C179.708 54.2318 178.835 53.763 177.885 53.5679C176.935 53.3728 175.949 53.4598 175.047 53.8183C174.145 54.1768 173.367 54.7912 172.806 55.5868C172.246 56.3823 171.928 57.3245 171.891 58.2985C171.854 59.2725 172.1 60.2363 172.599 61.0722C173.098 61.9082 173.828 62.5802 174.7 63.0064C175.572 63.4326 176.549 63.5946 177.511 63.4725C178.473 63.3504 179.379 62.9496 180.118 62.3189L206.636 65.1753Z" fill="#FFB6B6"/>
<path d="M239.263 39.0796C240.245 45.0535 221.699 56.4613 221.699 56.4613C221.699 55.0591 210.63 65.6446 210.13 64.4817C208.71 61.1766 207.712 53.3483 205.727 52.0953C204.593 51.3787 212.562 44.6472 212.562 44.6472C212.562 44.6472 216.733 40.4233 222.207 35.0954C223.727 33.5603 225.609 32.4367 227.677 31.829C229.745 31.2214 231.932 31.1496 234.035 31.6203C234.035 31.6203 238.281 33.1056 239.263 39.0796Z" fill="#3F3D56"/>
<path d="M220.408 107.671C220.416 114.064 219.35 120.412 217.258 126.449C217.162 126.73 217.062 127.006 216.962 127.287C212.678 138.981 204.709 148.948 194.27 155.67C193.557 156.131 192.836 156.571 192.103 156.998C183.762 161.858 174.32 164.486 164.681 164.63C164.364 164.634 164.047 164.639 163.731 164.639C163.322 164.639 162.918 164.634 162.514 164.626C152.861 164.433 143.419 161.753 135.092 156.843C134.358 156.412 133.636 155.964 132.925 155.499C121.334 147.947 112.883 136.404 109.156 123.035C105.43 109.667 106.684 95.3909 112.683 82.8854C112.816 82.6047 112.954 82.3283 113.096 82.0476C117.821 72.6229 125.056 64.7019 133.997 59.1675C142.937 53.6331 153.231 50.7026 163.731 50.7026C174.23 50.7026 184.524 53.6331 193.464 59.1675C202.405 64.7019 209.641 72.6229 214.365 82.0476C214.507 82.3283 214.645 82.6047 214.778 82.8854C218.496 90.6125 220.421 99.0871 220.408 107.671Z" fill="#F2F2F2"/>
<path d="M202.872 126.449V127.287H207.948V126.449H202.872ZM192.72 126.449V127.287H197.796V126.449H192.72ZM182.568 126.449V127.287H187.644V126.449H182.568ZM172.416 126.449V127.287H177.492V126.449H172.416ZM162.264 126.449V127.287H167.34V126.449H162.264ZM152.112 126.449V127.287H157.188V126.449H152.112ZM141.96 126.449V127.287H147.036V126.449H141.96ZM131.812 126.449V127.287H136.884V126.449H131.812ZM121.66 126.449V127.287H126.736V126.449H121.66ZM111.508 126.449V127.287H116.584V126.449H111.508ZM217.258 126.449H213.024V127.287H216.962L217.258 126.449Z" fill="#E6E6E6"/>
<path d="M213.023 120.585V121.423H218.099V120.585H213.023ZM202.872 120.585V121.423H207.948V120.585H202.872ZM192.72 120.585V121.423H197.796V120.585H192.72ZM182.568 120.585V121.423H187.644V120.585H182.568ZM172.416 120.585V121.423H177.492V120.585H172.416ZM162.264 120.585V121.423H167.34V120.585H162.264ZM152.112 120.585V121.423H157.188V120.585H152.112ZM141.96 120.585V121.423H147.036V120.585H141.96ZM131.812 120.585V121.423H136.884V120.585H131.812ZM121.66 120.585V121.423H126.736V120.585H121.66ZM111.508 120.585V121.423H116.584V120.585H111.508Z" fill="#E6E6E6"/>
<path d="M213.023 108.437V109.275H218.099V108.437H213.023ZM202.872 108.437V109.275H207.948V108.437H202.872ZM192.72 108.437V109.275H197.796V108.437H192.72ZM182.568 108.437V109.275H187.644V108.437H182.568ZM172.416 108.437V109.275H177.492V108.437H172.416ZM162.264 108.437V109.275H167.34V108.437H162.264ZM152.112 108.437V109.275H157.188V108.437H152.112ZM141.96 108.437V109.275H147.036V108.437H141.96ZM131.812 108.437V109.275H136.884V108.437H131.812ZM121.66 108.437V109.275H126.736V108.437H121.66ZM111.508 108.437V109.275H116.584V108.437H111.508Z" fill="#E6E6E6"/>
<path d="M213.023 100.06V100.897H218.099V100.06H213.023ZM202.872 100.06V100.897H207.948V100.06H202.872ZM192.72 100.06V100.897H197.796V100.06H192.72ZM182.568 100.06V100.897H187.644V100.06H182.568ZM172.416 100.06V100.897H177.492V100.06H172.416ZM162.264 100.06V100.897H167.34V100.06H162.264ZM152.112 100.06V100.897H157.188V100.06H152.112ZM141.96 100.06V100.897H147.036V100.06H141.96ZM131.812 100.06V100.897H136.884V100.06H131.812ZM121.66 100.06V100.897H126.736V100.06H121.66ZM111.508 100.06V100.897H116.584V100.06H111.508Z" fill="#E6E6E6"/>
<path d="M214.365 82.0474H213.024V82.8851H214.778C214.645 82.6045 214.507 82.328 214.365 82.0474ZM202.872 82.0474V82.8851H207.948V82.0474H202.872ZM192.72 82.0474V82.8851H197.796V82.0474H192.72ZM182.568 82.0474V82.8851H187.644V82.0474H182.568ZM172.416 82.0474V82.8851H177.492V82.0474H172.416ZM162.264 82.0474V82.8851H167.34V82.0474H162.264ZM152.112 82.0474V82.8851H157.188V82.0474H152.112ZM141.96 82.0474V82.8851H147.036V82.0474H141.96ZM131.812 82.0474V82.8851H136.884V82.0474H131.812ZM121.66 82.0474V82.8851H126.736V82.0474H121.66ZM113.096 82.0474C112.954 82.328 112.816 82.6045 112.683 82.8851H116.584V82.0474H113.096Z" fill="#E6E6E6"/>
<path d="M194.27 84.8711V155.671C193.557 156.131 192.836 156.571 192.103 156.998V84.8711H194.27Z" fill="#3F3D56"/>
<path d="M135.091 84.8711V156.843C134.358 156.412 133.636 155.964 132.924 155.499V84.8711H135.091Z" fill="#3F3D56"/>
<path d="M28.9031 181.234L28.0765 169.678C22.6615 166.957 16.6676 165.606 10.6152 165.742C19.1301 172.357 18.4481 185.579 24.345 194.628C26.2058 197.436 28.6713 199.787 31.559 201.507C34.4467 203.227 37.6825 204.272 41.0265 204.564L48.1129 208.662C48.9236 203.277 48.563 197.779 47.0562 192.547C45.5493 187.316 42.932 182.475 39.3844 178.358C37.3715 176.068 35.0798 174.042 32.5632 172.328C31.0142 176.798 28.9031 181.234 28.9031 181.234Z" fill="#F2F2F2"/>
<path d="M192.903 90.4966C197.276 90.4966 200.821 86.9334 200.821 82.5379C200.821 78.1424 197.276 74.5791 192.903 74.5791C188.53 74.5791 184.985 78.1424 184.985 82.5379C184.985 86.9334 188.53 90.4966 192.903 90.4966Z"/>
<path d="M196.968 79.2209C196.849 79.1067 196.69 79.043 196.526 79.043C196.361 79.043 196.203 79.1067 196.084 79.2209C194.404 80.5678 192.894 82.1171 191.59 83.834C191.27 83.2114 190.95 82.5887 190.63 81.9661C190.26 81.2474 189.181 81.8823 189.55 82.6003C190.019 83.511 190.487 84.4217 190.955 85.3324C191.012 85.4254 191.091 85.5022 191.186 85.5555C191.28 85.6088 191.387 85.6368 191.495 85.6368C191.603 85.6368 191.71 85.6088 191.804 85.5555C191.899 85.5022 191.978 85.4254 192.035 85.3324C193.424 83.3652 195.085 81.6066 196.968 80.1095C197.084 79.9912 197.149 79.8315 197.149 79.6652C197.149 79.4989 197.084 79.3392 196.968 79.2209Z" fill="white"/>
<path d="M134.141 92.1719C138.514 92.1719 142.06 88.6087 142.06 84.2132C142.06 79.8177 138.514 76.2544 134.141 76.2544C129.768 76.2544 126.223 79.8177 126.223 84.2132C126.223 88.6087 129.768 92.1719 134.141 92.1719Z"/>
<path d="M138.206 80.8962C138.087 80.782 137.929 80.7183 137.764 80.7183C137.599 80.7183 137.441 80.782 137.322 80.8962C135.642 82.243 134.133 83.7923 132.829 85.5093C132.509 84.8866 132.188 84.264 131.868 83.6414C131.499 82.9227 130.42 83.5576 130.789 84.2756C131.257 85.1863 131.725 86.097 132.194 87.0077C132.25 87.1007 132.329 87.1775 132.424 87.2308C132.518 87.2841 132.625 87.3121 132.733 87.3121C132.842 87.3121 132.948 87.2841 133.043 87.2308C133.137 87.1775 133.217 87.1007 133.273 87.0077C134.663 85.0405 136.324 83.2819 138.206 81.7848C138.322 81.6665 138.388 81.5068 138.388 81.3405C138.388 81.1741 138.322 81.0145 138.206 80.8962Z" fill="white"/>
<path d="M247.696 78.5533L252.908 59.0479L238.979 56.3975L239.728 69.7858L221.425 88.728C220.456 88.6882 219.497 88.9326 218.663 89.4315C217.83 89.9303 217.16 90.662 216.733 91.5374C216.306 92.4128 216.143 93.394 216.261 94.3614C216.38 95.3288 216.776 96.2406 217.401 96.9856C218.027 97.7306 218.854 98.2766 219.783 98.5571C220.712 98.8376 221.701 98.8404 222.632 98.5652C223.562 98.29 224.393 97.7487 225.022 97.0073C225.652 96.2658 226.053 95.3563 226.177 94.3896L247.696 78.5533Z" fill="#FFB6B6"/>
<path d="M254.334 37.1783C259.062 40.9302 252.993 61.9164 252.993 61.9164C252.054 60.88 250.962 76.1978 249.813 75.6763C246.549 74.1939 240.567 69.0822 238.26 69.4988C236.941 69.7371 238.323 59.3668 238.323 59.3668C238.323 59.3668 238.577 53.4207 239.055 45.7768C239.15 43.6132 239.788 41.509 240.91 39.6601C242.032 37.8111 243.601 36.2775 245.472 35.2021C245.472 35.2021 249.606 33.4265 254.334 37.1783Z" fill="#3F3D56"/>
<path d="M91.0216 80.9702L96.7523 106.675L60.0293 104.379L70.0154 79.1343L91.0216 80.9702Z" fill="#A0616A"/>
<path d="M84.9066 199.61L89.0316 199.609L90.994 183.617H84.9058L84.9066 199.61Z" fill="#A0616A"/>
<path d="M83.5097 197.564L90.0307 197.173V199.981L96.2304 204.285C96.5366 204.497 96.7673 204.803 96.8886 205.156C97.01 205.51 97.0157 205.893 96.9049 206.25C96.7942 206.607 96.5728 206.919 96.273 207.141C95.9733 207.363 95.6109 207.482 95.2387 207.482H87.4753L86.1371 204.705L85.6146 207.482H82.6875L83.5097 197.564Z" fill="#2F2E41"/>
<path d="M45.918 197.547L49.9496 198.426L55.2406 183.215L49.2907 181.917L45.918 197.547Z" fill="#A0616A"/>
<path d="M44.9844 195.25L51.4397 196.258L50.8474 199.002L55.9984 204.529C56.2528 204.802 56.4138 205.149 56.4578 205.521C56.5018 205.892 56.4265 206.268 56.243 206.594C56.0595 206.919 55.7772 207.177 55.4375 207.33C55.0978 207.482 54.7185 207.522 54.3548 207.443L46.7678 205.788L46.046 202.789L44.9495 205.392L42.0889 204.768L44.9844 195.25Z" fill="#2F2E41"/>
<path d="M97.6898 128.171C94.7948 144.163 94.071 151.068 94.071 151.068C94.071 151.068 96.2423 153.612 94.7948 155.067C93.3472 156.522 94.7948 159.428 94.7948 159.428L91.5399 194.684L88.9197 194.257L82.608 193.237L80.3316 192.867L81.7792 159.793C81.7792 159.793 80.3316 156.884 81.0554 156.156C81.7792 155.429 80.3316 151.068 80.3316 151.068L78.5242 116.539L67.312 154.339C67.312 154.339 68.3996 155.794 67.312 156.883C66.2283 157.973 64.0611 163.427 64.0611 163.427L57.3936 186.876L56.8275 188.868L53.3502 188.213L49.5656 187.498L48.8701 187.368L47.6329 187.132L46.8364 186.982L46.5654 186.933L45.2554 186.685L45.6516 184.918L45.8578 183.987L51.4984 158.806L51.6277 158.225L51.7652 157.611C51.7652 157.611 51.0415 155.794 52.1251 154.701C52.4421 154.368 52.6736 153.962 52.7997 153.519C52.9258 153.076 52.9427 152.608 52.8489 152.157C52.8134 152.119 52.7809 152.078 52.7518 152.035C52.6238 151.858 52.5355 151.656 52.493 151.442C52.396 150.987 52.4809 150.348 53.2128 149.613C53.4189 149.393 53.5918 149.144 53.7263 148.873C54.8261 146.78 55.38 142.346 55.38 142.346C55.38 142.346 56.3585 107.229 59.5608 101.864C59.7307 101.584 63.1302 96.2001 63.3082 96.0903C66.9229 93.912 95.0853 96.9208 95.0853 96.9208C95.0853 96.9208 96.7911 101.527 96.8679 102.006C97.2844 104.701 100.144 114.605 97.6898 128.171Z" fill="#2F2E41"/>
<path d="M89.1324 43.5814C89.1324 43.5814 89.7418 40.402 83.8862 34.5165C80.7862 33.4779 75.415 34.0832 73.5529 34.5165C64.9418 45.9414 66.4836 43.9255 64.2421 50.309C63.6608 51.9643 63.3702 53.5547 63.6285 54.853C64.6619 60.0461 66.3395 86.7037 65.995 88.0885C65.6506 89.4733 63.2395 91.2044 65.6506 91.2044C68.0617 91.2044 99.1551 90.6573 98.4662 89.6187C97.7773 88.58 89.1324 43.5814 89.1324 43.5814Z"/>
<path d="M126.061 85.8239C125.588 86.0077 125.082 86.0852 124.577 86.0509C124.071 86.0166 123.58 85.8714 123.136 85.6255C122.693 85.3796 122.309 85.039 122.011 84.6277C121.712 84.2164 121.508 83.7443 121.41 83.2448L109.224 81.505L113.461 76.689L124.384 79.0795C125.23 78.9712 126.086 79.1785 126.789 79.662C127.493 80.1456 127.996 80.8719 128.203 81.7032C128.409 82.5346 128.306 83.4132 127.911 84.1727C127.516 84.9322 126.858 85.5197 126.061 85.8239L126.061 85.8239Z" fill="#A0616A"/>
<path d="M74.5029 41.5349C75.4855 40.8755 76.6016 40.5659 77.4999 39.6855C80.7801 42.0597 81.0215 38.1941 83.9942 44.0093C86.9669 49.8245 97.5701 63.8451 102.04 68.0608C106.51 72.2765 114.694 74.4087 117.068 75.892C118.454 76.7286 119.908 77.4466 121.414 78.0385C120.462 79.9015 119.935 81.943 118.745 83.7234C112.024 82.8956 103.211 80.1922 98.2551 78.8707C93.2992 77.5491 95.1842 78.534 93.146 76.9844C91.1078 75.4348 92.7928 76.1489 90.4205 75.5199C88.0483 74.8909 86.2395 71.733 85.5245 69.2933C83.8213 67.5439 82.3615 65.6537 80.6763 63.9223C78.729 56.4355 76.5629 48.9839 74.5029 41.5349Z"/>
<path d="M82.1981 30.0857C87.7065 30.0857 92.172 25.5973 92.172 20.0607C92.172 14.524 87.7065 10.0356 82.1981 10.0356C76.6896 10.0356 72.2241 14.524 72.2241 20.0607C72.2241 25.5973 76.6896 30.0857 82.1981 30.0857Z" fill="#A0616A"/>
<path d="M88.8617 38.3859C88.3889 37.7073 84.8544 30.9786 83.8037 28.4341C83.6957 28.9851 83.6275 29.5433 83.5997 30.1042L83.5892 30.3132L83.3827 30.3401C83.0721 30.3799 75.7364 31.2749 71.9188 26.9238C69.6569 24.3465 69.144 20.4807 70.3921 15.4315C70.1651 15.3867 69.9476 15.3025 69.7493 15.1826C69.4192 14.953 69.1429 14.6537 68.9397 14.3057C68.7365 13.9577 68.6112 13.5693 68.5727 13.1676L68.3613 13.2246C61.5695 9.90269 67.4208 0.185088 73.6244 5.01648C74.1685 4.89427 74.7358 4.92704 75.2624 5.11109C75.7703 5.31878 76.2129 5.66073 76.5431 6.10069C76.8734 6.54066 77.079 7.06223 77.1383 7.61014C80.3436 5.91557 84.5856 6.19132 86.7796 7.46273C87.6982 7.99516 88.2257 8.6657 88.3194 9.41373C90.9108 9.55918 93.698 12.0964 93.698 15.6911V15.9414H93.4489C92.4064 15.9637 91.3895 16.2706 90.5072 16.8293C89.6248 17.3879 88.9103 18.1772 88.44 19.1127C87.8028 20.27 87.4874 21.5784 87.527 22.9005C87.5666 24.2226 87.9598 25.5095 88.6652 26.6261C89.433 27.8104 89.9573 29.1372 90.2071 30.5283C90.4568 31.9194 90.4271 33.3467 90.1196 34.7261L89.1838 38.8479L88.8617 38.3859Z" fill="#2F2E41"/>
<path d="M117.802 207.565C117.802 207.63 117.79 207.695 117.765 207.756C117.74 207.816 117.703 207.871 117.657 207.918C117.611 207.964 117.557 208.001 117.496 208.026C117.436 208.051 117.371 208.064 117.306 208.063H0.495931C0.364402 208.063 0.238259 208.011 0.145254 207.917C0.052249 207.824 0 207.697 0 207.565C0 207.433 0.052249 207.306 0.145254 207.212C0.238259 207.119 0.364402 207.066 0.495931 207.066H117.306C117.371 207.066 117.436 207.079 117.496 207.104C117.557 207.129 117.611 207.166 117.657 207.212C117.703 207.258 117.74 207.313 117.765 207.374C117.79 207.434 117.802 207.499 117.802 207.565Z" fill="#CCCCCC"/>
<path d="M277 207.565C277 207.63 276.987 207.695 276.963 207.756C276.938 207.816 276.901 207.871 276.855 207.918C276.809 207.964 276.754 208.001 276.694 208.026C276.634 208.051 276.569 208.064 276.504 208.063H159.694C159.562 208.063 159.436 208.011 159.343 207.917C159.25 207.824 159.198 207.697 159.198 207.565C159.198 207.433 159.25 207.306 159.343 207.212C159.436 207.119 159.562 207.066 159.694 207.066H276.504C276.569 207.066 276.634 207.079 276.694 207.104C276.754 207.129 276.809 207.166 276.855 207.212C276.901 207.258 276.938 207.313 276.963 207.374C276.987 207.434 277 207.499 277 207.565Z" fill="#CCCCCC"/>
<path d="M133.895 171.641C136.333 171.641 138.309 169.655 138.309 167.205C138.309 164.755 136.333 162.769 133.895 162.769C131.457 162.769 129.481 164.755 129.481 167.205C129.481 169.655 131.457 171.641 133.895 171.641Z" fill="#E6E6E6"/>
<path d="M163.484 176.249C165.922 176.249 167.898 174.263 167.898 171.813C167.898 169.363 165.922 167.376 163.484 167.376C161.047 167.376 159.071 169.363 159.071 171.813C159.071 174.263 161.047 176.249 163.484 176.249Z" fill="#E6E6E6"/>
<path d="M193.074 170.803C195.511 170.803 197.487 168.817 197.487 166.367C197.487 163.917 195.511 161.931 193.074 161.931C190.636 161.931 188.66 163.917 188.66 166.367C188.66 168.817 190.636 170.803 193.074 170.803Z" fill="#E6E6E6"/>
</g>
<path fill-rule="evenodd" clip-rule="evenodd" d="M174.414 132.662H174.542V132.38C174.574 132.385 174.597 132.385 174.611 132.385C174.62 132.385 174.648 132.385 174.671 132.38L174.841 132.662H174.992L174.795 132.353C174.882 132.316 174.937 132.223 174.937 132.122C174.937 131.993 174.836 131.882 174.62 131.882C174.542 131.882 174.478 131.887 174.414 131.896V132.662ZM174.542 132.002C174.565 131.997 174.602 131.997 174.634 131.997C174.74 131.997 174.804 132.048 174.804 132.127C174.804 132.223 174.74 132.279 174.625 132.279C174.602 132.279 174.574 132.279 174.542 132.274V132.002ZM174.657 132.962C174.3 132.962 174.01 132.648 174.01 132.284C174.01 131.905 174.3 131.6 174.657 131.6C175.019 131.6 175.309 131.905 175.309 132.284C175.309 132.648 175.019 132.962 174.657 132.962ZM174.657 133.072C175.088 133.072 175.432 132.712 175.432 132.284C175.432 131.845 175.088 131.485 174.657 131.485C174.226 131.485 173.887 131.841 173.887 132.284C173.887 132.717 174.23 133.072 174.657 133.072Z"/>
<path fill-rule="evenodd" clip-rule="evenodd" d="M177.735 118.108C177.338 117.203 176.807 116.393 176.095 115.716C172.927 112.704 167.827 113.985 166.311 118.172C165.982 119.081 165.81 120.018 165.811 120.991C165.817 125.22 165.814 129.448 165.814 133.676C165.814 134.395 165.814 134.395 165.041 134.351C165.033 134.213 165.018 134.068 165.018 133.923C165.016 129.146 165.009 124.369 165.018 119.591C165.025 116.42 166.73 113.858 169.483 112.855C169.814 112.735 170.161 112.649 170.508 112.58C170.851 112.51 171.202 112.482 171.552 112.436C171.123 110.457 167.544 108.158 164.638 108.048C161.24 107.92 158.345 110.113 157.229 112.435C157.56 112.477 157.882 112.5 158.198 112.559C161.119 113.101 163.261 115.338 163.68 118.298C163.755 118.826 163.8 119.363 163.801 119.897C163.81 124.564 163.803 129.232 163.812 133.899C163.813 134.267 163.728 134.421 163.333 134.376C163.041 134.342 162.982 134.215 162.983 133.951C162.993 132.468 162.988 130.986 162.988 129.503C162.988 126.565 163.014 123.627 162.978 120.689C162.956 118.935 162.414 117.331 161.222 116.019C158.688 113.231 153.609 113.148 151.329 117.607C151.239 117.785 151.157 117.968 151.031 118.233C152.118 111.765 157.998 106.885 164.548 107.002C171.597 107.128 176.705 112.266 177.735 118.108Z"/>
<path fill-rule="evenodd" clip-rule="evenodd" d="M169.059 133.558C169.044 133.424 169.025 133.331 169.025 133.237C169.028 130.739 169.01 128.241 169.046 125.743C169.063 124.519 169.391 123.369 170.316 122.499C171.505 121.382 172.922 121.267 174.359 121.83C175.785 122.389 176.511 123.566 176.612 125.085C176.719 126.668 176.039 127.988 175.09 129.188C173.581 131.095 171.7 132.506 169.459 133.433C169.337 133.484 169.208 133.512 169.059 133.558Z"/>
<path fill-rule="evenodd" clip-rule="evenodd" d="M159.747 133.655C158.866 133.198 158.032 132.827 157.262 132.352C155.493 131.262 154.011 129.856 152.954 128.045C152.371 127.045 152.043 125.957 152.225 124.777C152.509 122.934 153.884 121.637 155.62 121.551C157.667 121.448 159.094 122.468 159.574 124.424C159.704 124.951 159.771 125.507 159.776 126.05C159.797 128.41 159.785 130.771 159.784 133.13C159.784 133.262 159.766 133.393 159.747 133.655Z"/>
<path fill-rule="evenodd" clip-rule="evenodd" d="M161.77 134.086C161.091 134.121 160.998 134.041 160.998 133.43C160.997 130.053 160.997 126.676 160.997 123.299C160.997 121.285 159.999 119.695 158.314 119.026C156.346 118.245 154.172 118.679 152.825 120.102C151.815 121.169 151.464 122.477 151.393 123.898C151.386 124.034 151.376 124.17 151.283 124.322C151.212 123.982 151.119 123.643 151.071 123.299C150.881 121.927 151.055 120.621 151.802 119.423C152.319 118.594 153.011 117.97 153.93 117.637C155.904 116.922 157.844 116.989 159.705 117.999C161.073 118.742 161.773 119.953 161.785 121.494C161.815 125.612 161.796 129.731 161.795 133.849C161.795 133.929 161.778 134.009 161.77 134.086Z"/>
<path fill-rule="evenodd" clip-rule="evenodd" d="M167.001 134.104V133.593C167.001 129.791 167.042 125.989 166.989 122.188C166.945 119.106 168.656 117.783 171.066 117.295C172.293 117.047 173.515 117.142 174.695 117.565C176.725 118.294 177.946 120.292 177.799 122.648C177.762 123.227 177.64 123.801 177.509 124.36C177.395 123.645 177.345 122.912 177.153 122.219C176.14 118.546 172.165 117.814 169.66 119.485C168.357 120.354 167.817 121.688 167.812 123.235C167.801 126.611 167.809 129.988 167.808 133.364C167.808 134.058 167.79 134.077 167.001 134.104Z"/>
<defs>
<clipPath id="clip0_3298_21433">
<rect width="277" height="209" fill="white"/>
</clipPath>
</defs>
</svg>
