<svg width="36" height="36" viewBox="0 0 36 36" fill="#fff" xmlns="http://www.w3.org/2000/svg">
<mask id="mask0_3824_28754" style="mask-type:alpha" maskUnits="userSpaceOnUse" x="0" y="0" width="36" height="36">
<rect width="36" height="36" rx="4" fill="#FF5E00"/>
</mask>
<g mask="url(#mask0_3824_28754)">
<path fill-rule="evenodd" clip-rule="evenodd" d="M45.2571 22.069C44.7241 20.9645 44.0118 19.9749 43.0551 19.1489C38.8011 15.4721 31.954 17.0363 29.9178 22.1463C29.4758 23.2559 29.245 24.4004 29.2467 25.5881C29.2551 30.7497 29.2506 35.911 29.2506 41.0723C29.2506 41.95 29.2503 41.95 28.2132 41.8965C28.2021 41.7279 28.1812 41.5508 28.1812 41.3738C28.1789 35.5421 28.1695 29.7109 28.1825 23.8792C28.191 20.0086 30.4809 16.8802 34.1766 15.6569C34.6219 15.5094 35.088 15.405 35.5529 15.3202C36.0141 15.2354 36.4858 15.2017 36.9552 15.145C36.3794 12.7291 31.5737 9.92276 27.672 9.78933C23.1089 9.63291 19.2215 12.3091 17.7236 15.1438C18.1678 15.1945 18.6003 15.2232 19.0244 15.2948C22.946 15.9563 25.8228 18.6868 26.3859 22.3003C26.4864 22.9451 26.5458 23.6003 26.5478 24.252C26.5602 29.9494 26.5504 35.6468 26.5631 41.3443C26.5644 41.7929 26.4495 41.9813 25.9191 41.9264C25.5267 41.8855 25.4477 41.7296 25.45 41.4076C25.4624 39.5974 25.4559 37.7881 25.4559 35.9779C25.4559 32.3922 25.4905 28.8058 25.4425 25.2195C25.4138 23.0782 24.6859 21.12 23.0847 19.5188C19.6824 16.1151 12.8624 16.0142 9.80156 21.4576C9.67981 21.6749 9.57045 21.8982 9.40137 22.2209C10.8602 14.3258 18.7557 8.36871 27.5512 8.51199C37.0159 8.66602 43.8744 14.9372 45.2571 22.069Z" fill="white" fill-opacity="0.1"/>
<path fill-rule="evenodd" clip-rule="evenodd" d="M33.607 40.9277C33.5874 40.7641 33.5609 40.6506 33.5609 40.5363C33.5649 37.4873 33.5414 34.4374 33.5897 31.3887C33.6125 29.8946 34.0529 28.4904 35.2952 27.4286C36.8911 26.0653 38.7938 25.9247 40.723 26.6116C42.6388 27.2946 43.6125 28.731 43.7493 30.5851C43.8923 32.518 42.9799 34.1284 41.7049 35.5932C39.6788 37.9216 37.1526 39.6444 34.1439 40.7757C33.9807 40.8375 33.8064 40.8718 33.607 40.9277Z" fill="white" fill-opacity="0.1"/>
<path fill-rule="evenodd" clip-rule="evenodd" d="M21.1056 41.0475C19.9216 40.4887 18.8023 40.0361 17.7685 39.4567C15.3935 38.1263 13.4029 36.4098 11.984 34.1987C11.2012 32.9784 10.7605 31.6503 11.005 30.21C11.3866 27.9607 13.2329 26.3771 15.5632 26.272C18.3117 26.1466 20.2275 27.3908 20.8728 29.7786C21.0471 30.4219 21.1372 31.1004 21.1441 31.7634C21.1725 34.6447 21.1565 37.5259 21.1545 40.4066C21.1542 40.5669 21.131 40.7269 21.1056 41.0475Z" fill="white" fill-opacity="0.1"/>
<path fill-rule="evenodd" clip-rule="evenodd" d="M23.82 41.5715C22.9093 41.6151 22.7836 41.5166 22.7836 40.7712C22.7833 36.6491 22.7833 32.5272 22.7833 28.405C22.7833 25.9462 21.442 24.0049 19.1799 23.1882C16.5372 22.2347 13.6183 22.7652 11.8102 24.502C10.4536 25.805 9.98255 27.4017 9.88723 29.1358C9.87777 29.3018 9.86406 29.4671 9.73969 29.6534C9.64372 29.2379 9.51935 28.825 9.45505 28.405C9.19913 26.7295 9.43383 25.1351 10.4366 23.6733C11.1309 22.6616 12.0593 21.9001 13.2938 21.4935C15.9437 20.6207 18.5489 20.7016 21.048 21.935C22.8845 22.8416 23.8252 24.3199 23.8406 26.2017C23.8817 31.2284 23.8553 36.2559 23.854 41.2832C23.854 41.3805 23.8318 41.4778 23.82 41.5715Z" fill="white" fill-opacity="0.1"/>
<path fill-rule="evenodd" clip-rule="evenodd" d="M30.8446 41.5939V40.9709C30.8446 36.3303 30.8994 31.6887 30.8273 27.0492C30.7688 23.2867 33.0659 21.6718 36.3024 21.0765C37.9495 20.7729 39.5905 20.8894 41.1746 21.4061C43.9002 22.2954 45.5402 24.7348 45.3427 27.6104C45.2934 28.317 45.1295 29.0176 44.9539 29.6997C44.7999 28.8274 44.7333 27.9325 44.4757 27.0862C43.1155 22.6031 37.7778 21.7103 34.4143 23.7491C32.665 24.8103 31.9391 26.439 31.9325 28.3265C31.9178 32.4481 31.9283 36.5697 31.9276 40.6906C31.9276 41.5387 31.9028 41.5611 30.8446 41.5939Z" fill="white" fill-opacity="0.1"/>
</g>
</svg>
