<svg width="26" height="12" viewBox="0 0 26 12" fill="none" xmlns="http://www.w3.org/2000/svg">
<path d="M7.79309 1.69H12.7071V3.076H2.97709V9.572L2.34709 11H0.401094L1.04509 9.572V1.69H5.95909L5.74909 0.891999H7.58309L7.79309 1.69ZM7.66709 6.534H12.7071V9.488C12.7071 9.70267 12.6651 9.90333 12.5811 10.09C12.4971 10.2767 12.3851 10.44 12.2451 10.58C12.1051 10.72 11.9418 10.832 11.7551 10.916C11.5684 10.9907 11.3724 11.028 11.1671 11.028H3.29909V6.534H5.84709V3.51H7.66709V4.196H12.3991V5.582H7.66709V6.534ZM10.7611 7.906H5.24509V9.642H10.3271C10.4484 9.642 10.5511 9.6 10.6351 9.516C10.7191 9.432 10.7611 9.32933 10.7611 9.208V7.906ZM19.174 4.854H13.28V3.734H13.518V1.214H14.974V3.734H15.268V0.92H17.186V1.802H18.894V2.922H17.186V3.734H19.174V4.854ZM13.28 10.51V5.316H14.974V7.738L15.422 5.204H16.654L16.374 6.8H17.228L17.466 8.186V5.316H19.174V10.034V10.51V11H13.28V10.51ZM14.974 9.6V10.034H17.466V9.6H16.514L16.206 7.836L15.898 9.6H14.974ZM24.606 0.92L25.6 4.854H23.836L23.15 2.096H21.666L21.162 4.854H19.426L20.224 0.92H21.148H21.876H22.856H24.004H24.606ZM19.482 5.736H21.806L21.596 4.294H23.388L23.598 5.736H25.572L24.648 10.51H22.492L22.674 11H20.91L19.804 7.808H21.568L22.03 9.152H23.122L23.528 7.108H19.482V5.736Z" fill="white"/>
</svg>
