<svg width="40" height="40" viewBox="0 0 40 40" fill="none" xmlns="http://www.w3.org/2000/svg">
<rect width="40" height="40" rx="4" fill="#7340B3"/>
<g clip-path="url(#clip0_1615_29183)">
<path d="M10.4142 21.9706C9.63316 21.1896 9.63317 19.9232 10.4142 19.1422L18.9921 10.5643C19.384 10.1724 19.9212 9.96064 20.4752 9.97975L27.9941 10.239C29.0446 10.2752 29.8878 11.1184 29.924 12.1689L30.1833 19.6878C30.2024 20.2418 29.9906 20.779 29.5987 21.1709L21.0208 29.7488C20.2398 30.5298 18.9734 30.5298 18.1924 29.7488L10.4142 21.9706Z" stroke="white" stroke-width="1.5" stroke-linejoin="round"/>
<circle cx="23.849" cy="16.3137" r="2.5" transform="rotate(-45 23.849 16.3137)" stroke="white" stroke-width="1.5"/>
</g>
<defs>
<clipPath id="clip0_1615_29183">
<rect width="24" height="24" fill="white" transform="matrix(-1 0 0 1 32 8)"/>
</clipPath>
</defs>
</svg>
