<svg width="50" height="50" viewBox="0 0 50 50" fill="none" xmlns="http://www.w3.org/2000/svg">
<circle cx="25" cy="25" r="25" fill="#24DB5A"/>
<path d="M30.5301 19.9867C30.8746 19.9867 31.2191 19.9867 31.5637 20.043C30.5898 15.6203 25.8754 12.3438 20.4719 12.3438C14.4391 12.3438 9.49609 16.4816 9.49609 21.6531C9.49609 24.6414 11.1062 27.1691 13.8625 29.0676L12.7691 32.3441L16.6188 30.4492C17.9969 30.7375 19.0902 31.0223 20.4684 31.0223C20.8129 31.0223 21.1574 31.0223 21.5617 30.966C21.3332 30.2172 21.2172 29.4719 21.2172 28.6668C21.2207 23.8961 25.3023 19.9867 30.5301 19.9867ZM24.6098 16.9984C25.4711 16.9984 25.9879 17.5715 25.9879 18.3766C25.9879 19.1816 25.4148 19.7547 24.6098 19.7547C23.7484 19.7547 22.9434 19.1781 22.9434 18.3766C22.9434 17.5152 23.8082 16.9984 24.6098 16.9984ZM17.0055 19.5684C16.1371 19.5684 15.325 18.9988 15.325 18.2043C15.325 17.35 16.1934 16.8402 17.0055 16.8402C17.8176 16.8402 18.3941 17.4098 18.3941 18.2043C18.3977 19.0023 17.8176 19.5684 17.0055 19.5684Z" fill="white"/>
<path d="M40.532 28.551C40.532 24.1248 36.1656 20.5635 31.2227 20.5635C25.9914 20.5635 21.8535 24.1846 21.8535 28.551C21.8535 32.9771 25.9914 36.5385 31.2227 36.5385C32.316 36.5385 33.4059 36.2502 34.4992 35.9654L37.4875 37.6318L36.6824 34.8721C38.8656 33.2057 40.532 31.0225 40.532 28.551ZM28.1746 27.1729C27.6578 27.1729 27.0813 26.6561 27.0813 26.0795C27.0813 25.5627 27.6543 24.9861 28.1746 24.9861C28.9797 24.9861 29.5527 25.5592 29.5527 26.0795C29.5527 26.6561 29.0359 27.1729 28.1746 27.1729ZM34.4324 26.9057C33.9121 26.9057 33.332 26.3924 33.332 25.8264C33.332 25.3131 33.9121 24.7471 34.4324 24.7471C35.2445 24.7471 35.8211 25.3166 35.8211 25.8264C35.8211 26.3959 35.2445 26.9057 34.4324 26.9057Z" fill="white"/>
</svg>
