<svg width="24" height="24" viewBox="0 0 24 24" fill="none" xmlns="http://www.w3.org/2000/svg">
<path d="M12 23C5.928 23 1 18.072 1 12C1 5.928 5.928 1 12 1C18.072 1 23 5.928 23 12C23 18.072 18.072 23 12 23ZM12 2.045C6.522 2.045 2.045 6.522 2.045 12C2.045 17.478 6.511 21.955 12 21.955C17.489 21.955 21.955 17.489 21.955 12C21.955 6.511 17.478 2.045 12 2.045Z" fill="white"/>
<path d="M12.7705 12L16.8475 7.94896C17.0508 7.74694 17.0508 7.41733 16.8475 7.18341L16.8154 7.15152C16.6121 6.94949 16.2804 6.94949 16.077 7.15152L12 11.2344L7.92295 7.18341C7.71964 6.98139 7.38791 6.98139 7.18459 7.18341L7.15249 7.21531C6.94917 7.41733 6.94917 7.74694 7.15249 7.98086L11.2295 12L7.15249 16.051C6.94917 16.2531 6.94917 16.5827 7.15249 16.8166L7.18459 16.8485C7.38791 17.0505 7.71964 17.0505 7.92295 16.8485L12 12.7656L16.077 16.8166C16.2804 17.0186 16.6121 17.0186 16.8154 16.8166L16.8475 16.7847C17.0508 16.5827 17.0508 16.2531 16.8475 16.0191L12.7705 12Z" fill="white"/>
</svg>
