<svg width="16" height="16" viewBox="0 0 16 16" fill="none" xmlns="http://www.w3.org/2000/svg">
<path d="M4.59286 10.4678L4.5928 10.4679L4.59563 10.4707L4.6623 10.5374L4.72896 10.604L4.79968 10.5333L4.72897 10.604L7.79563 13.6707L8.2623 14.1374L8.33301 14.2081L8.40372 14.1374L8.87039 13.6707L12.0704 10.4707L12.0704 10.4708L12.0732 10.4678C12.889 9.58406 13.433 8.36027 13.433 7C13.433 4.21144 11.1216 1.9 8.33301 1.9C5.54445 1.9 3.23301 4.21144 3.23301 7C3.23301 8.36027 3.77707 9.58406 4.59286 10.4678ZM11.329 9.99596L8.33301 12.9919L5.27039 9.92929C4.55619 9.21509 4.09968 8.17402 4.09968 7C4.09968 4.65523 5.98824 2.76667 8.33301 2.76667C10.6778 2.76667 12.5663 4.65523 12.5663 7C12.5663 8.17285 12.1107 9.21426 11.329 9.99596ZM5.89968 7C5.89968 8.3219 7.01112 9.43333 8.33301 9.43333C9.65491 9.43333 10.7663 8.3219 10.7663 7C10.7663 5.6781 9.65491 4.56667 8.33301 4.56667C7.01112 4.56667 5.89968 5.6781 5.89968 7ZM9.89968 7C9.89968 7.8781 9.21112 8.56667 8.33301 8.56667C7.45491 8.56667 6.76634 7.8781 6.76634 7C6.76634 6.1219 7.45491 5.43333 8.33301 5.43333C9.21112 5.43333 9.89968 6.1219 9.89968 7Z" fill="#4A4A4A" stroke="#4A4A4A" stroke-width="0.2"/>
</svg>
