<svg width="339" height="42" viewBox="0 0 339 42" xmlns="http://www.w3.org/2000/svg">
<path d="M8 0.5H331C335.142 0.5 338.5 3.85786 338.5 8V41.5H0.5V8C0.5 3.85786 3.85786 0.5 8 0.5Z"/>
<mask id="mask0_1615_23142" style="mask-type:alpha" maskUnits="userSpaceOnUse" x="0" y="0" width="339" height="42">
<path d="M8 0.5H331C335.142 0.5 338.5 3.85786 338.5 8V41.5H0.5V8C0.5 3.85786 3.85786 0.5 8 0.5Z" fill="url(#paint0_linear_1615_23142)" />
</mask>
<g mask="url(#mask0_1615_23142)">
<rect opacity="0.2" x="0.5" y="0.5" width="338" height="3" fill="white" />
<g style="mix-blend-mode:lighten" opacity="0.2">
<path d="M150.791 41.5L170.263 0.5H338.5V41.5H150.791Z" fill="url(#paint1_linear_1615_23142)"/>
<path d="M150.791 41.5L170.263 0.5H338.5V41.5H150.791Z" stroke="black"/>
</g>
</g>
<defs>
<linearGradient id="paint0_linear_1615_23142" x1="1.94364e-06" y1="17.7188" x2="339" y2="17.7187" gradientUnits="userSpaceOnUse">
<stop stop-color="#7316E8"/>
<stop offset="1" stop-color="#D70FD7"/>
</linearGradient>
<linearGradient id="paint1_linear_1615_23142" x1="339.499" y1="21" x2="150" y2="21" gradientUnits="userSpaceOnUse">
<stop stop-color="white" stop-opacity="0"/>
<stop offset="1" stop-color="white"/>
</linearGradient>
</defs>
</svg>
