<svg width="16" height="16" viewBox="0 0 16 16" fill="none" xmlns="http://www.w3.org/2000/svg">
<g clip-path="url(#clip0_1615_23082)">
<path d="M16.0001 0H6.10352e-05V16H16.0001V0Z" fill="white" fill-opacity="0.01"/>
<path d="M4.18733 5.47005C3.0726 6.55335 0.721141 9.71509 2.45424 11.977C4.18733 14.2389 9.09409 13.3664 11.1197 11.7728C13.1453 10.1793 12.9454 9.19469 12.5062 8.76082C12.067 8.32699 10.7853 8.76542 10.4265 8.17509C10.0677 7.58475 11.0653 6.11009 10.2151 5.64345C9.36499 5.17682 7.89696 6.86009 7.23389 6.42272C6.57079 5.98535 7.96359 4.55735 7.23389 4.14589C6.50416 3.73439 5.30206 4.38675 4.18733 5.47005Z" stroke="#4A4A4A" stroke-linejoin="round"/>
<path d="M14.4595 5.50441C14.3811 4.46071 13.933 3.52017 13.2457 2.81336C12.5749 2.12348 11.6762 1.65627 10.6712 1.5332" stroke="#4A4A4A" stroke-linecap="round"/>
<path d="M12.4306 5.64419C12.3876 5.09762 12.1416 4.60505 11.7643 4.23489C11.396 3.87359 10.9026 3.62892 10.3509 3.56445" stroke="#4A4A4A" stroke-linecap="round"/>
<path d="M8.33331 9.99935C8.33331 10.7357 7.43788 11.3327 6.33331 11.3327C5.22875 11.3327 4.33331 10.7357 4.33331 9.99935C4.33331 9.26298 5.22875 8.66602 6.33331 8.66602C7.43788 8.66602 8.33331 9.26298 8.33331 9.99935Z" fill="#4A4A4A"/>
</g>
<defs>
<clipPath id="clip0_1615_23082">
<rect width="16" height="16" fill="white"/>
</clipPath>
</defs>
</svg>
