<svg width="16" height="16" viewBox="0 0 16 16" fill="none" xmlns="http://www.w3.org/2000/svg">
<g clip-path="url(#clip0_1615_23090)">
<path d="M16.0001 0H6.10352e-05V16H16.0001V0Z" fill="white" fill-opacity="0.01"/>
<g clip-path="url(#clip1_1615_23090)">
<path d="M15.7059 8.14628C15.6272 8.00195 15.5804 7.83985 15.4698 7.71328C15.2931 7.52232 15.0782 7.41573 14.825 7.39353C14.7718 7.38908 14.7165 7.3802 14.6633 7.37132C14.5973 7.36022 14.559 7.32691 14.559 7.24697C14.5612 7.01826 14.5527 6.78954 14.5633 6.56083C14.5782 6.28327 14.4846 6.05677 14.308 5.85693C14.2548 5.7681 14.176 5.70815 14.0909 5.65486C14.0611 5.65264 14.0462 5.62821 14.0292 5.60601C13.976 5.53273 13.8909 5.51052 13.8207 5.46611C13.6866 5.40394 13.5462 5.37729 13.4015 5.37285C13.3015 5.37063 13.2015 5.36619 13.1015 5.37285C12.9845 5.37951 12.9164 5.34621 12.9376 5.20853C12.9419 5.17745 12.9376 5.14636 12.9376 5.11527C12.9355 5.04422 12.8993 5.01091 12.8334 5.01313C12.5546 5.02645 12.2759 4.98204 11.9971 5.00869C11.8205 5.02423 11.8142 5.03089 11.8163 5.21297C11.8184 5.33288 11.7588 5.36841 11.6609 5.37285C11.546 5.37507 11.4311 5.37951 11.3162 5.37285C11.1928 5.36397 11.1418 5.42392 11.1418 5.54605C11.1396 5.8325 11.1396 6.11895 11.1418 6.40539C11.1418 6.52752 11.195 6.57859 11.3099 6.54751C11.4439 6.56527 11.578 6.55195 11.712 6.54751C11.7822 6.54529 11.8099 6.56971 11.8056 6.64743C11.7929 6.83395 11.7971 7.0227 11.8014 7.21144C11.8056 7.33801 11.7631 7.38686 11.6375 7.38242C11.3928 7.37354 11.1481 7.3802 10.9034 7.3802C10.8034 7.3802 10.729 7.41573 10.7375 7.52898C10.7587 7.82653 10.746 8.12186 10.746 8.4194C10.746 8.53265 10.7843 8.5593 10.8843 8.55708C11.1481 8.55042 11.4141 8.55486 11.678 8.55486C11.7801 8.55486 11.8312 8.58372 11.829 8.70807C11.8227 9.42308 11.8333 10.1381 11.8205 10.8509C11.8184 10.9419 11.8376 10.9863 11.9333 10.9841C12.2035 10.9797 12.4716 10.9797 12.7419 10.9952C12.9334 11.0063 12.9355 10.9974 12.9355 10.7976C12.9355 10.0981 12.9376 9.39865 12.9334 8.70141C12.9334 8.58594 12.961 8.55042 13.0738 8.55264C13.4781 8.5593 13.8845 8.55486 14.2888 8.55486C14.3739 8.55486 14.459 8.55708 14.5122 8.6459C14.5633 8.7325 14.5973 8.82576 14.5973 8.92346C14.5973 9.23434 14.6101 9.54521 14.5888 9.85608C14.5803 9.96489 14.5463 10.0004 14.4441 9.9982C14.176 9.99153 13.9079 9.9982 13.6398 9.99375C13.5802 10.0049 13.5781 10.0559 13.5781 10.1026C13.5845 10.298 13.7994 10.7954 14.0633 10.8487C14.125 10.9264 14.2207 10.9197 14.3016 10.9486C14.3526 11.0019 14.4229 10.9863 14.4824 10.9885C14.6697 10.9974 14.8612 11.0241 15.0442 10.9441C15.4336 10.8908 15.7272 10.4623 15.7272 10.1048C15.7272 9.54299 15.6953 8.9812 15.7485 8.4194C15.7655 8.32392 15.7506 8.22844 15.7059 8.14628ZM13.3781 7.40685H13.3483C12.9164 7.42461 12.9164 7.42461 12.9164 6.9583C12.9164 6.92722 12.9142 6.89613 12.9164 6.86504C12.927 6.75846 12.8653 6.60746 12.944 6.55639C13.0462 6.48755 13.1951 6.52974 13.3228 6.53863C13.4079 6.54529 13.4526 6.61856 13.4547 6.70294C13.4611 6.91167 13.4568 7.11818 13.459 7.32691C13.459 7.38686 13.4334 7.41129 13.3781 7.40685ZM7.17337 10.7976C7.3287 10.5134 7.47339 10.2225 7.59042 9.92048C7.63085 9.86052 7.69043 9.86274 7.75001 9.86274C8.0096 9.86496 8.2692 9.86052 8.52879 9.86496C8.62029 9.86718 8.66284 9.8472 8.66072 9.73617C8.65646 8.71917 8.65646 7.70218 8.66072 6.68518C8.66072 6.57859 8.62454 6.54973 8.53092 6.55417C8.38197 6.56083 8.23089 6.55195 8.08195 6.55639C7.99471 6.56083 7.9564 6.53418 7.95853 6.43426C7.96279 6.12561 7.96279 5.81918 7.95853 5.51052C7.9564 5.4106 7.99471 5.3884 8.08195 5.3884C8.82669 5.39062 9.57142 5.39284 10.3162 5.3884C10.4098 5.3884 10.4353 5.41948 10.4332 5.51497C10.4289 5.82362 10.4289 6.13005 10.4332 6.4387C10.4353 6.5253 10.4098 6.56083 10.3225 6.55639C10.1672 6.54973 10.0119 6.55861 9.85868 6.55417C9.77995 6.55195 9.74165 6.57193 9.74165 6.66519C9.74378 7.6933 9.74378 8.7214 9.74165 9.74728C9.74165 9.83832 9.77144 9.86274 9.85442 9.86274C10.1183 9.8583 10.3843 9.86496 10.6481 9.8583C10.7481 9.85608 10.7907 9.88051 10.7864 9.99597C10.7779 10.2713 10.78 10.5489 10.7864 10.8242C10.7885 10.9197 10.7715 10.9641 10.6651 10.9641C9.52036 10.9597 8.37559 10.9597 7.23082 10.9641C7.03931 10.9686 7.184 10.8575 7.17337 10.7976Z" fill="#2C2C2C"/>
<path d="M7.25213 5.12213C7.19468 5.19763 7.15638 5.28201 7.12659 5.37305C6.99254 5.60176 6.87551 5.83936 6.76911 6.08362C6.69677 6.22129 6.62442 6.36118 6.55208 6.49663C6.52654 6.54549 6.52654 6.59434 6.53931 6.64541C6.60314 6.72757 6.67123 6.73867 6.73081 6.64319C6.76911 6.58323 6.81805 6.56547 6.88189 6.56547C7.13084 6.56547 7.3798 6.56769 7.62876 6.56547C7.74153 6.56547 7.7543 6.60766 7.70536 6.70536C7.55428 7.01624 7.40321 7.32711 7.25851 7.6402C7.14787 7.87336 7.03722 8.10651 6.9287 8.34189C6.85848 8.49066 6.88614 8.53951 7.04786 8.54173C7.22021 8.54395 7.3947 8.54173 7.59897 8.54173C7.43512 8.8526 7.28618 9.13683 7.13297 9.42328C7.10318 9.47879 7.04786 9.46769 6.99892 9.46769C6.64357 9.46769 6.28823 9.46991 5.93288 9.46769C5.67541 9.46547 5.57328 9.33224 5.61583 9.06355C5.64562 8.87037 5.7435 8.70383 5.8201 8.52841C5.86053 8.43959 5.89883 8.34855 5.93713 8.25973C6.02863 8.07542 6.11587 7.89112 6.2095 7.70682C6.25844 7.61133 6.21162 7.60467 6.13715 7.60689C5.96692 7.60911 5.79883 7.60911 5.6286 7.60689C5.28815 7.60467 5.19027 7.4781 5.26474 7.12948C5.27113 7.09839 5.27325 7.06731 5.27751 7.03844C5.55625 6.44556 5.83713 5.85046 6.11587 5.25758C6.17971 5.05552 6.32227 5.02221 6.50739 5.03553C6.72443 5.05108 6.9436 5.03997 7.16063 5.03775C7.22021 5.03553 7.27766 5.03109 7.25213 5.12213Z" fill="#2C2C2C"/>
<path d="M7.25931 7.63982C7.29335 7.46218 7.39549 7.31785 7.46783 7.15797C7.54869 6.97589 7.63806 6.79602 7.73594 6.59618H6.84438C6.79331 6.59618 6.76991 6.63392 6.73799 6.66945C6.66777 6.74273 6.5933 6.76271 6.5401 6.64503C6.61032 6.68278 6.68054 6.71608 6.72309 6.60728C6.74863 6.54066 6.80608 6.54288 6.8614 6.54288C7.13589 6.54288 7.41038 6.5451 7.68487 6.54066C7.78062 6.53844 7.8019 6.56287 7.75296 6.65391C7.71041 6.73607 7.67636 6.82267 7.64019 6.90705C7.51252 7.15131 7.38698 7.39556 7.25931 7.63982Z" fill="#2C2C2C"/>
<path d="M6.6193 10.8488C6.56823 10.951 6.4895 10.9776 6.37886 10.9754C6.03628 10.9665 5.69157 10.971 5.34899 10.9732C5.24472 10.9732 5.14046 10.9687 5.03833 10.9399C4.93406 10.8777 4.93619 10.8044 4.99151 10.7001C5.13408 10.4336 5.26175 10.1605 5.40006 9.89179C5.42559 9.84072 5.4341 9.76744 5.5107 9.76078C5.58092 9.83628 5.67455 9.82962 5.76179 9.82962C6.16607 9.83184 6.57036 9.83184 6.97465 9.8274C7.08529 9.82518 7.11721 9.84072 7.0555 9.96063C6.90868 10.256 6.74484 10.5424 6.6193 10.8488ZM2.74666 10.6268C2.70623 10.6779 2.66793 10.7312 2.6275 10.7822C2.3296 11.0287 1.98915 10.971 1.65083 10.9399C1.50401 10.871 1.37208 10.78 1.26144 10.6601C1.17207 10.5069 1.11674 10.3426 1.09121 10.1649C1.07419 10.045 1.11249 10.0184 1.21675 10.025C1.3657 10.0317 1.51677 10.0206 1.66572 10.0295C1.77424 10.0361 1.79765 9.99394 1.79765 9.88735C1.79339 8.93253 1.79552 7.9777 1.79552 7.02288C1.79552 6.36116 1.8019 5.69723 1.80403 5.03551C2.1232 5.03551 2.44451 5.03995 2.76368 5.03551C2.85518 5.03329 2.88284 5.06438 2.88284 5.15986C2.88071 6.81415 2.88071 8.46622 2.88071 10.1205C2.88071 10.3026 2.80836 10.4625 2.74666 10.6268ZM0.169861 10.0739C0.133688 10.0161 0.0975151 9.96063 0.0613421 9.9029C0.00601861 9.763 -0.0641996 9.62977 -0.145057 9.50542C-0.287621 9.30114 -0.24932 9.09018 -0.196125 8.85925C-0.0322822 8.14202 0.0209135 7.40925 -0.0173874 6.67204C-0.0216431 6.58321 -0.0110039 6.54102 0.0890038 6.54325C0.382644 6.54991 0.678411 6.54769 0.972051 6.54325C1.05716 6.54325 1.09972 6.56101 1.09759 6.66315C1.0678 7.61132 1.03801 8.55726 0.810336 9.48322C0.774163 9.62977 0.725223 9.76966 0.682667 9.914C0.676283 9.91622 0.6699 9.91622 0.661389 9.91622C0.627343 9.95175 0.62096 10.0028 0.599682 10.045L0.60181 10.0428C0.550742 10.0783 0.546486 10.1472 0.50393 10.1893C0.482652 10.2115 0.463501 10.236 0.442223 10.2582C0.35711 10.3492 0.295403 10.3426 0.250719 10.216C0.233696 10.1671 0.212418 10.1116 0.169861 10.0739Z" fill="#2C2C2C"/>
<path d="M14.7567 5.59723C14.944 5.39738 15.1632 5.34853 15.4142 5.43957C15.5802 5.55282 15.6972 5.69937 15.71 5.91698C15.727 6.20121 15.5398 6.45657 15.2653 6.49209C15.0589 6.51874 14.8482 6.52096 14.6397 6.48987C14.6418 6.35664 14.6503 6.22119 14.644 6.08796C14.6397 5.91254 14.6674 5.74822 14.7567 5.59723Z" fill="#2C2C2C"/>
<path d="M4.51792 10.0983C4.47324 10.1427 4.4477 10.1982 4.43068 10.2604C4.37961 10.3692 4.32003 10.367 4.2413 10.287C4.07959 10.1227 3.99873 9.91175 3.92638 9.69636C3.90936 9.64307 3.89021 9.59199 3.87106 9.5387C3.78169 9.1057 3.70296 8.67048 3.66679 8.22859C3.61998 7.6668 3.56891 7.10723 3.60083 6.54321C3.92639 6.54321 4.24981 6.54987 4.57537 6.54543C4.67112 6.54321 4.7073 6.56986 4.70091 6.67644C4.66261 7.50914 4.7307 8.33074 4.94136 9.13901C4.96051 9.21006 4.94349 9.27002 4.91157 9.33219C4.82858 9.49207 4.74985 9.65417 4.669 9.81405C4.60516 9.89843 4.55622 9.99391 4.51792 10.0983Z" fill="#2C2C2C"/>
<path d="M0.502991 10.1912C0.518001 10.1291 0.530868 10.0669 0.601632 10.0447C0.586622 10.0824 0.571611 10.1224 0.5566 10.1601C0.539445 10.169 0.52229 10.1801 0.502991 10.1912Z" fill="#2C2C2C"/>
<path d="M0.599802 10.0475C0.597675 9.99198 0.612569 9.94535 0.661509 9.9187C0.659381 9.96977 0.638103 10.012 0.599802 10.0475ZM0.169983 10.0741C0.227434 10.0897 0.246584 10.143 0.259351 10.1896C0.291269 10.3073 0.357231 10.3073 0.442344 10.2607C0.372126 10.3895 0.306163 10.3695 0.242329 10.254C0.233817 10.2051 0.210411 10.1674 0.178494 10.1319C0.176366 10.1119 0.172111 10.0941 0.169983 10.0741Z" fill="#2C2C2C"/>
</g>
</g>
<defs>
<clipPath id="clip0_1615_23090">
<rect width="16" height="16" fill="white"/>
</clipPath>
<clipPath id="clip1_1615_23090">
<rect width="16" height="16" fill="white"/>
</clipPath>
</defs>
</svg>
