<svg width="16" height="16" viewBox="0 0 16 16" fill="none" xmlns="http://www.w3.org/2000/svg">
<g clip-path="url(#clip0_1615_23062)">
<path d="M16.0001 0H6.10352e-05V16H16.0001V0Z" fill="white" fill-opacity="0.01"/>
<path d="M12.3325 7.23707C12.2812 4.33597 9.91345 2 7.00008 2C4.05455 2 1.66675 4.3878 1.66675 7.33333C1.66675 8.72337 2.19852 9.9892 3.06972 10.9385L2.67022 13.3419L5.04175 12.3233C6.08665 12.6707 7.07275 12.7576 8.00008 12.5839" stroke="#4A4A4A" stroke-linecap="round" stroke-linejoin="round"/>
<path d="M5.04181 6.82168C5.45601 6.82168 5.79181 6.48341 5.79181 6.06611C5.79181 5.64885 5.45601 5.31055 5.04181 5.31055C4.62761 5.31055 4.29181 5.64885 4.29181 6.06611C4.29181 6.48341 4.62761 6.82168 5.04181 6.82168Z" fill="#4A4A4A"/>
<path d="M8.04181 6.82168C8.45601 6.82168 8.79181 6.48341 8.79181 6.06611C8.79181 5.64885 8.45601 5.31055 8.04181 5.31055C7.62761 5.31055 7.29181 5.64885 7.29181 6.06611C7.29181 6.48341 7.62761 6.82168 8.04181 6.82168Z" fill="#4A4A4A"/>
<path d="M12.9206 13.3098C12.3379 13.7434 11.6156 14 10.8334 14C8.90037 14 7.33337 12.433 7.33337 10.5C7.33337 8.567 8.90037 7 10.8334 7C12.7664 7 14.3334 8.567 14.3334 10.5C14.3334 11.0332 14.2141 11.5386 14.0008 11.9909" stroke="#4A4A4A" stroke-linecap="round" stroke-linejoin="round"/>
<path d="M14.0009 11.9902L14.3334 13.9993L12.9207 13.3091" stroke="#4A4A4A" stroke-linecap="round" stroke-linejoin="round"/>
<path d="M11.8958 10.2661C11.5851 10.2661 11.3333 10.0124 11.3333 9.69948C11.3333 9.38651 11.5851 9.13281 11.8958 9.13281C12.2065 9.13281 12.4583 9.38651 12.4583 9.69948C12.4583 10.0124 12.2065 10.2661 11.8958 10.2661Z" fill="#4A4A4A"/>
<path d="M9.64581 10.2661C9.33515 10.2661 9.08331 10.0124 9.08331 9.69948C9.08331 9.38651 9.33515 9.13281 9.64581 9.13281C9.95648 9.13281 10.2083 9.38651 10.2083 9.69948C10.2083 10.0124 9.95648 10.2661 9.64581 10.2661Z" fill="#4A4A4A"/>
</g>
<defs>
<clipPath id="clip0_1615_23062">
<rect width="16" height="16" fill="white"/>
</clipPath>
</defs>
</svg>
