<svg width="40" height="40" viewBox="0 0 40 40" fill="none" xmlns="http://www.w3.org/2000/svg">
<rect width="40" height="40" fill="white"/>
<path d="M24.0365 16.4759C24.326 16.7723 24.3204 17.2471 24.0241 17.5365L19.7241 21.7365C19.4302 22.0236 18.9601 22.0208 18.6697 21.7303L16.4697 19.5303C16.1768 19.2374 16.1768 18.7626 16.4697 18.4697C16.7626 18.1768 17.2374 18.1768 17.5303 18.4697L19.2062 20.1455L22.9759 16.4635C23.2723 16.174 23.7471 16.1796 24.0365 16.4759Z" fill="#404040"/>
<path fill-rule="evenodd" clip-rule="evenodd" d="M27 9.25C27.9665 9.25 28.75 10.0335 28.75 11V25.25H31C31.4142 25.25 31.75 25.5858 31.75 26V27C31.75 29.0711 30.0711 30.75 28 30.75H15C12.9289 30.75 11.25 29.0711 11.25 27V14.75L9 14.75C8.58579 14.75 8.25 14.4142 8.25 14V13C8.25 10.9289 9.92893 9.25 12 9.25L27 9.25ZM11.25 13.25V10.878C10.3761 11.1869 9.75 12.0203 9.75 13V13.25L11.25 13.25ZM12.75 27C12.75 28.2426 13.7574 29.25 15 29.25C16.2426 29.25 17.25 28.2426 17.25 27V26C17.25 25.5858 17.5858 25.25 18 25.25H27.25V11C27.25 10.8619 27.1381 10.75 27 10.75H12.75V27ZM18.0003 29.25H28C29.2426 29.25 30.25 28.2426 30.25 27V26.75H18.75V27C18.75 27.8442 18.471 28.6233 18.0003 29.25Z" fill="#404040"/>
</svg>
