<svg width="16" height="16" viewBox="0 0 16 16" fill="none" xmlns="http://www.w3.org/2000/svg">
<path d="M16 0H0V16H16V0Z" fill="white" fill-opacity="0.01"/>
<path fill-rule="evenodd" clip-rule="evenodd" d="M8.04995 2.01293C7.88658 2.06224 7.68751 2.24605 7.68751 2.61535C7.68751 2.97142 7.5657 3.36527 7.44928 3.669C7.32786 3.98574 7.18752 4.26649 7.10587 4.41682C6.57781 5.38912 5.62027 6.07683 5.0583 6.42271V13.0631H5.10437C5.37952 13.0631 5.60257 13.2862 5.60257 13.5613C5.60257 13.8364 5.37952 14.0595 5.10437 14.0595H3.01943C2.45642 14.0595 2 13.6031 2 13.0401V6.78522C2 6.22221 2.45642 5.76579 3.01943 5.76579H3.8504C4.09094 5.76579 4.3054 5.71335 4.47845 5.6092C4.99462 5.29854 5.81344 4.70878 6.23027 3.94128C6.29634 3.81964 6.41662 3.57916 6.51889 3.31236C6.62615 3.03255 6.6911 2.78054 6.6911 2.61535C6.6911 1.84372 7.14356 1.24571 7.76204 1.05904C8.40227 0.8658 9.09833 1.1496 9.45922 1.87132C9.77279 2.49842 9.7726 3.12157 9.77245 3.62461C9.77244 3.63572 9.77244 3.64676 9.77244 3.65775C9.77244 4.33555 9.53618 4.90652 9.3486 5.35984C9.30403 5.46755 9.2622 5.56862 9.22695 5.66291C9.21909 5.68393 9.22051 5.7128 9.23818 5.73987C9.2463 5.7523 9.25482 5.75913 9.26019 5.76222C9.26429 5.76459 9.26791 5.76579 9.27424 5.76579H11.0986C11.3737 5.76579 11.5968 5.98884 11.5968 6.26399C11.5968 6.53914 11.3737 6.76219 11.0986 6.76219H9.27424C8.50694 6.76219 8.04769 5.97179 8.29365 5.31396C8.35017 5.1628 8.40642 5.02502 8.45948 4.89503C8.63521 4.46458 8.77604 4.11962 8.77604 3.65775C8.77604 3.12398 8.76877 2.7184 8.56803 2.31696C8.40766 1.99625 8.19157 1.97019 8.04995 2.01293ZM4.0619 13.0631V6.7535C3.99098 6.7594 3.92035 6.76219 3.8504 6.76219H3.01943C3.00671 6.76219 2.9964 6.7725 2.9964 6.78522V13.0401C2.9964 13.0528 3.00671 13.0631 3.01943 13.0631H4.0619ZM14.056 4.90122C14.2668 5.07809 14.2943 5.39233 14.1174 5.6031L6.38181 14.822C6.20495 15.0328 5.89071 15.0603 5.67993 14.8834C5.46916 14.7066 5.44166 14.3923 5.61853 14.1816L13.3541 4.96263C13.531 4.75185 13.8452 4.72436 14.056 4.90122ZM13.8462 6.23529C14.0495 6.04992 14.3646 6.06448 14.55 6.26781C14.8804 6.63025 15.0389 7.15121 14.9067 7.68012L13.6036 12.8925C13.4321 13.5784 12.8159 14.0595 12.1089 14.0595L8.34604 14.0595C8.07089 14.0595 7.84784 13.8364 7.84784 13.5613C7.84784 13.2861 8.07089 13.0631 8.34604 13.0631L12.1089 13.0631C12.3587 13.0631 12.5764 12.8931 12.637 12.6508L13.94 7.43846C13.9867 7.25187 13.9326 7.06952 13.8137 6.9391C13.6283 6.73577 13.6429 6.42066 13.8462 6.23529Z" fill="#7F7F7F"/>
</svg>
