<svg width="16" height="16" viewBox="0 0 16 16" fill="none" xmlns="http://www.w3.org/2000/svg">
<path d="M4.13346 4.13346C3.95551 4.31141 3.95551 4.59993 4.13346 4.77789L7.35558 8L4.13346 11.2221C3.95551 11.4001 3.95551 11.6886 4.13346 11.8665C4.31142 12.0445 4.59994 12.0445 4.77789 11.8665L8 8.64442L11.2221 11.8665C11.4001 12.0445 11.6886 12.0445 11.8665 11.8665C12.0445 11.6886 12.0445 11.4001 11.8665 11.2221L8.64442 8L11.8665 4.77789C12.0445 4.59994 12.0445 4.31142 11.8665 4.13346C11.6886 3.95551 11.4001 3.95551 11.2221 4.13346L8 7.35558L4.77789 4.13346C4.59993 3.95551 4.31141 3.95551 4.13346 4.13346Z" fill="#808080"/>
</svg>
