<svg width="260" height="201" viewBox="0 0 260 201" fill="none" xmlns="http://www.w3.org/2000/svg">
<path d="M79.2307 105.438C77.5098 105.44 75.86 106.128 74.6432 107.351C73.4263 108.574 72.7419 110.232 72.74 111.962C70.2722 130.222 69.4481 148.67 70.2775 167.079C70.3268 168.254 70.3814 169.33 70.4448 170.367C70.5368 172.08 70.6538 173.888 70.7922 175.743C70.8717 176.837 70.9556 177.934 71.0474 179.028C71.2011 180.809 71.37 182.619 71.5498 184.407C71.6626 185.499 71.7798 186.597 71.9051 187.69C72.1458 189.838 72.4181 192.039 72.7381 194.42C72.7349 196.154 73.4171 197.818 74.6346 199.047C75.8521 200.275 77.5053 200.968 79.2307 200.971H188.106C189.827 200.969 191.477 200.282 192.694 199.059C193.911 197.836 194.595 196.178 194.597 194.448L194.602 194.403C195.087 192.182 195.539 189.92 195.945 187.677C196.162 186.494 196.349 185.42 196.518 184.394C196.823 182.525 197.095 180.715 197.325 179.017C197.482 177.876 197.624 176.772 197.748 175.733C197.95 174.033 198.134 172.275 198.308 170.36C198.403 169.319 198.491 168.244 198.576 167.074V167.073C199.907 148.621 198.568 130.073 194.602 112.007L194.597 111.962C194.595 110.232 193.911 108.574 192.694 107.351C191.477 106.128 189.827 105.44 188.106 105.438L79.2307 105.438Z" fill="#3F3D56"/>
<path d="M137.896 133.365C114.305 133.365 89.3072 131.21 56.5909 126.9H56.5874C54.8913 126.898 53.2558 126.266 51.9944 125.127C50.733 123.987 49.9344 122.42 49.7518 120.725C49.722 120.471 49.7076 120.214 49.7087 119.958V100.178C49.7079 100.136 49.7098 100.093 49.7144 100.051C49.7512 98.2338 50.4941 96.503 51.7843 95.229C53.0744 93.955 54.8094 93.2389 56.6181 93.2338C113.537 85.4559 148.114 85.4567 210.745 93.2354H210.748C212.555 93.2474 214.287 93.9694 215.572 95.2472C216.857 96.5251 217.594 98.2573 217.625 100.074C217.628 100.108 217.63 100.143 217.629 100.178V119.958C217.63 120.215 217.615 120.472 217.585 120.728C217.4 122.427 216.596 123.997 215.329 125.136C214.062 126.276 212.42 126.905 210.719 126.902C183.66 131.21 161.481 133.365 137.896 133.365Z" />
<path d="M141.68 147.103H127.367C125.545 147.101 123.798 146.372 122.51 145.078C121.222 143.783 120.497 142.028 120.495 140.197V87.9351C120.497 86.1042 121.222 84.3489 122.51 83.0543C123.798 81.7596 125.545 81.0314 127.367 81.0293H141.68C143.502 81.0314 145.248 81.7596 146.537 83.0542C147.825 84.3489 148.549 86.1042 148.552 87.9351V140.197C148.549 142.028 147.825 143.783 146.537 145.078C145.248 146.372 143.502 147.101 141.68 147.103Z" fill="#3F3D56"/>
<path d="M174.177 71.0288C174.073 70.049 173.89 69.0793 173.631 68.1292C173.351 67.1772 172.996 66.249 172.57 65.3534C171.043 62.0603 168.468 59.3727 165.251 57.7155C161.258 55.7402 156.691 55.5786 152.399 56.5303C148.79 57.3426 145.402 58.9369 142.47 61.2019C140.95 62.3529 139.561 63.6693 138.329 65.127C137.057 66.6608 134.691 70.8746 134.52 71.2647C133.183 68.2125 131.263 65.453 128.87 63.142C126.089 60.4887 122.769 58.4721 119.138 57.2309C117.208 56.5773 115.204 56.168 113.173 56.0124C111.024 55.8328 108.86 56.0225 106.775 56.5734C103.028 57.6279 99.788 60.0085 97.6513 63.2761C95.6153 66.313 94.6154 69.9321 94.8018 73.5892C94.9049 75.4356 95.3011 77.2536 95.9754 78.9743C96.3369 79.9058 96.7655 80.8094 97.2579 81.6781C97.7675 82.5361 98.3372 83.3566 98.9628 84.1332C101.418 87.1609 104.724 89.3738 108.451 90.4827C112.429 91.7183 116.649 91.7587 120.739 91.1786C124.94 90.5829 128.984 89.2162 132.94 87.7195C133.468 87.5198 133.993 87.3143 134.52 87.1109C138.037 88.4708 141.584 89.7823 145.266 90.6148C149.408 91.6201 153.707 91.7934 157.916 91.1246C161.839 90.4774 165.487 88.6868 168.406 85.9748C171.108 83.42 172.998 80.1206 173.841 76.4903C174.257 74.7016 174.37 72.8553 174.177 71.0288V71.0288ZM119.647 87.1129C117.376 87.4052 115.079 87.4188 112.805 87.1531C111.176 86.9157 109.579 86.4887 108.048 85.8805C104.438 84.3698 101.561 81.4986 100.032 77.8819C99.5748 76.7417 99.2493 75.5526 99.0617 74.338C98.9414 73.2573 98.9411 72.1665 99.0607 71.0858C99.2388 69.9488 99.544 68.8356 99.9704 67.7673C100.432 66.7283 101.004 65.743 101.678 64.8288C102.332 64.0109 103.07 63.2654 103.881 62.6049C104.65 62.0335 105.477 61.5463 106.349 61.1516C107.39 60.7432 108.472 60.4522 109.577 60.284C111.073 60.1175 112.583 60.1294 114.076 60.3193C115.853 60.595 117.593 61.0768 119.259 61.7551C121.032 62.5283 122.707 63.5099 124.25 64.6793C125.677 65.8159 126.971 67.1123 128.106 68.5435C129.23 70.046 130.173 71.6773 130.914 73.4031C131.635 75.2037 132.141 77.0836 132.422 79.0037L132.425 79.0318C132.316 79.9965 132.261 80.9667 132.261 81.9377C132.262 82.3117 132.278 82.6853 132.297 83.0587C132.12 83.2299 131.972 83.4293 131.86 83.6488C128.944 84.7989 125.954 85.7519 122.91 86.5014C121.832 86.7517 120.744 86.9555 119.647 87.1129ZM169.987 74.3378C169.8 75.5527 169.474 76.7419 169.017 77.8822C167.495 81.5039 164.616 84.3774 161.001 85.8805C159.47 86.4887 157.873 86.9158 156.244 87.1531C153.966 87.4192 151.664 87.4052 149.39 87.1114C145.35 86.5308 141.452 85.2492 137.64 83.8189C137.483 83.76 137.328 83.6979 137.171 83.6386C137.065 83.4223 136.924 83.2251 136.753 83.0549C136.821 81.6998 136.779 80.3415 136.628 78.9932C136.91 77.0768 137.416 75.2004 138.135 73.4031C138.876 71.6774 139.819 70.0461 140.943 68.5437C142.078 67.1124 143.372 65.8159 144.799 64.6793C146.342 63.5099 148.017 62.5283 149.79 61.7551C151.456 61.0769 153.196 60.5951 154.973 60.3193C156.466 60.1294 157.976 60.1176 159.472 60.284C160.577 60.4522 161.659 60.7432 162.7 61.1516C163.572 61.5463 164.399 62.0336 165.168 62.6051C165.979 63.2655 166.717 64.011 167.371 64.829C168.045 65.7431 168.617 66.7284 169.079 67.7673C169.505 68.8356 169.81 69.9488 169.988 71.0858C170.108 72.1665 170.108 73.2572 169.987 74.3378V74.3378Z" fill="#3F3D56"/>
<path fill-rule="evenodd" clip-rule="evenodd" d="M158.261 163.221C157.574 161.656 156.656 160.253 155.423 159.082C149.941 153.87 141.118 156.087 138.493 163.331C137.924 164.904 137.626 166.526 137.629 168.21C137.64 175.527 137.634 182.843 137.634 190.16C137.634 191.404 137.633 191.404 136.297 191.328C136.282 191.089 136.256 190.838 136.256 190.587C136.253 182.32 136.24 174.054 136.257 165.787C136.268 160.301 139.219 155.866 143.982 154.132C144.556 153.923 145.156 153.775 145.755 153.655C146.35 153.534 146.958 153.487 147.562 153.406C146.82 149.982 140.627 146.003 135.599 145.814C129.719 145.593 124.709 149.386 122.779 153.404C123.351 153.476 123.909 153.517 124.455 153.619C129.509 154.556 133.216 158.427 133.942 163.549C134.071 164.463 134.148 165.392 134.151 166.316C134.167 174.392 134.154 182.469 134.17 190.545C134.172 191.181 134.024 191.448 133.34 191.37C132.835 191.312 132.733 191.092 132.736 190.635C132.752 188.069 132.743 185.504 132.743 182.938C132.743 177.855 132.788 172.771 132.726 167.687C132.689 164.652 131.751 161.876 129.688 159.606C125.303 154.781 116.514 154.638 112.57 162.355C112.413 162.663 112.272 162.979 112.054 163.437C113.934 152.245 124.109 143.8 135.444 144.004C147.641 144.222 156.479 153.112 158.261 163.221Z" fill="white"/>
<path fill-rule="evenodd" clip-rule="evenodd" d="M143.248 189.955C143.223 189.723 143.189 189.562 143.189 189.4C143.194 185.078 143.164 180.755 143.226 176.433C143.256 174.315 143.823 172.324 145.424 170.819C147.481 168.887 149.933 168.687 152.419 169.661C154.888 170.629 156.142 172.665 156.319 175.294C156.503 178.034 155.327 180.317 153.684 182.393C151.073 185.694 147.818 188.136 143.94 189.739C143.73 189.827 143.505 189.876 143.248 189.955Z" fill="white"/>
<path fill-rule="evenodd" clip-rule="evenodd" d="M127.137 190.124C125.611 189.332 124.169 188.69 122.836 187.869C119.776 185.983 117.21 183.55 115.382 180.415C114.373 178.685 113.805 176.803 114.12 174.761C114.612 171.573 116.991 169.328 119.994 169.179C123.536 169.001 126.005 170.765 126.837 174.15C127.061 175.062 127.177 176.023 127.186 176.963C127.223 181.048 127.202 185.132 127.2 189.215C127.199 189.443 127.169 189.669 127.137 190.124Z" fill="white"/>
<path fill-rule="evenodd" clip-rule="evenodd" d="M130.635 190.868C129.462 190.93 129.3 190.79 129.3 189.734C129.299 183.89 129.299 178.047 129.299 172.204C129.299 168.718 127.571 165.967 124.656 164.809C121.25 163.457 117.488 164.209 115.158 166.671C113.41 168.518 112.803 170.782 112.68 173.24C112.668 173.475 112.65 173.71 112.49 173.974C112.366 173.385 112.206 172.799 112.123 172.204C111.793 169.829 112.096 167.569 113.388 165.496C114.283 164.062 115.479 162.983 117.07 162.407C120.485 161.169 123.842 161.284 127.063 163.032C129.43 164.318 130.642 166.413 130.662 169.081C130.715 176.206 130.681 183.333 130.679 190.459C130.679 190.597 130.65 190.735 130.635 190.868Z" fill="white"/>
<path fill-rule="evenodd" clip-rule="evenodd" d="M139.688 190.899V190.016C139.688 183.437 139.759 176.858 139.666 170.281C139.591 164.947 142.551 162.658 146.722 161.814C148.844 161.384 150.959 161.549 153 162.281C156.513 163.542 158.626 167 158.372 171.076C158.308 172.078 158.097 173.071 157.871 174.038C157.672 172.802 157.586 171.533 157.255 170.333C155.502 163.978 148.623 162.713 144.289 165.603C142.034 167.107 141.099 169.416 141.09 172.091C141.071 177.934 141.085 183.777 141.084 189.618C141.084 190.821 141.052 190.852 139.688 190.899Z" fill="white"/>
</svg>
