<svg width="16" height="16" viewBox="0 0 16 16" fill="none" xmlns="http://www.w3.org/2000/svg">
<path d="M16 0H0V16H16V0Z" fill="white" fill-opacity="0.01"/>
<path fill-rule="evenodd" clip-rule="evenodd" d="M6.43048 0.666992C6.18702 0.666992 5.96291 0.799711 5.84588 1.0132L4.93933 2.66699H3.00016H1.33415C0.965957 2.66699 0.66748 2.96547 0.66748 3.33366C0.66748 3.70185 0.965957 4.00033 1.33415 4.00033H2.3335V14.667C2.3335 15.0352 2.63197 15.3337 3.00016 15.3337H13.0002C13.3684 15.3337 13.6668 15.0352 13.6668 14.667V4.00033H14.6675C15.0357 4.00033 15.3341 3.70185 15.3341 3.33366C15.3341 2.96547 15.0357 2.66699 14.6675 2.66699H13.0002H11.0661L10.1805 1.01819C10.0643 0.801917 9.83868 0.666992 9.59318 0.666992H6.43048ZM9.55262 2.66699L9.19452 2.00033H6.82529L6.45985 2.66699H9.55262ZM5.33415 4.00033H3.66683V14.0003H12.3335V4.00033H10.6675H5.33415ZM6.66618 6C7.03437 6 7.33284 6.29848 7.33284 6.66667V11C7.33284 11.3682 7.03437 11.6667 6.66618 11.6667C6.29799 11.6667 5.99951 11.3682 5.99951 11V6.66667C5.99951 6.29848 6.29799 6 6.66618 6ZM10.0008 6.66667C10.0008 6.29848 9.70234 6 9.33415 6C8.96596 6 8.66748 6.29848 8.66748 6.66667V11C8.66748 11.3682 8.96596 11.6667 9.33415 11.6667C9.70234 11.6667 10.0008 11.3682 10.0008 11V6.66667Z" fill="#7F7F7F"/>
</svg>
