<svg width="16" height="16" viewBox="0 0 16 16" fill="none" xmlns="http://www.w3.org/2000/svg">
<path d="M0 16L16 16L16 0L1.39876e-06 -1.39876e-06L0 16Z" fill="white" fill-opacity="0.01"/>
<path fill-rule="evenodd" clip-rule="evenodd" d="M15.3315 7.99988C15.3315 12.049 12.049 15.3315 7.99988 15.3315C3.95071 15.3315 0.668209 12.049 0.66821 7.99987C0.66821 3.95071 3.95071 0.668208 7.99988 0.668208C12.049 0.668209 15.3315 3.95071 15.3315 7.99988ZM7.99988 14.0015C11.3145 14.0015 14.0015 11.3145 14.0015 7.99988C14.0015 4.68525 11.3145 1.99821 7.99988 1.99821C4.68525 1.99821 1.99821 4.68524 1.99821 7.99987C1.99821 11.3145 4.68525 14.0015 7.99988 14.0015ZM7.33504 9.22808L5.47027 7.36331C5.21057 7.10361 4.78951 7.10361 4.52981 7.36331C4.27011 7.62301 4.27011 8.04406 4.52981 8.30376L7.52981 11.3038C7.78951 11.5635 8.21057 11.5635 8.47027 11.3038L11.4703 8.30376C11.73 8.04406 11.73 7.62301 11.4703 7.36331C11.2106 7.10361 10.7895 7.10361 10.5298 7.36331L8.66504 9.22808L8.66504 5.00004C8.66504 4.63277 8.36731 4.33504 8.00004 4.33504C7.63277 4.33504 7.33504 4.63277 7.33504 5.00004L7.33504 9.22808Z" />
</svg>
