<svg width="16" height="16" viewBox="0 0 16 16" fill="none" xmlns="http://www.w3.org/2000/svg">
<path d="M16 0H0V16H16V0Z" fill="white" fill-opacity="0.01"/>
<path d="M13.5 11.5H2.5C2.22386 11.5 2 11.7239 2 12V13.6667C2 13.9428 2.22386 14.1667 2.5 14.1667H13.5C13.7761 14.1667 14 13.9428 14 13.6667V12C14 11.7239 13.7761 11.5 13.5 11.5Z" stroke="#7340B3" stroke-linejoin="round"/>
<path d="M13.5 6H2.5C2.22386 6 2 6.22386 2 6.5V8.16667C2 8.44281 2.22386 8.66667 2.5 8.66667H13.5C13.7761 8.66667 14 8.44281 14 8.16667V6.5C14 6.22386 13.7761 6 13.5 6Z" stroke="#7340B3" stroke-linejoin="round"/>
<path d="M10 3L8 1L6 3" stroke="#7340B3" stroke-linecap="round" stroke-linejoin="round"/>
<path d="M8 9.3335V11.3335" stroke="#7340B3" stroke-linecap="round" stroke-linejoin="round"/>
<path d="M8 1V5.66667" stroke="#7340B3" stroke-linecap="round" stroke-linejoin="round"/>
</svg>
