<svg width="170" height="106" viewBox="0 0 170 106" fill="none" xmlns="http://www.w3.org/2000/svg">
<mask id="mask0_4313_39365" style="mask-type:alpha" maskUnits="userSpaceOnUse" x="0" y="0" width="170" height="106">
<rect width="170" height="106" rx="8" fill="#C4C4C4"/>
</mask>
<g mask="url(#mask0_4313_39365)">
<path fill-rule="evenodd" clip-rule="evenodd" d="M168.52 71.0196C166.017 65.3161 162.674 60.2061 158.182 55.9408C138.212 36.9543 106.069 45.0317 96.5102 71.4188C94.4353 77.1485 93.3519 83.0586 93.3596 89.1921C93.3994 115.846 93.378 142.498 93.378 169.15C93.378 173.682 93.3765 173.682 88.5081 173.406C88.456 172.536 88.3579 171.621 88.3579 170.707C88.3472 140.593 88.3028 110.482 88.3641 80.3671C88.4039 60.3803 99.1535 44.2255 116.503 37.9085C118.593 37.147 120.781 36.6075 122.964 36.1697C125.129 35.7319 127.343 35.5577 129.547 35.2648C126.844 22.7896 104.284 8.29812 85.9674 7.60908C64.5463 6.80134 46.2973 20.6207 39.2652 35.2587C41.3508 35.5207 43.3812 35.6687 45.3717 36.0387C63.7817 39.4546 77.2865 53.5546 79.9299 72.2142C80.4018 75.5438 80.6807 78.9274 80.6899 82.2924C80.7482 111.713 80.7022 141.134 80.7619 170.555C80.7681 172.872 80.2287 173.844 77.7386 173.561C75.8966 173.349 75.5258 172.545 75.5365 170.882C75.5948 161.534 75.5641 152.191 75.5641 142.843C75.5641 124.327 75.7266 105.808 75.5013 87.2884C75.3664 76.2313 71.9492 66.1192 64.4329 57.8507C48.461 40.2747 16.445 39.7536 2.07596 67.8626C1.50438 68.9848 0.991036 70.1378 0.197266 71.8042C7.04545 31.035 44.1106 0.273157 85.4004 1.01307C129.832 1.80848 162.028 34.192 168.52 71.0196Z" fill="white" fill-opacity="0.1"/>
<path fill-rule="evenodd" clip-rule="evenodd" d="M113.831 168.404C113.739 167.56 113.615 166.974 113.615 166.384C113.633 150.639 113.523 134.889 113.749 119.146C113.857 111.431 115.924 104.18 121.756 98.697C129.248 91.657 138.18 90.931 147.236 94.4779C156.23 98.0049 160.801 105.422 161.443 114.997C162.114 124.978 157.831 133.294 151.846 140.858C142.334 152.882 130.475 161.778 116.351 167.62C115.585 167.939 114.767 168.116 113.831 168.404Z" fill="white" fill-opacity="0.1"/>
<path fill-rule="evenodd" clip-rule="evenodd" d="M55.1415 169.022C49.5836 166.136 44.3291 163.8 39.476 160.808C28.3265 153.937 18.982 145.074 12.3208 133.656C8.64615 127.354 6.57744 120.496 7.72519 113.059C9.51654 101.443 18.1837 93.2659 29.1233 92.7233C42.0259 92.0759 51.0194 98.5008 54.0489 110.831C54.8672 114.153 55.2901 117.657 55.3223 121.08C55.4556 135.959 55.3806 150.837 55.3714 165.713C55.3698 166.54 55.261 167.367 55.1415 169.022Z" fill="white" fill-opacity="0.1"/>
<path fill-rule="evenodd" clip-rule="evenodd" d="M67.8844 171.729C63.6091 171.954 63.0191 171.445 63.0191 167.596C63.0176 146.31 63.0176 125.025 63.0176 103.739C63.0176 91.0414 56.7211 81.0172 46.1017 76.7997C33.6956 71.8762 19.9931 74.6154 11.5052 83.5837C5.13667 90.3123 2.92545 98.5577 2.47799 107.512C2.43356 108.369 2.3692 109.223 1.78536 110.185C1.33484 108.039 0.751006 105.908 0.449128 103.739C-0.752255 95.0863 0.349523 86.8532 5.05698 79.3046C8.31635 74.0805 12.6744 70.1482 18.4699 68.0487C30.9097 63.5414 43.1396 63.9591 54.8715 70.3285C63.4926 75.01 67.9089 82.6434 67.9809 92.361C68.174 118.318 68.0499 144.28 68.0438 170.24C68.0438 170.742 67.9396 171.245 67.8844 171.729Z" fill="white" fill-opacity="0.1"/>
<path fill-rule="evenodd" clip-rule="evenodd" d="M100.864 171.844V168.627C100.864 144.663 101.121 120.695 100.782 96.7368C100.508 77.3079 111.292 68.9685 126.485 65.8948C134.217 64.3271 141.921 64.9283 149.357 67.5966C162.153 72.1886 169.851 84.7857 168.924 99.6348C168.693 103.283 167.924 106.901 167.099 110.424C166.376 105.919 166.063 101.298 164.854 96.9279C158.469 73.7779 133.411 69.1673 117.622 79.6957C109.41 85.1757 106.002 93.586 105.971 103.333C105.902 124.616 105.951 145.899 105.948 167.18C105.948 171.559 105.832 171.674 100.864 171.844Z" fill="white" fill-opacity="0.1"/>
</g>
</svg>
