<svg width="34" height="12" viewBox="0 0 34 12"  xmlns="http://www.w3.org/2000/svg">
<path fill-rule="evenodd" clip-rule="evenodd" d="M33.6222 1.7593H19.9034L20.2813 0.0331709H34L33.6222 1.7593ZM33.3694 5.54355H27.306L26.3176 10.0581C26.2619 10.3128 26.1566 10.5618 26.0017 10.805C25.8467 11.0485 25.6594 11.2589 25.4401 11.4357C25.2345 11.6017 24.9951 11.7402 24.7226 11.8506C24.4434 11.9393 24.1797 11.9834 23.9314 11.9834H21.3062L22.4802 10.2573H23.2085C23.3664 10.2573 23.5141 10.202 23.6513 10.0913C23.7771 9.98086 23.857 9.84804 23.891 9.69296L24.7995 5.54355H18.5329L18.9108 3.81742H33.7473L33.3694 5.54355ZM16.2613 4.3154C16.1113 4.53682 15.9275 4.73031 15.7107 4.89631C15.4937 5.0623 15.259 5.1925 15.0071 5.28634C14.7549 5.38046 14.4936 5.42746 14.2225 5.42746H9.70046H7.6003H7.2446L8.42564 0.0331709H8.78133H10.8815H14.8955H16.3689H17.3514L16.5701 3.60167C16.5142 3.8564 16.4114 4.09412 16.2613 4.3154ZM10.0275 3.93366H13.4826C13.6406 3.93366 13.784 3.88376 13.9134 3.78425C14.0423 3.6846 14.1227 3.56297 14.1542 3.41909L14.1614 3.38592H10.1474L10.0275 3.93366ZM10.569 1.46063L10.4382 2.05812H14.4521L14.583 1.46063H10.569ZM7.35193 2.53937H5.98007L5.66754 3.96683H6.90386L5.13696 6.3901L4.23574 10.5062C4.14604 10.9157 3.92574 11.2643 3.57498 11.5519C3.22394 11.8398 2.83948 11.9834 2.42187 11.9834H0L0.976675 10.5395H1.50161C1.61444 10.5395 1.71542 10.5037 1.8047 10.4316C1.89383 10.3597 1.95053 10.2685 1.97479 10.1576L2.21822 9.04571H0.660049L2.89054 5.97505L3.64282 2.53937H2.10158L2.46136 0.896306H4.00261L4.19879 0H6.53604L6.33986 0.896306H7.71171L7.35193 2.53937ZM8.89162 7.8839L8.5781 8.69714L9.30965 10.0747L9.91287 7.31958H6.50853L6.8356 5.82578H16.2017L15.8746 7.31958H14.3672H12.3687L12.1797 8.18258H15.6856L15.3694 9.62662H11.8635L11.6709 10.5062H15.1091L14.2061 12H8.6001H8.26147L7.69437 10.9544L7.29608 12H5.34837L6.94391 7.8839H8.89162ZM22.2043 6.48962L19.3489 11.7179H16.9778L19.8161 6.48962H22.2043Z" fill="#404040"/>
<path fill-rule="evenodd" clip-rule="evenodd" d="M28.996 7.3295C28.996 7.3295 28.7456 7.58891 28.6691 7.9348C28.5779 8.34531 28.6456 8.92576 29.3377 9.57385L31.4311 11.534C31.9073 10.5153 32.0331 9.37964 31.8049 8.30417C31.6067 7.54777 31.2283 7.16613 30.8713 6.97529C30.4012 6.73738 29.617 6.63582 28.996 7.3295Z"/>
</svg>
