<svg width="72" height="22" viewBox="0 0 72 22" fill="none" xmlns="http://www.w3.org/2000/svg">
<path d="M5.95801 19.25H16.0413L18.7913 9.625L14.208 11.9167L10.9997 5.5L7.79134 11.9167L3.20801 9.625L5.95801 19.25Z" fill="#7F7F7F" stroke="#7F7F7F" stroke-linecap="round" stroke-linejoin="round"/>
<path d="M3.20801 9.625C3.9674 9.625 4.58301 9.00939 4.58301 8.25C4.58301 7.49061 3.9674 6.875 3.20801 6.875C2.44862 6.875 1.83301 7.49061 1.83301 8.25C1.83301 9.00939 2.44862 9.625 3.20801 9.625Z" fill="#7F7F7F" stroke="#7F7F7F" stroke-width="1.33333"/>
<path d="M11 5.5C11.7594 5.5 12.375 4.88439 12.375 4.125C12.375 3.36561 11.7594 2.75 11 2.75C10.2406 2.75 9.625 3.36561 9.625 4.125C9.625 4.88439 10.2406 5.5 11 5.5Z" fill="#7F7F7F" stroke="#7F7F7F" stroke-width="1.33333"/>
<path d="M18.792 9.625C19.5514 9.625 20.167 9.00939 20.167 8.25C20.167 7.49061 19.5514 6.875 18.792 6.875C18.0326 6.875 17.417 7.49061 17.417 8.25C17.417 9.00939 18.0326 9.625 18.792 9.625Z" fill="#7F7F7F" stroke="#7F7F7F" stroke-width="1.33333"/>
<path d="M5.95801 19.25H16.0413L18.7913 9.625L14.208 11.9167L10.9997 5.5L7.79134 11.9167L3.20801 9.625L5.95801 19.25Z" fill="#7F7F7F"/>
<path d="M3.20801 9.625C3.9674 9.625 4.58301 9.00939 4.58301 8.25C4.58301 7.49061 3.9674 6.875 3.20801 6.875C2.44862 6.875 1.83301 7.49061 1.83301 8.25C1.83301 9.00939 2.44862 9.625 3.20801 9.625Z" fill="#7F7F7F"/>
<path d="M10.9997 5.5C11.7591 5.5 12.3748 4.88439 12.3748 4.125C12.3748 3.36561 11.7591 2.75 10.9998 2.75C10.2404 2.75 9.62476 3.36561 9.62476 4.125C9.62476 4.88439 10.2403 5.5 10.9997 5.5Z" fill="#7F7F7F"/>
<path d="M18.7913 9.625C19.5507 9.625 20.1665 9.00939 20.1665 8.25C20.1665 7.49061 19.5509 6.875 18.7915 6.875C18.0321 6.875 17.4165 7.49061 17.4165 8.25C17.4165 9.00939 18.0319 9.625 18.7913 9.625Z" fill="#7F7F7F"/>
<path d="M5.95801 19.25L5.31699 19.4331C5.39876 19.7193 5.66035 19.9167 5.95801 19.9167V19.25ZM16.0413 19.25V19.9167C16.339 19.9167 16.6006 19.7193 16.6824 19.4331L16.0413 19.25ZM14.208 11.9167L13.6117 12.2148C13.6908 12.373 13.8295 12.4932 13.9972 12.5491C14.1649 12.605 14.348 12.592 14.5062 12.513L14.208 11.9167ZM7.79134 11.9167L7.4932 12.513C7.65134 12.592 7.83442 12.605 8.00216 12.5491C8.1699 12.4932 8.30855 12.373 8.38763 12.2148L7.79134 11.9167ZM5.95801 19.9167H16.0413V18.5833H5.95801V19.9167ZM16.6824 19.4331L19.4324 9.80815L18.1503 9.44185L15.4003 19.0669L16.6824 19.4331ZM18.4932 9.02872L13.9099 11.3204L14.5062 12.513L19.0895 10.2213L18.4932 9.02872ZM14.8043 11.6185L11.596 5.20186L10.4034 5.79814L13.6117 12.2148L14.8043 11.6185ZM10.4034 5.20186L7.19506 11.6185L8.38763 12.2148L11.596 5.79814L10.4034 5.20186ZM8.08948 11.3204L3.50615 9.02872L2.90987 10.2213L7.4932 12.513L8.08948 11.3204ZM2.56699 9.80815L5.31699 19.4331L6.59902 19.0669L3.84902 9.44185L2.56699 9.80815ZM3.91634 8.25C3.91634 8.6412 3.59921 8.95833 3.20801 8.95833V10.2917C4.33559 10.2917 5.24967 9.37758 5.24967 8.25H3.91634ZM3.20801 8.95833C2.81681 8.95833 2.49967 8.6412 2.49967 8.25H1.16634C1.16634 9.37758 2.08043 10.2917 3.20801 10.2917V8.95833ZM2.49967 8.25C2.49967 7.8588 2.81681 7.54167 3.20801 7.54167V6.20833C2.08043 6.20833 1.16634 7.12242 1.16634 8.25H2.49967ZM3.20801 7.54167C3.59921 7.54167 3.91634 7.8588 3.91634 8.25H5.24967C5.24967 7.12242 4.33559 6.20833 3.20801 6.20833V7.54167ZM11.7081 4.125C11.7081 4.51615 11.3909 4.83333 10.9997 4.83333V6.16667C12.1272 6.16667 13.0414 5.25263 13.0414 4.125H11.7081ZM10.9997 4.83333C10.6085 4.83333 10.2914 4.51625 10.2914 4.125H8.95809C8.95809 5.25253 9.87204 6.16667 10.9997 6.16667V4.83333ZM10.2914 4.125C10.2914 3.7338 10.6086 3.41667 10.9998 3.41667V2.08333C9.87217 2.08333 8.95809 2.99742 8.95809 4.125H10.2914ZM10.9998 3.41667C11.391 3.41667 11.7081 3.7338 11.7081 4.125H13.0414C13.0414 2.99742 12.1273 2.08333 10.9998 2.08333V3.41667ZM19.4998 8.25C19.4998 8.6411 19.1826 8.95833 18.7913 8.95833V10.2917C19.9188 10.2917 20.8332 9.37768 20.8332 8.25H19.4998ZM18.7913 8.95833C18.4002 8.95833 18.0832 8.6413 18.0832 8.25H16.7498C16.7498 9.37748 17.6637 10.2917 18.7913 10.2917V8.95833ZM18.0832 8.25C18.0832 7.8588 18.4003 7.54167 18.7915 7.54167V6.20833C17.6639 6.20833 16.7498 7.12242 16.7498 8.25H18.0832ZM18.7915 7.54167C19.1827 7.54167 19.4998 7.8588 19.4998 8.25H20.8332C20.8332 7.12242 19.9191 6.20833 18.7915 6.20833V7.54167Z" fill="#7F7F7F"/>
<g style="mix-blend-mode:lighten" opacity="0.4">
<path d="M0 0H11V22H0V0Z" fill="white"/>
</g>
<path d="M72 20V2C72 0.895431 71.1046 0 70 0H25.625L19 22H70C71.1046 22 72 21.1046 72 20Z" fill="#7F7F7F"/>
<path d="M32.56 11.77L32.14 12.16C32.51 12.38 32.86 12.63 33.2 12.92H30.17V13.52H34.67C34.16 13.94 33.6 14.32 32.98 14.64C32.4 14.42 31.79 14.23 31.16 14.05L30.8 14.58C32.14 14.95 33.45 15.46 34.72 16.1L35.09 15.53C34.64 15.31 34.17 15.1 33.69 14.91C34.39 14.49 35.03 13.99 35.63 13.42V12.92H33.5L33.75 12.63C33.39 12.29 32.99 12.01 32.56 11.77ZM32.66 10.68C31.55 11.43 30.13 12.05 28.41 12.55L28.81 13.13C30.43 12.62 31.83 11.95 32.99 11.11C34.03 11.95 35.42 12.62 37.15 13.13L37.55 12.54C35.73 12.06 34.32 11.44 33.34 10.7V8.89H36.39V10.23H37.08V8.33H33.34V7.73H36.67V7.15H29.33V7.73H32.66V8.33H28.92V10.23H29.61V8.89H32.66V10.68ZM30.11 9.44V9.91H32.15V9.44H30.11ZM30.09 10.43V10.9H32.16V10.43H30.09ZM33.87 9.44V9.91H35.88V9.44H33.87ZM33.86 10.43V10.9H35.91V10.43H33.86ZM46.53 13.12H39.81V16.04H40.52V15.55H45.82V16.04H46.53V13.12ZM40.52 14.91V13.74H45.82V14.91H40.52ZM39.81 9.43V12.34H47.17V11.73H43.97V10.98H46.59V10.41H43.97V9.71H46.57V9.14H43.97V8.41H47.01V7.81H44.1C43.96 7.43 43.81 7.08 43.65 6.77L42.91 6.89C43.09 7.17 43.25 7.47 43.4 7.81H40.92C41.07 7.52 41.2 7.23 41.32 6.93L40.62 6.79C40.19 7.91 39.45 8.95 38.41 9.9L38.63 10.61C39.06 10.24 39.45 9.85 39.81 9.43ZM43.26 11.73H40.5V10.98H43.26V11.73ZM43.26 10.41H40.5V9.71H43.26V10.41ZM43.26 9.14H40.5V8.52C40.52 8.48 40.54 8.45 40.57 8.41H43.26V9.14ZM53.23 7.29V7.95H54.93C54.89 8.33 54.84 8.7 54.77 9.06H53.47V13.86H54.12V9.66H56.42V13.88H57.07V9.06H55.43C55.51 8.7 55.57 8.33 55.62 7.95H57.44V7.29H53.23ZM55.88 14.05L55.44 14.47C56.17 15.03 56.74 15.57 57.16 16.08L57.64 15.59C57.16 15.08 56.57 14.57 55.88 14.05ZM54.99 10.21V11.93C54.97 12.85 54.79 13.59 54.46 14.16C54.1 14.7 53.48 15.14 52.58 15.48L52.95 16.05C53.87 15.7 54.54 15.22 54.94 14.61C55.36 13.94 55.58 13.05 55.6 11.93V10.21H54.99ZM50.42 15.49C51.32 15.22 52.13 14.89 52.85 14.49L52.74 13.87C52.18 14.17 51.62 14.42 51.05 14.63V10H52.11V12.05C52.11 12.23 52.01 12.32 51.83 12.32C51.67 12.32 51.5 12.31 51.32 12.3L51.49 12.88C51.68 12.89 51.86 12.9 52.03 12.9C52.5 12.9 52.74 12.67 52.74 12.22V9.39H50.42V14.51C50.42 14.67 50.32 14.79 50.14 14.86L50.42 15.49ZM52.87 7.3H49.01V11.36C48.99 13.13 48.77 14.51 48.36 15.5L48.9 15.98C49.41 14.82 49.68 13.28 49.71 11.36V7.98H52.87V7.3ZM65.94 12.9H60.24V16.03H60.94V15.6H65.24V16.03H65.94V12.9ZM60.94 14.95V13.55H65.24V14.95H60.94ZM61.74 8.44C61.1 9.37 60.29 10.12 59.3 10.69L59.76 11.25C60.2 10.97 60.62 10.66 61.01 10.31C61.44 10.69 61.91 11.03 62.42 11.33C61.36 11.75 60.02 12.08 58.41 12.34L58.68 12.98C60.48 12.67 61.97 12.25 63.15 11.71C64.39 12.31 65.8 12.66 67.4 12.78L67.56 12.13C66.21 12.03 64.99 11.77 63.9 11.34C64.67 10.9 65.26 10.4 65.67 9.83V9.25H61.98C62.14 9.04 62.29 8.82 62.44 8.59L61.74 8.44ZM63.16 11.01C62.54 10.7 61.96 10.33 61.43 9.89L61.46 9.86H64.81C64.4 10.28 63.85 10.67 63.16 11.01ZM67.06 7.58H63.37C63.25 7.28 63.14 7 63.02 6.76L62.23 6.88C62.36 7.09 62.48 7.32 62.6 7.58H58.94V9.47H59.67V8.23H66.33V9.47H67.06V7.58Z" fill="white"/>
</svg>
