<svg width="40" height="40" viewBox="0 0 40 40" fill="none" xmlns="http://www.w3.org/2000/svg">
<rect width="40" height="40" fill="white"/>
<path d="M12 9.25C11.5858 9.25 11.25 9.58579 11.25 10C11.25 10.4142 11.5858 10.75 12 10.75H28.2947C28.844 10.75 29.25 11.1711 29.25 11.667V19.333C29.25 19.8289 28.844 20.25 28.2947 20.25H21.8828L24.5343 17.6603C24.8306 17.3708 24.8362 16.896 24.5467 16.5997C24.2573 16.3033 23.7825 16.2978 23.4861 16.5872L19.4965 20.4841C19.352 20.6252 19.2705 20.8187 19.2705 21.0206C19.2705 21.2226 19.352 21.416 19.4965 21.5572L23.4861 25.4541C23.7825 25.7435 24.2573 25.7379 24.5467 25.4416C24.8362 25.1453 24.8306 24.6704 24.5343 24.381L21.8406 21.75H28.2947C29.6402 21.75 30.75 20.6893 30.75 19.333V11.667C30.75 10.3107 29.6402 9.25 28.2947 9.25H12Z" fill="#404040"/>
<path d="M10.75 14.8824C10.75 14.273 11.2637 13.75 11.9139 13.75H27.4163C27.8305 13.75 28.1663 13.4142 28.1663 13C28.1663 12.5858 27.8305 12.25 27.4163 12.25H11.9139C10.4588 12.25 9.25 13.4212 9.25 14.8824V27.1176C9.25 28.5788 10.4588 29.75 11.9139 29.75H28.0861C29.5412 29.75 30.75 28.5788 30.75 27.1176V23.5C30.75 23.0858 30.4142 22.75 30 22.75C29.5858 22.75 29.25 23.0858 29.25 23.5V27.1176C29.25 27.727 28.7363 28.25 28.0861 28.25H11.9139C11.2637 28.25 10.75 27.727 10.75 27.1176V14.8824Z" fill="#404040"/>
<path d="M16.0391 17.4949C16.0391 17.0807 15.7033 16.7449 15.2891 16.7449C14.8748 16.7449 14.5391 17.0807 14.5391 17.4949V24.8248C14.5391 25.239 14.8748 25.5748 15.2891 25.5748C15.7033 25.5748 16.0391 25.239 16.0391 24.8248V17.4949Z" fill="#404040"/>
</svg>
