<svg width="40" height="40" viewBox="0 0 40 40" fill="none" xmlns="http://www.w3.org/2000/svg">
<rect width="40" height="40" fill="white"/>
<path fill-rule="evenodd" clip-rule="evenodd" d="M18 11.25C17.5858 11.25 17.25 11.5858 17.25 12C17.25 12.4142 17.5858 12.75 18 12.75C18.4142 12.75 18.75 12.4142 18.75 12C18.75 11.5858 18.4142 11.25 18 11.25ZM24.122 12.75C24.2049 12.5154 24.25 12.263 24.25 12C24.25 10.7574 23.2426 9.75 22 9.75C21.1293 9.75 20.3741 10.2446 20 10.9682C19.6259 10.2446 18.8707 9.75 18 9.75C16.7574 9.75 15.75 10.7574 15.75 12C15.75 12.263 15.7951 12.5154 15.878 12.75H14.2408C11.9674 12.75 10.0447 14.6839 9.08524 17.2952L8.99869 17.5102C8.65296 18.3687 8.6434 19.3941 9.12455 20.2903L9.15751 20.3517L9.20121 20.4059C9.20739 20.4136 9.21672 20.4271 9.22927 20.4452L9.22927 20.4452L9.22934 20.4453L9.22935 20.4453C9.31738 20.5726 9.56375 20.9286 9.99537 21.1217L8.85149 26.311C8.36009 28.232 9.72578 30.25 11.7434 30.25H28.2559C30.2735 30.25 31.6392 28.2319 31.1477 26.311L30.0086 21.1431C30.5038 20.9499 30.8035 20.5354 30.9291 20.242C31.2738 19.513 31.3897 18.401 31.031 17.5102L30.9444 17.2953C29.9849 14.6839 28.0623 12.75 25.7888 12.75H24.122ZM14.9869 15.75C12.7936 15.75 10.9916 17.2611 10.3762 19.4329C10.2001 19.0058 10.2113 18.5145 10.3901 18.0705L10.4855 17.8336L10.4896 17.8223C11.3501 15.4717 12.8805 14.25 14.2408 14.25H18H22H25.7888C27.1492 14.25 28.6795 15.4717 29.54 17.8223L29.5441 17.8336L29.6395 18.0705C29.8007 18.4706 29.7737 19.0452 29.6338 19.4506C29.1118 17.3565 27.3092 15.75 25.1106 15.75H14.9869ZM22 12.75C22.4142 12.75 22.75 12.4142 22.75 12C22.75 11.5858 22.4142 11.25 22 11.25C21.5858 11.25 21.25 11.5858 21.25 12C21.25 12.4142 21.5858 12.75 22 12.75ZM11.7855 19.9686L10.3104 26.6609L10.3067 26.6748C10.0227 27.7639 10.8175 28.75 11.7434 28.75H28.2559C29.1818 28.75 29.9766 27.7639 29.6925 26.6748L29.6889 26.6609L28.2097 19.9503C27.8799 18.3699 26.5798 17.25 25.1106 17.25H14.9869C13.5092 17.25 12.2071 18.2872 11.7855 19.9686ZM18.9502 20.5C18.9502 20.0858 18.6144 19.75 18.2002 19.75C17.786 19.75 17.4502 20.0858 17.4502 20.5V24.5C17.4502 24.9142 17.786 25.25 18.2002 25.25H22.3002C22.7144 25.25 23.0502 24.9142 23.0502 24.5C23.0502 24.0858 22.7144 23.75 22.3002 23.75H18.9502V20.5Z" fill="#404040"/>
</svg>
