<svg width="40" height="40" viewBox="0 0 40 40" fill="none" xmlns="http://www.w3.org/2000/svg">
<rect width="40" height="40" fill="white"/>
<path d="M24.0498 15.2C24.0498 14.7858 23.714 14.45 23.2998 14.45C22.8856 14.45 22.5498 14.7858 22.5498 15.2V19.2C22.5498 19.4508 22.6751 19.685 22.8838 19.824L26.1838 22.024C26.5284 22.2538 26.9941 22.1607 27.2238 21.816C27.4536 21.4714 27.3605 21.0057 27.0158 20.776L24.0498 18.7986V15.2Z" fill="#404040"/>
<path fill-rule="evenodd" clip-rule="evenodd" d="M16.9543 13.1192C16.9543 11.6135 18.0806 10.25 19.6174 10.25H29.087C30.6237 10.25 31.75 11.6135 31.75 13.1192V24.8808C31.75 26.3865 30.6237 27.75 29.087 27.75H27.2845C27.1622 28.7373 26.3203 29.5016 25.2998 29.5016C24.2794 29.5016 23.4374 28.7373 23.3151 27.75H17.3847C17.2628 28.7378 16.4207 29.5025 15.3999 29.5025C14.3792 29.5025 13.537 28.7378 13.4151 27.75H10.913C9.33283 27.75 8.25 26.2308 8.25 24.7748V20.4222H8.26493C8.49201 17.0413 11.2795 14.25 14.6436 14.25H16.9543V13.1192ZM19.6174 11.75C19.0498 11.75 18.4543 12.2938 18.4543 13.1192V21.9222H9.75V24.7748C9.75 25.65 10.3889 26.25 10.913 26.25H29.087C29.6545 26.25 30.25 25.7062 30.25 24.8808V13.1192C30.25 12.2938 29.6545 11.75 29.087 11.75H19.6174ZM16.9543 20.4222H9.76915C9.99336 17.8221 12.1563 15.75 14.6436 15.75H16.9543V20.4222Z" fill="#404040"/>
</svg>
