<svg width="24" height="24" viewBox="0 0 24 24" fill="none" xmlns="http://www.w3.org/2000/svg">
<path d="M12 18.5C16.5352 18.5 20.3653 14.1169 21.5901 12.5493C21.8454 12.2224 21.8454 11.7776 21.5901 11.4507C20.3653 9.88309 16.5352 5.5 12 5.5C7.4648 5.5 3.63473 9.88309 2.40991 11.4507C2.15456 11.7776 2.15456 12.2224 2.40991 12.5493C3.63473 14.1169 7.4648 18.5 12 18.5Z" stroke="#4A4A4A" stroke-width="1.5" stroke-linejoin="round"/>
<path d="M12 14.5C13.3807 14.5 14.5 13.3807 14.5 12C14.5 10.6193 13.3807 9.5 12 9.5C10.6193 9.5 9.5 10.6193 9.5 12C9.5 13.3807 10.6193 14.5 12 14.5Z" stroke="#4A4A4A" stroke-width="1.33333" stroke-linejoin="round"/>
</svg>
