<svg width="16" height="16" viewBox="0 0 16 16" fill="none" xmlns="http://www.w3.org/2000/svg">
<g clip-path="url(#clip0_1615_23076)">
<g clip-path="url(#clip1_1615_23076)">
<path d="M16.0001 0H6.10352e-05V16H16.0001V0Z" fill="white" fill-opacity="0.01"/>
<path d="M7.11941 6.38022C5.15651 6.28552 3.79211 6.98536 3.02619 8.47973C1.87729 10.7213 2.82682 14.3891 6.65968 14.3891C10.4925 14.3891 10.6034 10.6854 10.6034 10.2974C10.6034 10.0387 10.6034 8.59239 10.6034 5.95842C11.4232 6.47769 12.1144 6.79026 12.677 6.89612C13.2396 7.00202 13.5972 7.04896 13.7499 7.03693V4.87832C13.2296 4.81559 12.7796 4.69602 12.3999 4.51962C11.8305 4.25499 10.7013 3.52062 10.7013 2.44427C10.7021 2.44953 10.7021 2.17189 10.7013 1.61133H8.32861C8.32158 6.88336 8.32158 9.77869 8.32861 10.2974C8.33921 11.0754 7.73565 12.1637 6.51191 12.1637C5.28815 12.1637 4.68458 11.0763 4.68458 10.3749C4.68458 9.94546 4.83205 9.32306 5.44175 8.86216C5.80331 8.58886 6.30515 8.47973 7.11941 8.47973C7.11941 8.22786 7.11941 7.52802 7.11941 6.38022Z" stroke="#4A4A4A" stroke-linejoin="round"/>
</g>
</g>
<defs>
<clipPath id="clip0_1615_23076">
<rect width="16" height="16" fill="white"/>
</clipPath>
<clipPath id="clip1_1615_23076">
<rect width="16" height="16" fill="white"/>
</clipPath>
</defs>
</svg>
