<svg width="260" height="201" viewBox="0 0 260 201" fill="none" xmlns="http://www.w3.org/2000/svg">
<g clip-path="url(#clip0_10083_51956)">
<path d="M174.238 56.596C179.815 41.5245 192.994 28.5017 208.919 26.9526C199.345 41.5537 195.217 59.0878 197.268 76.4526C198.083 83.1467 199.683 90.5067 196.092 96.204C193.858 99.7491 189.921 101.932 185.863 102.916C181.804 103.901 177.575 103.825 173.4 103.743L172.465 104.207C169.529 88.3997 168.66 71.6674 174.238 56.596Z" fill="#F0F0F0"/>
<path d="M208.996 27.2811C198.14 34.9036 189.949 45.7703 185.587 58.3376C184.669 61.0357 183.972 63.853 183.931 66.7181C183.914 69.5111 184.64 72.258 186.036 74.6733C187.292 76.9516 188.84 79.1359 189.523 81.6814C190.243 84.3646 189.656 87.0789 188.185 89.3971C186.385 92.2335 183.678 94.2506 180.962 96.1307C177.947 98.2181 174.783 100.338 172.938 103.618C172.714 104.015 172.114 103.643 172.337 103.246C175.547 97.541 182.283 95.4686 186.403 90.6223C188.326 88.361 189.583 85.5035 188.988 82.4924C188.468 79.8592 186.874 77.6054 185.582 75.3096C184.226 72.899 183.34 70.3973 183.236 67.6082C183.131 64.7552 183.72 61.9045 184.566 59.1946C186.528 53.0641 189.438 47.2817 193.188 42.0595C197.435 36.0756 202.669 30.8659 208.664 26.6558C209.035 26.3954 209.365 27.0223 208.996 27.2811V27.2811Z" fill="white"/>
<path d="M186.755 54.2082C184.756 53.1866 183.184 51.4842 182.319 49.405C181.454 47.3259 181.352 45.0054 182.032 42.858C182.171 42.424 182.849 42.6208 182.71 43.0555C182.073 45.0539 182.167 47.2154 182.977 49.1499C183.786 51.0843 185.257 52.6643 187.124 53.6045C187.529 53.8093 187.158 54.4119 186.755 54.2082Z" fill="white"/>
<path d="M185.247 73.6027C189.618 72.2152 193.308 69.2231 195.581 65.2228C195.806 64.8263 196.407 65.1979 196.182 65.594C193.809 69.7523 189.962 72.8583 185.411 74.292C184.977 74.4284 184.816 73.7383 185.247 73.6027V73.6027Z" fill="white"/>
<path d="M197.917 36.8804C198.609 37.4377 199.427 37.8136 200.299 37.9745C201.17 38.1354 202.068 38.0762 202.911 37.8022C203.343 37.6604 203.504 38.3507 203.075 38.4916C202.142 38.79 201.15 38.8541 200.187 38.6785C199.223 38.5029 198.317 38.0928 197.548 37.4842C197.471 37.4329 197.416 37.354 197.394 37.2634C197.373 37.1729 197.386 37.0775 197.432 36.9967C197.482 36.917 197.56 36.8601 197.651 36.8383C197.742 36.8166 197.838 36.8317 197.917 36.8804V36.8804Z" fill="white"/>
<path d="M247.305 65.3701C247.038 65.4664 246.77 65.5627 246.502 65.6647C242.915 66.9776 239.441 68.5811 236.113 70.4595C235.854 70.6006 235.593 70.7475 235.338 70.8958C227.368 75.5071 220.32 81.5652 214.551 88.7624C212.258 91.6284 210.185 94.6656 208.351 97.8477C205.817 102.242 203.419 107.21 199.698 110.413C199.314 110.751 198.909 111.066 198.486 111.354L173.101 105.317C173.05 105.274 172.997 105.237 172.946 105.194L171.922 105C172.005 104.829 172.095 104.654 172.178 104.483C172.226 104.384 172.28 104.286 172.327 104.186C172.361 104.121 172.395 104.055 172.422 103.994C172.433 103.972 172.444 103.95 172.454 103.934C172.481 103.873 172.512 103.818 172.537 103.763C173.037 102.782 173.545 101.802 174.061 100.825C174.062 100.819 174.062 100.819 174.069 100.814C178.017 93.3753 182.617 86.202 188.154 79.9585C188.32 79.7708 188.488 79.5771 188.666 79.392C191.178 76.5917 193.913 74.0023 196.844 71.6497C198.453 70.3668 200.126 69.1664 201.856 68.0534C206.331 65.1862 211.227 63.0443 216.365 61.7062C226.607 59.0403 237.583 59.696 246.619 64.9611C246.85 65.0959 247.075 65.2295 247.305 65.3701Z" fill="#F0F0F0"/>
<path d="M247.172 65.6805C233.937 65.1975 220.887 68.9178 209.876 76.313C207.527 77.9118 205.282 79.7391 203.533 82.0024C201.846 84.2216 200.78 86.8545 200.448 89.6275C200.086 92.2068 200.013 94.8872 199.034 97.3332C198.002 99.9114 195.907 101.723 193.343 102.684C190.206 103.859 186.837 103.832 183.542 103.69C179.884 103.532 176.087 103.31 172.65 104.812C172.234 104.994 171.977 104.334 172.393 104.153C178.373 101.539 184.993 103.96 191.187 102.584C194.077 101.942 196.792 100.421 198.121 97.657C199.283 95.24 199.361 92.476 199.705 89.8612C200.066 87.1157 200.857 84.5819 202.445 82.2925C204.07 79.9506 206.248 78.0312 208.547 76.3791C213.786 72.6718 219.574 69.8155 225.696 67.9149C232.672 65.7068 239.972 64.7143 247.281 64.9802C247.733 64.9968 247.621 65.697 247.172 65.6805L247.172 65.6805Z" fill="white"/>
<path d="M213.282 73.7219C212.298 71.6968 212.063 69.3862 212.618 67.2027C213.173 65.0192 214.482 63.105 216.311 61.802C216.682 61.5397 217.105 62.1069 216.734 62.3696C215.028 63.5798 213.809 65.363 213.296 67.3973C212.784 69.4316 213.011 71.5831 213.939 73.4634C214.14 73.8722 213.482 74.1285 213.282 73.7219V73.7219Z" fill="white"/>
<path d="M200.46 88.2953C204.781 89.8324 209.52 89.6761 213.731 87.8576C214.149 87.6771 214.405 88.3372 213.989 88.5175C209.602 90.4016 204.671 90.5542 200.177 88.9448C199.749 88.7911 200.034 88.1425 200.46 88.2953V88.2953Z" fill="white"/>
<path d="M232.576 66.6415C232.794 67.5048 233.222 68.3001 233.821 68.956C234.421 69.6119 235.173 70.1079 236.011 70.3993C236.441 70.5475 236.156 71.196 235.728 71.0488C234.805 70.7224 233.975 70.1737 233.31 69.4505C232.646 68.7273 232.169 67.8516 231.919 66.9001C231.888 66.8124 231.891 66.7161 231.928 66.6308C231.966 66.5455 232.034 66.4776 232.119 66.4409C232.206 66.4071 232.303 66.4092 232.388 66.4468C232.474 66.4844 232.541 66.5543 232.576 66.6415V66.6415Z" fill="white"/>
<path d="M27.1552 194.744C12.6229 188.017 0.697104 173.827 0.362793 157.75C14.1266 168.448 31.2119 173.908 48.5958 173.164C55.2989 172.853 62.7222 171.806 68.1039 175.834C71.4525 178.341 73.3205 182.451 73.9912 186.593C74.6619 190.735 74.2668 194.967 73.8702 199.144L74.2598 200.116C58.3547 201.864 41.6876 201.472 27.1552 194.744Z" fill="#F0F0F0"/>
<path d="M0.694297 157.698C7.43736 169.153 17.6005 178.182 29.7401 183.502C32.3478 184.626 35.0904 185.538 37.93 185.795C40.6998 186.023 43.4801 185.503 45.9819 184.286C48.3372 183.199 50.6213 181.814 53.1985 181.321C55.9151 180.802 58.5639 181.595 60.7528 183.245C63.431 185.263 65.2279 188.128 66.8882 190.991C68.7317 194.171 70.5963 197.502 73.7106 199.598C74.088 199.852 73.6738 200.426 73.297 200.172C67.8786 196.525 66.3311 189.618 61.8339 185.123C59.7354 183.025 56.9952 181.55 53.9627 181.918C51.3109 182.24 48.9544 183.668 46.579 184.789C44.0848 185.966 41.5357 186.666 38.7607 186.558C35.9219 186.449 33.1381 185.643 30.5133 184.591C24.5789 182.161 19.0615 178.809 14.1633 174.656C8.54694 169.948 3.77326 164.31 0.0488352 157.984C-0.181537 157.592 0.465411 157.309 0.694261 157.698H0.694297Z" fill="white"/>
<path d="M25.7306 182.02C24.566 183.946 22.7582 185.393 20.63 186.103C18.5018 186.813 16.1918 186.739 14.1126 185.896C13.6924 185.724 13.9389 185.059 14.3596 185.232C16.2944 186.021 18.4461 186.089 20.4266 185.424C22.407 184.759 24.0856 183.404 25.1595 181.605C25.3933 181.214 25.9631 181.632 25.7306 182.02V182.02Z" fill="white"/>
<path d="M44.8597 184.996C43.8132 180.511 41.123 176.587 37.3257 174.007C36.9493 173.751 37.3634 173.178 37.7394 173.433C41.686 176.125 44.4772 180.214 45.556 184.884C45.6585 185.329 44.9616 185.439 44.8597 184.996V184.996Z" fill="white"/>
<path d="M9.38177 169.525C9.98687 168.874 10.4217 168.083 10.6471 167.221C10.8726 166.36 10.8816 165.456 10.6735 164.59C10.5654 164.146 11.2624 164.037 11.3698 164.478C11.5954 165.436 11.5842 166.434 11.3372 167.387C11.0902 168.339 10.6149 169.216 9.95287 169.941C9.89617 170.014 9.81371 170.064 9.72225 170.078C9.63079 170.093 9.53721 170.072 9.4605 170.02C9.38515 169.964 9.33462 169.881 9.31988 169.789C9.30513 169.696 9.32738 169.601 9.38177 169.525V169.525Z" fill="white"/>
<path d="M41.3783 122.184C41.4536 122.459 41.5289 122.734 41.6098 123.011C42.6416 126.704 43.9703 130.307 45.5826 133.783C45.703 134.054 45.8291 134.327 45.957 134.594C49.9304 142.928 55.4089 150.449 62.1141 156.774C64.7845 159.289 67.6415 161.595 70.6601 163.674C74.8292 166.544 79.5767 169.323 82.4735 173.294C82.7803 173.704 83.0615 174.134 83.3155 174.58L75.4089 199.563C75.3626 199.611 75.3219 199.66 75.2755 199.708L75.0052 200.72C74.842 200.624 74.6749 200.521 74.5117 200.424C74.4169 200.369 74.3238 200.308 74.2289 200.253C74.1662 200.214 74.1036 200.175 74.0448 200.143C74.0239 200.131 74.0031 200.118 73.9878 200.107C73.9291 200.075 73.8778 200.04 73.8247 200.01C72.8888 199.435 71.9554 198.852 71.0243 198.262C71.0187 198.26 71.0187 198.26 71.0147 198.252C63.932 193.735 57.1622 188.583 51.3857 182.563C51.212 182.382 51.0325 182.199 50.8624 182.006C48.2736 179.278 45.911 176.342 43.7981 173.227C42.6467 171.517 41.5821 169.75 40.6084 167.933C38.1016 163.231 36.3462 158.163 35.4066 152.913C33.5349 142.448 35.0144 131.498 40.9206 122.841C41.0718 122.619 41.2213 122.403 41.3783 122.184Z" fill="#F0F0F0"/>
<path d="M41.6761 122.341C40.1975 135.567 42.9032 148.926 49.4091 160.519C50.8179 162.994 52.4614 165.382 54.5749 167.305C56.6494 169.164 59.1812 170.43 61.9074 170.973C64.4392 171.53 67.0932 171.806 69.4461 172.972C71.9261 174.201 73.5658 176.437 74.3253 179.079C75.2545 182.311 74.9728 185.686 74.5832 188.976C74.1506 192.63 73.6437 196.418 74.8744 199.977C75.0235 200.408 74.3492 200.615 74.2003 200.185C72.059 193.994 74.9611 187.543 74.0635 181.232C73.6447 178.288 72.3403 175.452 69.6983 173.911C67.3881 172.564 64.6515 172.277 62.0832 171.735C59.3864 171.166 56.9322 170.182 54.7806 168.417C52.5797 166.612 50.8398 164.284 49.3742 161.856C46.0916 156.325 43.6947 150.31 42.2713 144.031C40.6073 136.873 40.1738 129.483 40.9895 122.178C41.0402 121.726 41.7264 121.892 41.6761 122.341V122.341Z" fill="white"/>
<path d="M47.0956 156.91C45.012 157.743 42.7017 157.804 40.5772 157.083C38.4527 156.362 36.6523 154.906 35.4977 152.974C35.2654 152.582 35.8601 152.201 36.0927 152.593C37.1646 154.394 38.8418 155.751 40.8215 156.418C42.8012 157.086 44.953 157.02 46.8886 156.232C47.3094 156.062 47.514 156.74 47.0956 156.91Z" fill="white"/>
<path d="M60.5863 170.86C62.4376 166.646 62.6404 161.885 61.1542 157.527C61.0066 157.096 61.6809 156.888 61.8284 157.319C63.3665 161.857 63.1455 166.811 61.2093 171.192C61.0245 171.61 60.4025 171.275 60.5863 170.86V170.86Z" fill="white"/>
<path d="M41.527 137.04C42.4 136.887 43.2214 136.518 43.9174 135.967C44.6135 135.415 45.1624 134.699 45.5148 133.882C45.6943 133.462 46.3161 133.797 46.1378 134.214C45.7443 135.115 45.1371 135.905 44.3694 136.516C43.6018 137.127 42.6969 137.54 41.7339 137.718C41.6446 137.742 41.5493 137.732 41.4675 137.688C41.3856 137.645 41.3234 137.571 41.2934 137.483C41.2665 137.393 41.2759 137.296 41.3196 137.214C41.3633 137.131 41.4379 137.068 41.527 137.04V137.04Z" fill="white"/>
<path d="M60.6159 105.902C47.7746 93.197 42.3511 79.9429 45.3439 68.5812C49.1847 54.0008 66.2472 43.9198 92.1565 40.9229L92.2522 41.7592C66.7036 44.7142 49.9013 54.569 46.1536 68.7965C43.2409 79.8537 48.5858 92.8183 61.2036 105.302L60.6159 105.902Z" fill="#F0F0F0"/>
<path d="M184.513 150.999C168.486 150.999 151.07 148.605 133.771 144.003C112.379 138.311 92.7645 129.72 77.0483 119.158L77.5137 118.458C93.1542 128.969 112.682 137.521 133.986 143.189C153.238 148.312 172.634 150.685 190.071 150.059L190.101 150.899C188.26 150.966 186.397 150.999 184.513 150.999Z" fill="#F0F0F0"/>
<path d="M221.28 145.706L221.011 144.909C235.345 140.038 244.31 132.192 246.938 122.218C250.278 109.539 243.022 94.8259 226.507 80.7887C209.908 66.6802 185.971 54.9736 159.106 47.826L159.32 47.0122C186.303 54.1913 210.356 65.9585 227.047 80.1461C243.823 94.4049 251.175 109.423 247.747 122.434C245.045 132.694 235.892 140.741 221.28 145.706Z" fill="#F0F0F0"/>
<path d="M89.6633 151.351C58.1718 137.314 33.9052 119.103 21.334 100.072L22.0316 99.6064C34.5159 118.506 58.6551 136.609 90.0027 150.581L89.6633 151.351Z" fill="#F0F0F0"/>
<path d="M200.385 175.668C197.136 175.668 193.833 175.596 190.474 175.45L190.51 174.609C215.578 175.7 237.696 172.685 254.477 165.888L254.791 166.669C240.152 172.597 221.494 175.668 200.385 175.668Z" fill="#F0F0F0"/>
<path d="M182.113 41.6778C176.908 39.9747 171.554 38.3889 166.2 36.9644C135.391 28.7673 105.105 25.8569 78.616 28.5495L78.5317 27.7119C105.12 25.0105 135.509 27.9278 166.415 36.1507C171.784 37.5792 177.153 39.1696 182.372 40.8776L182.113 41.6778Z" fill="#F0F0F0"/>
<path d="M40.9348 107.164C28.0935 94.4597 22.6699 81.2056 25.6628 69.8439C29.5035 55.2635 46.5661 45.1825 72.4754 42.1855L72.5711 43.0219C47.0224 45.9769 30.2202 55.8317 26.4725 70.0592C23.5598 81.1164 28.9046 94.081 41.5224 106.565L40.9348 107.164Z" fill="#F0F0F0"/>
<path d="M164.831 152.262C148.805 152.262 131.389 149.868 114.09 145.265C92.6974 139.574 73.0828 130.983 57.3667 120.421L57.8321 119.721C73.4726 130.232 93.0002 138.784 114.304 144.452C133.556 149.574 152.952 151.948 170.389 151.321L170.419 152.162C168.578 152.229 166.715 152.262 164.831 152.262Z" fill="#F0F0F0"/>
<path d="M201.599 146.969L201.33 146.171C215.664 141.301 224.629 133.455 227.257 123.481C230.596 110.802 223.341 96.0886 206.826 82.0514C190.226 67.9428 166.29 56.2363 139.425 49.0887L139.639 48.2749C166.622 55.454 190.675 67.2211 207.366 81.4088C224.142 95.6675 231.494 110.686 228.066 123.696C225.364 133.956 216.211 142.004 201.599 146.969Z" fill="#F0F0F0"/>
<path d="M69.9817 152.614C38.4901 138.577 14.2235 120.366 1.65234 101.335L2.35 100.869C14.8343 119.768 38.9735 137.871 70.3211 151.844L69.9817 152.614Z" fill="#F0F0F0"/>
<path d="M180.704 176.931C177.455 176.931 174.152 176.858 170.792 176.712L170.828 175.872C195.897 176.962 218.015 173.947 234.796 167.151L235.109 167.932C220.471 173.86 201.813 176.931 180.704 176.931Z" fill="#F0F0F0"/>
<path d="M162.432 42.94C157.227 41.2369 151.873 39.6511 146.519 38.2266C115.71 30.0295 85.4242 27.1191 58.9348 29.8117L58.8506 28.9741C85.4387 26.2727 115.828 29.1901 146.734 37.4129C152.102 38.8415 157.471 40.4318 162.691 42.1398L162.432 42.94Z" fill="#F0F0F0"/>
<path d="M164.402 15.267C165.354 15.6661 166.391 15.8123 167.415 15.6914C168.439 15.5705 169.415 15.1866 170.248 14.5768C172.373 12.9841 173.17 10.2039 173.837 7.62617L175.808 0L172.479 2.03113C170.085 3.49153 167.636 5.00031 165.908 7.21743C164.18 9.43455 163.306 12.5415 164.445 15.1143" fill="#F2F2F2"/>
<path d="M75.3725 80.4098C76.015 79.5996 76.4391 78.6366 76.6038 77.6138C76.7686 76.591 76.6685 75.5428 76.3131 74.5701C75.3709 72.0801 72.9285 70.5487 70.6444 69.1978L63.8862 65.2041L64.9183 68.9779C65.6601 71.6918 66.4333 74.4721 68.0817 76.7496C69.7302 79.0271 72.464 80.723 75.238 80.3269" fill="#F2F2F2"/>
<path d="M234.08 197.827C234.723 197.017 235.147 196.054 235.311 195.031C235.476 194.008 235.376 192.96 235.021 191.987C234.078 189.497 231.636 187.966 229.352 186.615L222.594 182.621L223.626 186.395C224.368 189.109 225.141 191.889 226.789 194.167C228.438 196.444 231.172 198.14 233.946 197.744" fill="#F2F2F2"/>
<path d="M106.45 48.8342C108.3 48.8342 109.8 47.3268 109.8 45.4674C109.8 43.608 108.3 42.1006 106.45 42.1006C104.599 42.1006 103.1 43.608 103.1 45.4674C103.1 47.3268 104.599 48.8342 106.45 48.8342Z" fill="#FD6584"/>
<path d="M17.2553 148.154C19.1055 148.154 20.6053 146.647 20.6053 144.788C20.6053 142.928 19.1055 141.421 17.2553 141.421C15.4051 141.421 13.9053 142.928 13.9053 144.788C13.9053 146.647 15.4051 148.154 17.2553 148.154Z" fill="#FD6584"/>
<path d="M247.57 120.799C249.42 120.799 250.92 119.292 250.92 117.433C250.92 115.573 249.42 114.066 247.57 114.066C245.72 114.066 244.22 115.573 244.22 117.433C244.22 119.292 245.72 120.799 247.57 120.799Z" fill="#FD6584"/>
<path d="M13.9052 63.5637C15.7554 63.5637 17.2552 62.0563 17.2552 60.1969C17.2552 58.3374 15.7554 56.8301 13.9052 56.8301C12.055 56.8301 10.5552 58.3374 10.5552 60.1969C10.5552 62.0563 12.055 63.5637 13.9052 63.5637Z" fill="#E6E6E6"/>
<path d="M221.188 159.518C223.038 159.518 224.538 158.01 224.538 156.151C224.538 154.292 223.038 152.784 221.188 152.784C219.338 152.784 217.838 154.292 217.838 156.151C217.838 158.01 219.338 159.518 221.188 159.518Z" fill="#E6E6E6"/>
<path d="M227.888 57.2512C229.738 57.2512 231.238 55.7438 231.238 53.8844C231.238 52.0249 229.738 50.5176 227.888 50.5176C226.038 50.5176 224.538 52.0249 224.538 53.8844C224.538 55.7438 226.038 57.2512 227.888 57.2512Z" fill="#E6E6E6"/>
<path d="M37.2833 15.3033L35.6239 17.3956L29.7554 13.9067L31.4144 11.8145L37.2833 15.3033Z" fill="#E4E4E4"/>
<path d="M43.4068 24.2925L44.8722 26.4906L38.7072 29.5724L37.2417 27.3747L43.4068 24.2925Z" fill="#E4E4E4"/>
<path d="M49.7885 14.7368L52.7171 14.8411L52.4256 20.9997L49.4966 20.8958L49.7885 14.7368Z" fill="#E4E4E4"/>
<path d="M244.566 144.083L242.907 146.175L237.038 142.687L238.698 140.594L244.566 144.083Z" fill="#E4E4E4"/>
<path d="M250.689 153.073L252.155 155.271L245.99 158.353L244.524 156.155L250.689 153.073Z" fill="#E4E4E4"/>
<path d="M257.071 143.517L260 143.621L259.708 149.779L256.779 149.676L257.071 143.517Z" fill="#E4E4E4"/>
</g>
<defs>
<clipPath id="clip0_10083_51956">
<rect width="260" height="201" fill="white"/>
</clipPath>
</defs>
</svg>
