<svg width="16" height="16" viewBox="0 0 16 16" fill="none" xmlns="http://www.w3.org/2000/svg">
<path d="M16 0H0V16H16V0Z" fill="white" fill-opacity="0.01"/>
<path d="M3.05025 3.05025C4.31757 1.78295 6.06688 1 8 1C9.93312 1 11.6824 1.78295 12.9497 3.05025C14.217 4.31757 15 6.06689 15 8C15 9.93311 14.217 11.6824 12.9497 12.9497C11.6824 14.217 9.93311 15 8 15C6.06689 15 4.31757 14.217 3.05025 12.9497C1.78295 11.6824 1 9.93312 1 8C1 6.06688 1.78295 4.31757 3.05025 3.05025ZM3.05025 3.05025L2.6967 2.6967L3.05025 3.05025Z" stroke="#4A4A4A" stroke-linejoin="round"/>
<path d="M8 9.54183V8.2085C9.10457 8.2085 10 7.31306 10 6.2085C10 5.10393 9.10457 4.2085 8 4.2085C6.89543 4.2085 6 5.10393 6 6.2085" stroke="#4A4A4A" stroke-linecap="round" stroke-linejoin="round"/>
<path fill-rule="evenodd" clip-rule="evenodd" d="M8.00008 12.5417C8.46032 12.5417 8.83342 12.1686 8.83342 11.7083C8.83342 11.2481 8.46032 10.875 8.00008 10.875C7.53985 10.875 7.16675 11.2481 7.16675 11.7083C7.16675 12.1686 7.53985 12.5417 8.00008 12.5417Z" fill="#4A4A4A"/>
</svg>
