<svg width="100" height="21" viewBox="0 0 100 21"  xmlns="http://www.w3.org/2000/svg">
<path fill-rule="evenodd" clip-rule="evenodd" d="M24.7383 4.01977C24.8174 3.63666 24.8212 3.23969 24.7495 2.85486C24.6843 2.5018 24.5447 2.17009 24.3415 1.88599C24.1383 1.60647 23.8771 1.38353 23.5793 1.23549C23.2588 1.07586 22.9099 0.995498 22.5575 1.00019H13.1494L9.77612 18.2573H8.91163L8.38105 20.9723H22.3144L22.845 18.2573H21.9558L24.7383 4.01977ZM19.9014 12.6356H14.053L14.7354 9.14315H20.5833L19.9014 12.6356ZM20.8692 3.52152C20.9692 3.5117 21.07 3.52868 21.1626 3.571C21.2552 3.61332 21.3369 3.67968 21.4006 3.76431C21.4643 3.84893 21.508 3.94923 21.5279 4.05649C21.5479 4.16374 21.5434 4.27469 21.515 4.37964L21.0703 6.65181H15.2224L15.8343 3.52152H20.8692ZM13.566 15.1269H19.414L18.8021 18.2573H12.9542L13.566 15.1269ZM2.02687 16.4026H8.48457L8.96096 13.9643H6.11322L10.4494 7.26081H7.62708L11.673 1.00019H8.01348L2.11304 10.1143H4.93538L0.883542 16.4026H2.02687ZM8.26862 17.5098L0.498195 18.368L0 20.917L7.75941 20.1142L8.26862 17.5098ZM28.5852 9.69907H47.5528L48.0834 6.98401H49.66L47.9818 1.00019H31.4306L27.4131 6.98401H29.1166L28.5852 9.69907ZM44.9535 3.35541L45.9786 6.9563H31.131L33.5638 3.35541H44.9547H44.9535ZM48.0235 11.1939H27.5056L25.5888 21H43.3105C43.7004 21 44.0869 20.9202 44.4498 20.7647C44.8182 20.6084 45.1613 20.3887 45.4661 20.1142C45.7736 19.8384 46.0392 19.5115 46.253 19.1454C46.4673 18.7804 46.6194 18.3764 46.7021 17.9527L48.0235 11.1939ZM43.2819 17.3714C43.2356 17.622 43.1107 17.8471 42.9285 18.0081C42.7596 18.1676 42.5439 18.2559 42.3204 18.2573H29.6591L30.5039 13.9366H43.9541L43.2819 17.3714ZM50.1046 17.0669H52.0878L51.8713 18.1742C51.8266 18.4096 51.7135 18.6232 51.5488 18.7832C51.3994 18.9416 51.2 19.0316 50.9915 19.0346H50.5338L49.5446 20.9723H52.5956C52.9031 20.9718 53.2071 20.9011 53.488 20.7647C53.7777 20.6263 54.0459 20.4395 54.2828 20.2111C54.528 19.9735 54.7402 19.6984 54.9129 19.3945C55.0935 19.0793 55.2216 18.7318 55.2913 18.368L56.3851 12.774L58.5532 9.61603H57.0023L57.8308 5.37616H58.7969L59.3275 2.66107H58.3614L58.6864 1.00019H55.2293L54.9043 2.66107H52.921L52.3904 5.37616H54.3737L52.8793 13.0232L50.1046 17.0669ZM61.1204 20.8062L64.0551 5.79139H63.3433L66.1345 1.1386H62.7293L58.2108 8.64488H60.2703L57.8932 20.8062H61.1223H61.1204ZM65.1993 5.79139H68.0225L67.5144 8.39576H65.0471L64.576 10.8063H67.0424L66.5343 13.4107H64.067L63.5959 15.8213H66.0623L65.5588 18.3957H62.7365L62.2654 20.8062H71.6475L72.1186 18.3957H69.2963L69.8 15.8213H72.2662L72.7373 13.4107H70.271L70.7792 10.8063H73.2454L73.7165 8.39576H71.2511L71.7593 5.79139H74.5816L75.0527 3.38309H71.9259L71.8944 1.33239H68.411L68.4426 3.38309H65.6723L65.1993 5.79139ZM97.9537 1.08324H94.1654L93.4911 2.1905H84.4649L84.2493 1.08324H80.4353L80.6764 2.1905H77.7271L77.3373 4.18588H81.0747L82.5 4.5L85.0454 5.07167L84.8627 4.18588H92.3126L91.7833 5.07167H95.5719L96.1012 4.18588H99.6102L100 2.1905H97.2795L97.9537 1.08324ZM80.2991 5.68067L79.7753 6.54109H76.7497L76.2839 8.92168H78.3434L75.7444 13.2446H77.9818L76.4874 20.8893H79.8435L81.8687 10.5295H80.9026L81.8776 8.92168H98.5829L99.0487 6.54109H83.3093L83.8077 5.68067H80.2991ZM97.6498 14.2135H94.7259L97.1499 12.2181L97.5884 9.9759H83.4009L82.9563 12.2458H92.9742L90.5817 14.2135H81.8352L81.3967 16.458H89.4566L89.1102 18.2296C89.0708 18.4319 88.9679 18.613 88.8193 18.7417C88.6771 18.8752 88.4958 18.9488 88.3082 18.9493H83.5019L82.3093 20.8893H89.4795C89.8013 20.8893 90.1203 20.8235 90.4199 20.6955C90.7228 20.5676 91.0061 20.3902 91.2601 20.1696C91.5155 19.9477 91.7352 19.6811 91.9103 19.3807C92.0869 19.0792 92.2122 18.7455 92.2804 18.3957L92.6594 16.458H97.2115L97.6498 14.2135Z" fill="#404040"/>
<path fill-rule="evenodd" clip-rule="evenodd" d="M80.1129 1.78125C80.1129 1.78125 79.9365 2.34375 80.0247 2.8125C80.1129 3.46875 80.554 4.21875 81.9655 4.6875L86.0236 6C86.0236 4.21875 85.5825 2.625 84.6121 1.21875C83.9064 0.28125 83.1124 0 82.4948 0C81.7009 0 80.554 0.375 80.1129 1.78125Z" />
</svg>
