<svg width="10" height="10" viewBox="0 0 10 10" fill="none" xmlns="http://www.w3.org/2000/svg">
<path d="M10 0H0V10H10V0Z" fill="white" fill-opacity="0.01"/>
<path fill-rule="evenodd" clip-rule="evenodd" d="M0.583496 1.25016C0.583496 0.881973 0.881973 0.583496 1.25016 0.583496H4.99843C5.36662 0.583496 5.6651 0.881973 5.6651 1.25016C5.6651 1.61835 5.36662 1.91683 4.99843 1.91683H1.91683V8.0835H5.00016C5.36835 8.0835 5.66683 8.38197 5.66683 8.75016C5.66683 9.11835 5.36835 9.41683 5.00016 9.41683H1.25016C0.881973 9.41683 0.583496 9.11835 0.583496 8.75016V1.25016ZM6.40376 2.65376C6.66411 2.39341 7.08622 2.39341 7.34657 2.65376L9.189 4.4962C9.32874 4.6184 9.41699 4.798 9.41699 4.99821C9.41699 5.02083 9.41587 5.04318 9.41367 5.06522C9.39921 5.21355 9.33518 5.35796 9.22157 5.47157L7.34657 7.34657C7.08622 7.60692 6.66411 7.60692 6.40376 7.34657C6.14341 7.08622 6.14341 6.66411 6.40376 6.40376L7.14264 5.66488H3.33366C2.96547 5.66488 2.66699 5.3664 2.66699 4.99821C2.66699 4.63002 2.96547 4.33154 3.33366 4.33154H7.13873L6.40376 3.59657C6.14341 3.33622 6.14341 2.91411 6.40376 2.65376Z" fill="#888888"/>
</svg>
