<svg width="43" height="43" viewBox="0 0 43 43" fill="none" xmlns="http://www.w3.org/2000/svg">
<path fill-rule="evenodd" clip-rule="evenodd" d="M36.7674 40.2963H36.9681V39.8543C37.0185 39.8612 37.0548 39.8612 37.0766 39.8612C37.0907 39.8612 37.1342 39.8612 37.1705 39.8543L37.4369 40.2963H37.6744L37.3652 39.8109C37.5014 39.7529 37.5877 39.6082 37.5877 39.4484C37.5877 39.2457 37.4297 39.0725 37.0907 39.0725C36.9681 39.0725 36.8678 39.0794 36.7674 39.094V40.2963ZM36.9681 39.2603C37.0044 39.253 37.0621 39.253 37.1124 39.253C37.2785 39.253 37.3797 39.3328 37.3797 39.4561C37.3797 39.6082 37.2785 39.6957 37.0979 39.6957C37.0621 39.6957 37.0185 39.6957 36.9681 39.688V39.2603ZM37.1487 40.7683C36.5872 40.7683 36.1325 40.2748 36.1325 39.7026C36.1325 39.1086 36.5872 38.6293 37.1487 38.6293C37.7175 38.6293 38.1722 39.1086 38.1722 39.7026C38.1722 40.2748 37.7175 40.7683 37.1487 40.7683ZM37.1487 40.9411C37.8255 40.9411 38.3657 40.3762 38.3657 39.7026C38.3657 39.0141 37.8255 38.4492 37.1487 38.4492C36.4715 38.4492 35.939 39.0072 35.939 39.7026C35.939 40.3839 36.4788 40.9411 37.1487 40.9411Z" />
<path fill-rule="evenodd" clip-rule="evenodd" d="M41.9821 17.4432C41.3587 16.0224 40.5258 14.7494 39.4069 13.6868C34.432 8.95691 26.4245 10.9691 24.0432 17.5427C23.5263 18.9701 23.2564 20.4424 23.2583 21.9703C23.2683 28.6103 23.2629 35.2499 23.2629 41.8895C23.2629 43.0185 23.2625 43.0185 22.0497 42.9498C22.0367 42.7328 22.0123 42.5051 22.0123 42.2773C22.0096 34.7753 21.9986 27.274 22.0138 19.7719C22.0238 14.7928 24.7017 10.7683 29.0238 9.19461C29.5445 9.00491 30.0896 8.87051 30.6332 8.76145C31.1727 8.65239 31.7243 8.60899 32.2732 8.53603C31.5998 5.42821 25.9798 1.8181 21.4168 1.64645C16.0804 1.44523 11.5342 4.8879 9.78237 8.53449C10.3019 8.59978 10.8077 8.63664 11.3036 8.7288C15.8899 9.57978 19.2542 13.0923 19.9127 17.7408C20.0303 18.5703 20.0998 19.4132 20.1021 20.2515C20.1166 27.5808 20.1051 34.9101 20.12 42.2393C20.1215 42.8165 19.9872 43.0588 19.3668 42.9882C18.908 42.9356 18.8156 42.7351 18.8183 42.3207C18.8328 39.9921 18.8251 37.6646 18.8251 35.3359C18.8251 30.7232 18.8656 26.1096 18.8095 21.4961C18.7759 18.7416 17.9246 16.2224 16.0521 14.1626C12.0732 9.78407 4.09744 9.65427 0.517823 16.6568C0.375432 16.9363 0.247548 17.2236 0.0498047 17.6387C1.75582 7.4823 10.9894 -0.181071 21.2755 0.00325581C32.3442 0.201407 40.3651 8.26875 41.9821 17.4432Z" />
<path fill-rule="evenodd" clip-rule="evenodd" d="M28.3578 41.7034C28.3349 41.4929 28.304 41.347 28.304 41.1999C28.3086 37.2776 28.2811 33.3541 28.3376 29.4322C28.3643 27.5102 28.8793 25.7038 30.3322 24.3379C32.1986 22.5841 34.4238 22.4032 36.6799 23.2868C38.9203 24.1655 40.0591 26.0133 40.219 28.3984C40.3862 30.8849 39.3192 32.9567 37.8282 34.841C35.4587 37.8363 32.5043 40.0525 28.9858 41.5079C28.7949 41.5874 28.5911 41.6315 28.3578 41.7034Z" />
<path fill-rule="evenodd" clip-rule="evenodd" d="M13.7365 41.8575C12.3519 41.1386 11.0429 40.5564 9.83392 39.8111C7.05635 38.0995 4.72848 35.8914 3.06903 33.0471C2.15361 31.4772 1.63826 29.7687 1.92418 27.9159C2.37044 25.0223 4.52959 22.9851 7.25486 22.85C10.4691 22.6887 12.7096 24.2893 13.4643 27.361C13.6682 28.1885 13.7735 29.0614 13.7815 29.9143C13.8148 33.6208 13.796 37.3273 13.7938 41.033C13.7934 41.2392 13.7663 41.445 13.7365 41.8575Z" />
<path fill-rule="evenodd" clip-rule="evenodd" d="M16.9113 42.5316C15.8462 42.5877 15.6993 42.461 15.6993 41.5021C15.6989 36.1992 15.6989 30.8968 15.6989 25.5939C15.6989 22.4308 14.1303 19.9336 11.4848 18.8829C8.39421 17.6564 4.98065 18.3388 2.86617 20.573C1.27964 22.2492 0.728785 24.3033 0.617316 26.534C0.606245 26.7475 0.590212 26.9603 0.444767 27.1999C0.332535 26.6653 0.18709 26.1342 0.111886 25.5939C-0.187401 23.4385 0.087073 21.3875 1.25979 19.507C2.07176 18.2055 3.15744 17.2259 4.6012 16.7029C7.7002 15.58 10.7469 15.6841 13.6695 17.2708C15.8172 18.4371 16.9174 20.3387 16.9354 22.7595C16.9835 29.2259 16.9525 35.6935 16.951 42.1607C16.951 42.2859 16.925 42.411 16.9113 42.5316Z" />
<path fill-rule="evenodd" clip-rule="evenodd" d="M25.127 42.5601V41.7586C25.127 35.7887 25.1911 29.8177 25.1067 23.8494C25.0384 19.0093 27.7247 16.9318 31.5097 16.1661C33.436 15.7755 35.3551 15.9253 37.2077 16.59C40.3952 17.734 42.3131 20.8721 42.0821 24.5713C42.0245 25.4803 41.8329 26.3816 41.6275 27.259C41.4473 26.137 41.3694 24.9857 41.0682 23.897C39.4775 18.1299 33.2352 16.9813 29.3017 19.6041C27.256 20.9693 26.407 23.0645 26.3993 25.4926C26.3822 30.7947 26.3944 36.0967 26.3936 41.398C26.3936 42.489 26.3646 42.5178 25.127 42.5601Z" />
</svg>
