<svg width="16" height="16" viewBox="0 0 16 16"  xmlns="http://www.w3.org/2000/svg">
<path fill-rule="evenodd" clip-rule="evenodd" d="M2 2H7V7H2L2 2ZM1 2C1 1.44772 1.44772 1 2 1H7C7.55228 1 8 1.44772 8 2V7C8 7.55228 7.55228 8 7 8H2C1.44772 8 1 7.55228 1 7V2ZM9 9H14V14H9V9ZM8 9C8 8.44772 8.44772 8 9 8H14C14.5523 8 15 8.44772 15 9V14C15 14.5523 14.5523 15 14 15H9C8.44772 15 8 14.5523 8 14V9Z" />
<path d="M6.5 13H4V10.5M4 10.5V9.5L2.5 10.5H4Z"  stroke-linecap="round" stroke-linejoin="round"/>
<path d="M9.5 3L12 3V5.5M12 5.5V6.5L13.5 5.5H12Z"  stroke-linecap="round" stroke-linejoin="round"/>
</svg>
