<svg width="16" height="16" viewBox="0 0 16 16" fill="none" xmlns="http://www.w3.org/2000/svg">
<path d="M16 0H0V16H16V0Z" fill="white" fill-opacity="0.01"/>
<path fill-rule="evenodd" clip-rule="evenodd" d="M8.00033 0.666992C3.95024 0.666992 0.666992 3.95024 0.666992 8.00033C0.666992 12.0504 3.95024 15.3337 8.00033 15.3337C12.0504 15.3337 15.3337 12.0504 15.3337 8.00033C15.3337 3.95024 12.0504 0.666992 8.00033 0.666992ZM2.00033 8.00033C2.00033 4.68662 4.68662 2.00033 8.00033 2.00033C11.314 2.00033 14.0003 4.68662 14.0003 8.00033C14.0003 11.314 11.314 14.0003 8.00033 14.0003C4.68662 14.0003 2.00033 11.314 2.00033 8.00033ZM5.33366 7.3335C4.96547 7.3335 4.66699 7.63197 4.66699 8.00016C4.66699 8.36835 4.96547 8.66683 5.33366 8.66683H10.667C11.0352 8.66683 11.3337 8.36835 11.3337 8.00016C11.3337 7.63197 11.0352 7.3335 10.667 7.3335H5.33366Z" />
</svg>
