<svg width="32" height="72" viewBox="0 0 32 72" fill="none" xmlns="http://www.w3.org/2000/svg">
<path fill-rule="evenodd" clip-rule="evenodd" d="M28.5283 65.9293C28.3166 66.2038 28.0976 66.4766 27.8726 66.7426H24.9891L20.4814 56.4195L16.5302 66.7426H12.4678L20.1475 46.7363H24.21L21.344 54.1656H23.3752L28.5283 65.9293ZM9.04526 46.7363H4.53759L6.541 51.2162H11.0765L9.04526 46.7363ZM9.96349 52.8022H4.50977V55.5291H6.15145V63.7097C6.15145 64.1363 6.22565 64.5352 6.37405 64.9062C6.541 65.2586 6.75433 65.574 7.01403 65.8522C7.29228 66.1305 7.61691 66.3531 7.98791 66.52C8.35891 66.6684 8.75774 66.7426 9.18439 66.7426H11.4104L12.4678 64.3496H10.8261C10.5849 64.3496 10.3809 64.2662 10.2139 64.0992C10.047 63.9323 9.96349 63.7282 9.96349 63.4871V52.8022Z" fill="#404040"/>
<path fill-rule="evenodd" clip-rule="evenodd" d="M30.5799 55.091C30.0779 47.0387 23.1432 40.9181 15.091 41.4201C7.03874 41.9221 0.918078 48.8568 1.42011 56.909C1.92214 64.9613 8.85675 71.0819 16.909 70.5799C18.8627 70.4581 20.7011 69.9581 22.3586 69.1562L22.9645 70.4086C21.1472 71.2878 19.1327 71.8352 16.9956 71.9685C8.17644 72.5183 0.581387 65.8147 0.0315458 56.9956C-0.518296 48.1764 6.18529 40.5814 15.0044 40.0315C23.8236 39.4817 31.4186 46.1853 31.9685 55.0044C32.2416 59.3862 30.7234 63.467 28.0461 66.5297L26.9986 65.6141C29.4444 62.8162 30.8294 59.0922 30.5799 55.091Z" fill="#404040"/>
<path fill-rule="evenodd" clip-rule="evenodd" d="M16.3514 1.39562C8.28563 1.20154 1.58969 7.58281 1.39561 15.6486C1.34852 17.6056 1.68818 19.4803 2.34418 21.2008L1.04418 21.6965C0.324923 19.81 -0.04679 17.7558 0.00471893 15.6151C0.21728 6.78118 7.55093 -0.207839 16.3849 0.00472282C25.2188 0.217284 32.2078 7.55093 31.9953 16.3849C31.7827 25.2188 24.4491 32.2078 15.6151 31.9953C11.226 31.8897 7.29116 30.0252 4.47059 27.0937L5.47318 26.129C8.04986 28.8071 11.6407 30.5079 15.6486 30.6044C23.7144 30.7985 30.4103 24.4172 30.6044 16.3514C30.7985 8.28563 24.4172 1.58969 16.3514 1.39562Z" fill="#404040"/>
<path d="M4.48095 27.1331H7.29137L8.12615 24.2392L8.96093 27.1331H11.7713L10.8253 23.8218H5.42703L4.48095 27.1331Z" fill="#404040"/>
<path d="M11.5209 23.8218L12.467 27.1331H15.3052L14.3592 23.8218H11.5209Z" fill="#404040"/>
<path d="M15.0548 23.8218L16.0009 27.1331H18.8113L17.8652 23.8218H15.0548Z" fill="#404040"/>
<path fill-rule="evenodd" clip-rule="evenodd" d="M4.45312 23.1818H18.5887V21.2061H13.1348V20.0653H18.5887V18.1175H13.1348V16.9766H15.5557C15.9638 16.9766 16.3533 16.9024 16.7244 16.754C17.0954 16.587 17.42 16.3644 17.6983 16.0862C17.9765 15.8079 18.1899 15.4925 18.3383 15.1401C18.5052 14.7691 18.5887 14.3702 18.5887 13.9436V7.09839H4.45312V16.9766H9.99048V18.1175H4.45312V20.0653H9.99048V21.2061H4.45312V23.1818ZM15.1939 14.9175C15.027 15.0844 14.8229 15.1679 14.5818 15.1679H13.1348V14.4444H14.4705L15.4444 11.801V14.3053C15.4444 14.5465 15.3609 14.7505 15.1939 14.9175ZM13.1348 8.90707H15.4444V9.76968H13.7192L13.1348 11.2723V8.90707ZM7.62528 9.76968V8.90707H9.99048V12.3575L9.01658 9.76968H7.62528ZM9.99048 14.4444V15.1679H7.62528V12.6914L8.26528 14.4444H9.99048Z" fill="#404040"/>
<path d="M28.2963 24.0541L26.8808 16.9766H24.46L25.0165 14.027H28.8565L28.2999 7.37665H25.4617L25.7956 11.3279H25.0165V7.09839H21.7609V11.3279H19.34V14.027H21.7609L19.34 27.1331H22.5678L24.1539 18.7018L25.8133 27.0821C26.8345 26.1254 27.6641 25.0491 28.2963 24.0541Z" fill="#404040"/>
</svg>
