<svg width="104" height="140" viewBox="0 0 104 140" fill="none" xmlns="http://www.w3.org/2000/svg">
<mask id="mask0_6613_37877" style="mask-type:alpha" maskUnits="userSpaceOnUse" x="0" y="0" width="104" height="140">
<rect width="104" height="140" rx="4" fill="#F7F7F7"/>
</mask>
<g mask="url(#mask0_6613_37877)">
<path opacity="0.05" fill-rule="evenodd" clip-rule="evenodd" d="M35.4658 48.3168C35.4658 48.3168 48.2866 47.6541 57.9671 58.243C61.1822 61.7743 64.2426 66.3095 66 72.6352C61.362 38.4203 31.8013 12.0346 -4.00499 12C-39.8063 12.0346 -69.3719 38.4203 -74 72.6352C-72.2476 66.3095 -69.1822 61.7743 -65.972 58.243C-56.2916 47.6541 -43.4708 48.3168 -43.4708 48.3168C-11.5986 49.9093 -11.4738 81.681 -11.4738 81.681V151.679C-9.97104 151.827 -8.4683 151.931 -6.94558 152V77.2694C-6.94558 67.0761 -10.1708 57.1747 -17.325 50.1022C-23.8952 43.5738 -32.4174 39.9535 -41.334 39.8299C-37.5497 33.2569 -32.2426 27.7374 -25.977 23.8797C-19.357 19.8143 -11.7484 17.6481 -4.00997 17.6481H-4C3.74338 17.6481 11.342 19.8143 17.962 23.8797C24.2376 27.7374 29.5447 33.2569 33.324 39.8299C24.4124 39.9535 15.8902 43.5738 9.31501 50.1022C2.16574 57.1747 -1.06439 67.0761 -1.06439 77.2694V152C0.453329 151.931 1.97105 151.827 3.46381 151.679V81.681C3.46381 81.681 3.59859 49.9093 35.4658 48.3168ZM38.3265 86.1174C38.3265 86.1174 33.5487 86.2014 29.5097 88.7139C24.7119 91.6912 19.7094 97.735 19.7094 110.233V148.033C33.8782 142.974 46.005 133.557 54.3425 121.401C59.8642 112.498 60.1288 105.411 58.7409 100.302C56.7838 93.6992 50.663 85.4398 38.3265 86.1174ZM56.3595 69.6826C52.0709 66.359 45.6855 63.8317 36.1797 63.8317C36.1797 63.8317 9.33997 63.99 9.33997 87.3439V150.862C10.8577 150.561 12.3555 150.234 13.8382 149.844V93.5706C13.8382 93.5706 13.6934 89.0502 16.2496 84.0451C19.0005 78.3228 24.9016 72.0911 37.5577 71.7449C37.5577 71.7449 48.2217 70.7657 56.1747 79.3713C59.9141 83.6197 63.2941 88.6199 63.3689 102.829C70.0539 83.1202 59.8293 72.6451 56.3595 69.6826ZM-44.1797 63.8317C-53.6755 63.8317 -60.0559 66.359 -64.3545 69.6826C-67.8193 72.6451 -78.0489 83.1202 -71.364 102.829C-71.2941 88.6199 -67.9141 83.6197 -64.1697 79.3713C-56.2167 70.7657 -45.5477 71.7449 -45.5477 71.7449C-32.8967 72.0911 -26.9955 78.3228 -24.2396 84.0451C-21.6935 89.0502 -21.8283 93.5706 -21.8283 93.5706V149.844C-20.3505 150.234 -18.8527 150.561 -17.34 150.862V87.3439C-17.34 63.99 -44.1797 63.8317 -44.1797 63.8317ZM-37.4947 88.7139C-41.5387 86.2014 -46.3215 86.1174 -46.3215 86.1174C-58.658 85.4398 -64.7738 93.6992 -66.7309 100.302C-68.1188 105.411 -67.8542 112.498 -62.3375 121.401C-54 133.557 -41.8732 142.974 -27.6994 148.033V110.233C-27.6994 97.735 -32.7069 91.6912 -37.4947 88.7139Z" fill="#FF5E00"/>
</g>
</svg>
