<svg width="16" height="16" viewBox="0 0 16 16" xmlns="http://www.w3.org/2000/svg">
<path d="M9.3335 2H14.0002V6.66667" stroke-linecap="round" stroke-linejoin="round"/>
<path fill-rule="evenodd" clip-rule="evenodd" d="M3 1.5C2.17157 1.5 1.5 2.17157 1.5 3V13C1.5 13.8284 2.17157 14.5 3 14.5H13C13.8284 14.5 14.5 13.8284 14.5 13V10C14.5 9.72386 14.2761 9.5 14 9.5C13.7239 9.5 13.5 9.72386 13.5 10V13C13.5 13.2761 13.2761 13.5 13 13.5H3C2.72386 13.5 2.5 13.2761 2.5 13V3C2.5 2.72386 2.72386 2.5 3 2.5H6C6.27614 2.5 6.5 2.27614 6.5 2C6.5 1.72386 6.27614 1.5 6 1.5H3ZM14.0537 2.65336C14.2489 2.4581 14.2489 2.14151 14.0537 1.94625C13.8584 1.75099 13.5418 1.75099 13.3465 1.94625L8.24654 7.04626C8.05128 7.24152 8.05128 7.5581 8.24654 7.75336C8.44181 7.94862 8.75839 7.94862 8.95365 7.75336L14.0537 2.65336Z"/>
</svg>
