<svg width="73" height="26" viewBox="0 0 73 26" fill="none" xmlns="http://www.w3.org/2000/svg">
<path d="M6.95898 21.25H17.0423L19.7923 11.625L15.209 13.9167L12.0007 7.5L8.79232 13.9167L4.20898 11.625L6.95898 21.25Z" fill="#7A4AB7" stroke="#7A4AB7" stroke-linecap="round" stroke-linejoin="round"/>
<path d="M4.20898 11.625C4.96838 11.625 5.58398 11.0094 5.58398 10.25C5.58398 9.49061 4.96838 8.875 4.20898 8.875C3.44959 8.875 2.83398 9.49061 2.83398 10.25C2.83398 11.0094 3.44959 11.625 4.20898 11.625Z" fill="#7A4AB7" stroke="#7A4AB7" stroke-width="1.33333"/>
<path d="M12 7.5C12.7594 7.5 13.375 6.88439 13.375 6.125C13.375 5.36561 12.7594 4.75 12 4.75C11.2406 4.75 10.625 5.36561 10.625 6.125C10.625 6.88439 11.2406 7.5 12 7.5Z" fill="#7A4AB7" stroke="#7A4AB7" stroke-width="1.33333"/>
<path d="M19.793 11.625C20.5524 11.625 21.168 11.0094 21.168 10.25C21.168 9.49061 20.5524 8.875 19.793 8.875C19.0336 8.875 18.418 9.49061 18.418 10.25C18.418 11.0094 19.0336 11.625 19.793 11.625Z" fill="#7A4AB7" stroke="#7A4AB7" stroke-width="1.33333"/>
<g style="mix-blend-mode:lighten" opacity="0.3">
<rect width="12" height="26" fill="white"/>
</g>
<path d="M73 22V4C73 2.89543 72.1046 2 71 2H26.625L20 24H71C72.1046 24 73 23.1046 73 22Z" fill="#7A4AB7"/>
<path d="M31.24 14.44H34.02V15.44H31.24V16.06H34.02V17.08H30.04V17.74H38.53V17.08H34.76V16.06H37.71V15.44H34.76V14.44H38.08V13.8H34.76V13.01H34.02V13.8H31.52C31.61 13.56 31.7 13.32 31.78 13.06L31.13 12.91C30.77 14.01 30.29 14.91 29.7 15.59L30.18 16.15C30.58 15.66 30.93 15.09 31.24 14.44ZM30.94 9.15V12.69H37.45V9.15H30.94ZM36.74 12.08H31.65V11.21H36.74V12.08ZM31.65 10.63V9.77H36.74V10.63H31.65ZM42.48 15.89C41.6 16.24 40.57 16.52 39.4 16.73L39.49 17.43C40.61 17.22 41.6 16.93 42.48 16.57V15.89ZM41.26 8.82C40.84 9.96 40.34 10.98 39.77 11.87C39.68 12 39.58 12.09 39.47 12.13L39.65 12.79C40.23 12.72 40.81 12.64 41.39 12.55C40.83 13.45 40.35 14.08 39.95 14.46C39.86 14.54 39.75 14.61 39.62 14.66L39.81 15.31C40.78 15.19 41.8 14.98 42.86 14.66V14.01C42.14 14.23 41.41 14.41 40.69 14.54C41.31 13.85 42.08 12.69 43.02 11.07L42.39 10.84C42.18 11.21 41.98 11.56 41.79 11.9C41.31 11.98 40.83 12.04 40.35 12.09C40.89 11.35 41.42 10.35 41.94 9.09L41.26 8.82ZM43.99 9.92V10.46C43.97 13.69 43.31 16.03 42.01 17.49L42.54 17.96C43.55 16.82 44.21 15.19 44.51 13.08C44.82 14.1 45.28 15.02 45.88 15.83C45.31 16.43 44.6 16.94 43.76 17.35L44.16 18.01C45.02 17.59 45.76 17.07 46.36 16.43C46.86 17.01 47.47 17.53 48.17 17.99L48.62 17.39C47.92 16.95 47.31 16.46 46.79 15.9C47.51 14.95 47.97 13.78 48.18 12.4V12H46.91C47.07 11.36 47.23 10.59 47.39 9.69V9.24H43V9.92H43.99ZM46.3 15.33C45.46 14.26 44.91 12.99 44.66 11.53C44.68 11.19 44.69 10.83 44.69 10.46V9.92H46.65C46.44 11.11 46.25 12.01 46.07 12.63H47.46C47.26 13.66 46.88 14.56 46.3 15.33ZM54.23 9.29V9.95H55.93C55.89 10.33 55.84 10.7 55.77 11.06H54.47V15.86H55.12V11.66H57.42V15.88H58.07V11.06H56.43C56.51 10.7 56.57 10.33 56.62 9.95H58.44V9.29H54.23ZM56.88 16.05L56.44 16.47C57.17 17.03 57.74 17.57 58.16 18.08L58.64 17.59C58.16 17.08 57.57 16.57 56.88 16.05ZM55.99 12.21V13.93C55.97 14.85 55.79 15.59 55.46 16.16C55.1 16.7 54.48 17.14 53.58 17.48L53.95 18.05C54.87 17.7 55.54 17.22 55.94 16.61C56.36 15.94 56.58 15.05 56.6 13.93V12.21H55.99ZM51.42 17.49C52.32 17.22 53.13 16.89 53.85 16.49L53.74 15.87C53.18 16.17 52.62 16.42 52.05 16.63V12H53.11V14.05C53.11 14.23 53.01 14.32 52.83 14.32C52.67 14.32 52.5 14.31 52.32 14.3L52.49 14.88C52.68 14.89 52.86 14.9 53.03 14.9C53.5 14.9 53.74 14.67 53.74 14.22V11.39H51.42V16.51C51.42 16.67 51.32 16.79 51.14 16.86L51.42 17.49ZM53.87 9.3H50.01V13.36C49.99 15.13 49.77 16.51 49.36 17.5L49.9 17.98C50.41 16.82 50.68 15.28 50.71 13.36V9.98H53.87V9.3ZM66.94 14.9H61.24V18.03H61.94V17.6H66.24V18.03H66.94V14.9ZM61.94 16.95V15.55H66.24V16.95H61.94ZM62.74 10.44C62.1 11.37 61.29 12.12 60.3 12.69L60.76 13.25C61.2 12.97 61.62 12.66 62.01 12.31C62.44 12.69 62.91 13.03 63.42 13.33C62.36 13.75 61.02 14.08 59.41 14.34L59.68 14.98C61.48 14.67 62.97 14.25 64.15 13.71C65.39 14.31 66.8 14.66 68.4 14.78L68.56 14.13C67.21 14.03 65.99 13.77 64.9 13.34C65.67 12.9 66.26 12.4 66.67 11.83V11.25H62.98C63.14 11.04 63.29 10.82 63.44 10.59L62.74 10.44ZM64.16 13.01C63.54 12.7 62.96 12.33 62.43 11.89L62.46 11.86H65.81C65.4 12.28 64.85 12.67 64.16 13.01ZM68.06 9.58H64.37C64.25 9.28 64.14 9 64.02 8.76L63.23 8.88C63.36 9.09 63.48 9.32 63.6 9.58H59.94V11.47H60.67V10.23H67.33V11.47H68.06V9.58Z" fill="white"/>
</svg>
