<svg width="16" height="16" viewBox="0 0 16 16" fill="none" xmlns="http://www.w3.org/2000/svg">
<path d="M16 0H0V16H16V0Z" fill="white" fill-opacity="0.01"/>
<path fill-rule="evenodd" clip-rule="evenodd" d="M0.668457 8.00012C0.668457 3.95095 3.95095 0.668457 8.00012 0.668457C12.0493 0.668457 15.3318 3.95095 15.3318 8.00012C15.3318 12.0493 12.0493 15.3318 8.00012 15.3318C3.95095 15.3318 0.668457 12.0493 0.668457 8.00012ZM8.00012 1.99846C4.68549 1.99846 1.99846 4.68549 1.99846 8.00012C1.99846 11.3148 4.68549 14.0018 8.00012 14.0018C11.3148 14.0018 14.0018 11.3148 14.0018 8.00012C14.0018 4.68549 11.3148 1.99846 8.00012 1.99846ZM8.66496 6.77192L10.5297 8.63669C10.7894 8.89639 11.2105 8.89639 11.4702 8.63669C11.7299 8.37699 11.7299 7.95594 11.4702 7.69624L8.47019 4.69624C8.21049 4.43654 7.78943 4.43654 7.52973 4.69624L4.52973 7.69624C4.27004 7.95594 4.27004 8.37699 4.52973 8.63669C4.78943 8.89639 5.21049 8.89639 5.47019 8.63669L7.33496 6.77192V11C7.33496 11.3672 7.63269 11.665 7.99996 11.665C8.36723 11.665 8.66496 11.3672 8.66496 11V6.77192Z"/>
</svg>
