<svg width="10" height="10" viewBox="0 0 10 10" fill="none" xmlns="http://www.w3.org/2000/svg">
<path opacity="0.5" d="M0.16683 0.16683C-0.055607 0.389267 -0.0556132 0.749915 0.16683 0.972358L4.19447 5L0.16683 9.02764C-0.055607 9.25008 -0.0556132 9.61073 0.16683 9.83317C0.389274 10.0556 0.749921 10.0556 0.972358 9.83317L5 5.80553L9.02764 9.83317C9.25008 10.0556 9.61073 10.0556 9.83317 9.83317C10.0556 9.61073 10.0556 9.25008 9.83317 9.02764L5.80553 5L9.83317 0.972358C10.0556 0.749921 10.0556 0.389274 9.83317 0.16683C9.61073 -0.0556132 9.25008 -0.055607 9.02764 0.16683L5 4.19447L0.972358 0.16683C0.749915 -0.0556132 0.389267 -0.055607 0.16683 0.16683Z" fill="black"/>
</svg>
