<svg width="22" height="22" viewBox="0 0 22 22" fill="none" xmlns="http://www.w3.org/2000/svg">
<path fill-rule="evenodd" clip-rule="evenodd" d="M20.6 8.1C20.6 9.1 19.9 10 18.9 10.1L16.3 19.2C16.2 19.4 16 19.6 15.8 19.6H10.8V2C11.9 2 12.8 2.9 12.8 4C12.8 4.8 12.3 5.6 11.6 5.9L14.2 11.1L17.2 9.6C16.8 9.2 16.5 8.7 16.5 8.1C16.5 7 17.4 6.1 18.5 6.1C19.7 6.1 20.6 7 20.6 8.1Z" />
<path fill-rule="evenodd" clip-rule="evenodd" d="M10.8 2V19.6H5.8C5.6 19.6 5.4 19.5006 5.3 19.2023L2.7 10.1537C1.7 9.9548 1 9.15932 1 8.16497C1 7.07119 1.9 6.17627 3 6.17627C4.1 6.17627 5.1 7.07119 5.1 8.16497C5.1 8.76158 4.8 9.25876 4.4 9.6565L7.4 11.148L10 5.9774C9.3 5.6791 8.8 4.98305 8.8 4.08814C8.8 2.89492 9.7 2 10.8 2Z" />
<path opacity="0.3" fill-rule="evenodd" clip-rule="evenodd" d="M10.8 2V19.6H5.8C5.6 19.6 5.4 19.5006 5.3 19.2023L2.7 10.1537C1.7 9.9548 1 9.15932 1 8.16497C1 7.07119 1.9 6.17627 3 6.17627C4.1 6.17627 5.1 7.07119 5.1 8.16497C5.1 8.76158 4.8 9.25876 4.4 9.6565L7.4 11.148L10 5.9774C9.3 5.6791 8.8 4.98305 8.8 4.08814C8.8 2.89492 9.7 2 10.8 2Z" fill="white"/>
</svg>
