<svg width="80" height="160" viewBox="0 0 80 160" fill="none" xmlns="http://www.w3.org/2000/svg">
<g opacity="0.04">
<path fill-rule="evenodd" clip-rule="evenodd" d="M79.5464 64.9048C77.1773 59.618 74.0117 54.8812 69.7595 50.9275C50.853 33.328 20.4215 40.8153 11.3716 65.2749C9.40726 70.5861 8.38156 76.0644 8.38882 81.75C8.42654 106.457 8.40623 131.162 8.40623 155.868C8.40623 160.068 8.40478 160.068 3.79567 159.813C3.74634 159.005 3.65349 158.158 3.65349 157.311C3.64333 129.396 3.60126 101.484 3.65929 73.5696C3.69701 55.0427 13.8742 40.068 30.2999 34.2124C32.2787 33.5066 34.3504 33.0065 36.4164 32.6007C38.4663 32.1949 40.5627 32.0334 42.6489 31.7619C40.0897 20.1979 18.7314 6.76502 1.39028 6.12631C-18.8901 5.37757 -36.1674 18.1875 -42.825 31.7562C-40.8505 31.9991 -38.9282 32.1363 -37.0437 32.4792C-19.614 35.6456 -6.82836 48.7156 -4.32578 66.0122C-3.87894 69.0986 -3.61489 72.235 -3.60619 75.3543C-3.55106 102.626 -3.59458 129.898 -3.538 157.169C-3.5322 159.317 -4.04288 160.219 -6.40038 159.956C-8.14422 159.76 -8.4953 159.014 -8.48515 157.472C-8.43002 148.807 -8.45903 140.147 -8.45903 131.482C-8.45903 114.318 -8.30525 97.1519 -8.51852 79.9853C-8.64619 69.7359 -11.8814 60.3624 -18.9975 52.6979C-34.1189 36.4058 -64.4299 35.9228 -78.0338 61.9785C-78.575 63.0187 -79.061 64.0875 -79.8125 65.6322C-73.329 27.841 -38.2376 -0.673749 0.853493 0.0121146C42.9187 0.749418 73.401 30.7674 79.5464 64.9048Z" fill="#7340B3"/>
<path fill-rule="evenodd" clip-rule="evenodd" d="M27.7697 155.174C27.6826 154.391 27.5651 153.848 27.5651 153.3C27.5825 138.706 27.4781 124.107 27.6928 109.514C27.7943 102.362 29.7514 95.6406 35.2731 90.5581C42.3659 84.0324 50.8225 83.3594 59.3966 86.6473C67.9112 89.9165 72.2388 96.7923 72.8467 105.667C73.4822 114.919 69.4272 122.628 63.7605 129.639C54.7556 140.785 43.528 149.031 30.1562 154.446C29.4308 154.742 28.6561 154.906 27.7697 155.174Z" fill="#7340B3"/>
<path fill-rule="evenodd" clip-rule="evenodd" d="M15.4929 158.366V155.383C15.4929 133.17 15.7366 110.952 15.416 88.7447C15.1563 70.735 25.3654 63.0048 39.7498 60.1556C47.0704 58.7024 54.3635 59.2597 61.4041 61.7331C73.5181 65.9897 80.8068 77.6665 79.929 91.431C79.71 94.8131 78.9817 98.1667 78.2012 101.432C77.5164 97.2565 77.2205 92.9727 76.0758 88.9219C70.0304 67.4629 46.3073 63.1891 31.3586 72.9484C23.5838 78.028 20.3573 85.824 20.3283 94.8589C20.263 114.587 20.3094 134.316 20.3065 154.042C20.3065 158.101 20.1963 158.208 15.4929 158.366Z" fill="#7340B3"/>
</g>
</svg>
