<svg width="120" height="200" viewBox="0 0 120 200" fill="none" xmlns="http://www.w3.org/2000/svg">
<g opacity="0.04">
<path fill-rule="evenodd" clip-rule="evenodd" d="M239.32 57.3573C235.766 49.427 231.018 42.3218 224.639 36.3913C196.279 9.99194 150.632 21.223 137.057 57.9124C134.111 65.8791 132.572 74.0966 132.583 82.6249C132.64 119.685 132.609 156.743 132.609 193.801C132.609 200.103 132.607 200.103 125.693 199.719C125.62 198.508 125.48 197.237 125.48 195.966C125.465 154.094 125.402 112.226 125.489 70.3544C125.546 42.564 140.811 20.102 165.45 11.3186C168.418 10.2598 171.526 9.50969 174.625 8.90098C177.699 8.29228 180.844 8.05008 183.973 7.64285C180.135 -9.70308 148.097 -29.8525 122.085 -30.8105C91.6648 -31.9336 65.7489 -12.7187 55.7625 7.63428C58.7243 7.99864 61.6077 8.2044 64.4345 8.7188C90.5789 13.4684 109.757 33.0734 113.511 59.0183C114.182 63.6479 114.578 68.3525 114.591 73.0314C114.673 113.939 114.608 154.846 114.693 195.754C114.702 198.975 113.936 200.328 110.399 199.933C107.784 199.64 107.257 198.521 107.272 196.208C107.355 183.211 107.311 170.22 107.311 157.223C107.311 131.478 107.542 105.728 107.222 79.9779C107.031 64.6039 102.178 50.5436 91.5038 39.0468C68.8217 14.6087 23.3551 13.8842 2.94923 52.9677C2.13752 54.5281 1.4085 56.1313 0.28125 58.4482C10.0065 1.76157 62.6435 -41.0106 121.28 -39.9818C184.378 -38.8759 230.101 6.15109 239.32 57.3573Z" fill="#7340B3"/>
<path fill-rule="evenodd" clip-rule="evenodd" d="M78.3082 193.622C70.4152 189.609 62.9532 186.36 56.0612 182.2C40.2275 172.647 26.9573 160.323 17.4975 144.447C12.279 135.686 9.34122 126.15 10.9712 115.808C13.5151 99.6584 25.8235 88.2881 41.3591 87.5336C59.6824 86.6334 72.4543 95.5668 76.7566 112.711C77.9186 117.33 78.5192 122.202 78.5649 126.962C78.7543 147.65 78.6476 168.337 78.6346 189.02C78.6324 190.171 78.4779 191.32 78.3082 193.622Z" fill="#7340B3"/>
<path fill-rule="evenodd" clip-rule="evenodd" d="M96.4042 197.39C90.3327 197.703 89.4949 196.996 89.4949 191.644C89.4927 162.047 89.4927 132.452 89.4927 102.854C89.4927 85.1998 80.5509 71.2617 65.4701 65.3976C47.8518 58.5518 28.3926 62.3605 16.3388 74.8304C7.2947 84.186 4.1545 95.6507 3.51906 108.101C3.45595 109.293 3.36455 110.48 2.53543 111.818C1.89564 108.834 1.06652 105.87 0.637817 102.854C-1.06829 90.8239 0.496366 79.3764 7.18154 68.8805C11.8102 61.6168 17.9992 56.1492 26.2295 53.23C43.8956 46.9629 61.2635 47.5437 77.9242 56.3999C90.1673 62.9092 96.439 73.523 96.5413 87.0345C96.8155 123.126 96.6392 159.224 96.6305 195.32C96.6305 196.018 96.4826 196.717 96.4042 197.39Z" fill="#7340B3"/>
</g>
</svg>
