<svg width="75" height="22" viewBox="0 0 75 22" fill="none" xmlns="http://www.w3.org/2000/svg">
<path d="M75 20V2C75 0.895431 74.1046 0 73 0H28.625L22 22H73C74.1046 22 75 21.1046 75 20Z" fill="#7F7F7F"/>
<path d="M35.56 11.77L35.14 12.16C35.51 12.38 35.86 12.63 36.2 12.92H33.17V13.52H37.67C37.16 13.94 36.6 14.32 35.98 14.64C35.4 14.42 34.79 14.23 34.16 14.05L33.8 14.58C35.14 14.95 36.45 15.46 37.72 16.1L38.09 15.53C37.64 15.31 37.17 15.1 36.69 14.91C37.39 14.49 38.03 13.99 38.63 13.42V12.92H36.5L36.75 12.63C36.39 12.29 35.99 12.01 35.56 11.77ZM35.66 10.68C34.55 11.43 33.13 12.05 31.41 12.55L31.81 13.13C33.43 12.62 34.83 11.95 35.99 11.11C37.03 11.95 38.42 12.62 40.15 13.13L40.55 12.54C38.73 12.06 37.32 11.44 36.34 10.7V8.89H39.39V10.23H40.08V8.33H36.34V7.73H39.67V7.15H32.33V7.73H35.66V8.33H31.92V10.23H32.61V8.89H35.66V10.68ZM33.11 9.44V9.91H35.15V9.44H33.11ZM33.09 10.43V10.9H35.16V10.43H33.09ZM36.87 9.44V9.91H38.88V9.44H36.87ZM36.86 10.43V10.9H38.91V10.43H36.86ZM49.53 13.12H42.81V16.04H43.52V15.55H48.82V16.04H49.53V13.12ZM43.52 14.91V13.74H48.82V14.91H43.52ZM42.81 9.43V12.34H50.17V11.73H46.97V10.98H49.59V10.41H46.97V9.71H49.57V9.14H46.97V8.41H50.01V7.81H47.1C46.96 7.43 46.81 7.08 46.65 6.77L45.91 6.89C46.09 7.17 46.25 7.47 46.4 7.81H43.92C44.07 7.52 44.2 7.23 44.32 6.93L43.62 6.79C43.19 7.91 42.45 8.95 41.41 9.9L41.63 10.61C42.06 10.24 42.45 9.85 42.81 9.43ZM46.26 11.73H43.5V10.98H46.26V11.73ZM46.26 10.41H43.5V9.71H46.26V10.41ZM46.26 9.14H43.5V8.52C43.52 8.48 43.54 8.45 43.57 8.41H46.26V9.14ZM56.23 7.29V7.95H57.93C57.89 8.33 57.84 8.7 57.77 9.06H56.47V13.86H57.12V9.66H59.42V13.88H60.07V9.06H58.43C58.51 8.7 58.57 8.33 58.62 7.95H60.44V7.29H56.23ZM58.88 14.05L58.44 14.47C59.17 15.03 59.74 15.57 60.16 16.08L60.64 15.59C60.16 15.08 59.57 14.57 58.88 14.05ZM57.99 10.21V11.93C57.97 12.85 57.79 13.59 57.46 14.16C57.1 14.7 56.48 15.14 55.58 15.48L55.95 16.05C56.87 15.7 57.54 15.22 57.94 14.61C58.36 13.94 58.58 13.05 58.6 11.93V10.21H57.99ZM53.42 15.49C54.32 15.22 55.13 14.89 55.85 14.49L55.74 13.87C55.18 14.17 54.62 14.42 54.05 14.63V10H55.11V12.05C55.11 12.23 55.01 12.32 54.83 12.32C54.67 12.32 54.5 12.31 54.32 12.3L54.49 12.88C54.68 12.89 54.86 12.9 55.03 12.9C55.5 12.9 55.74 12.67 55.74 12.22V9.39H53.42V14.51C53.42 14.67 53.32 14.79 53.14 14.86L53.42 15.49ZM55.87 7.3H52.01V11.36C51.99 13.13 51.77 14.51 51.36 15.5L51.9 15.98C52.41 14.82 52.68 13.28 52.71 11.36V7.98H55.87V7.3ZM68.94 12.9H63.24V16.03H63.94V15.6H68.24V16.03H68.94V12.9ZM63.94 14.95V13.55H68.24V14.95H63.94ZM64.74 8.44C64.1 9.37 63.29 10.12 62.3 10.69L62.76 11.25C63.2 10.97 63.62 10.66 64.01 10.31C64.44 10.69 64.91 11.03 65.42 11.33C64.36 11.75 63.02 12.08 61.41 12.34L61.68 12.98C63.48 12.67 64.97 12.25 66.15 11.71C67.39 12.31 68.8 12.66 70.4 12.78L70.56 12.13C69.21 12.03 67.99 11.77 66.9 11.34C67.67 10.9 68.26 10.4 68.67 9.83V9.25H64.98C65.14 9.04 65.29 8.82 65.44 8.59L64.74 8.44ZM66.16 11.01C65.54 10.7 64.96 10.33 64.43 9.89L64.46 9.86H67.81C67.4 10.28 66.85 10.67 66.16 11.01ZM70.06 7.58H66.37C66.25 7.28 66.14 7 66.02 6.76L65.23 6.88C65.36 7.09 65.48 7.32 65.6 7.58H61.94V9.47H62.67V8.23H69.33V9.47H70.06V7.58Z" fill="white"/>
<path fill-rule="evenodd" clip-rule="evenodd" d="M20.6 8.1C20.6 9.1 19.9 10 18.9 10.1L16.3 19.2C16.2 19.4 16 19.6 15.8 19.6H10.8V2C11.9 2 12.8 2.9 12.8 4C12.8 4.8 12.3 5.6 11.6 5.9L14.2 11.1L17.2 9.6C16.8 9.2 16.5 8.7 16.5 8.1C16.5 7 17.4 6.1 18.5 6.1C19.7 6.1 20.6 7 20.6 8.1Z" fill="#7F7F7F"/>
<path fill-rule="evenodd" clip-rule="evenodd" d="M10.8 2V19.6H5.8C5.6 19.6 5.4 19.5006 5.3 19.2023L2.7 10.1537C1.7 9.9548 1 9.15932 1 8.16497C1 7.07119 1.9 6.17627 3 6.17627C4.1 6.17627 5.1 7.07119 5.1 8.16497C5.1 8.76158 4.8 9.25876 4.4 9.6565L7.4 11.148L10 5.9774C9.3 5.6791 8.8 4.98305 8.8 4.08814C8.8 2.89492 9.7 2 10.8 2Z" fill="#7F7F7F"/>
<path opacity="0.3" fill-rule="evenodd" clip-rule="evenodd" d="M10.8 2V19.6H5.8C5.6 19.6 5.4 19.5006 5.3 19.2023L2.7 10.1537C1.7 9.9548 1 9.15932 1 8.16497C1 7.07119 1.9 6.17627 3 6.17627C4.1 6.17627 5.1 7.07119 5.1 8.16497C5.1 8.76158 4.8 9.25876 4.4 9.6565L7.4 11.148L10 5.9774C9.3 5.6791 8.8 4.98305 8.8 4.08814C8.8 2.89492 9.7 2 10.8 2Z" fill="white"/>
</svg>
